<svg width="51" height="50" viewBox="0 0 51 50" fill="none" xmlns="http://www.w3.org/2000/svg">
<circle cx="25.8125" cy="25" r="25" fill="#8807F7"/>
<path d="M24.9172 31.9875C24.7727 31.9875 24.642 31.9647 24.525 31.9192C24.4073 31.8745 24.2942 31.8069 24.1859 31.7167C23.4095 31.0306 22.7956 30.1772 22.3442 29.1567C21.8928 28.137 21.6672 27.1125 21.6672 26.0833C21.6672 25.0542 21.8928 24.0293 22.3442 23.0088C22.7956 21.9891 23.4005 21.1361 24.1588 20.45C24.2672 20.3597 24.3845 20.2875 24.5109 20.2333C24.6373 20.1792 24.7727 20.1521 24.9172 20.1521C25.0616 20.1521 25.1927 20.1792 25.3104 20.2333C25.4274 20.2875 25.5401 20.3597 25.6484 20.45C26.4248 21.1361 27.0387 21.9891 27.4901 23.0088C27.9415 24.0293 28.1672 25.0542 28.1672 26.0833C28.1672 27.1125 27.9415 28.137 27.4901 29.1567C27.0387 30.1772 26.4338 31.0306 25.6755 31.7167C25.5852 31.8069 25.4725 31.8745 25.3375 31.9192C25.2017 31.9647 25.0616 31.9875 24.9172 31.9875ZM29.2505 33.6667C28.763 33.6667 28.2892 33.6215 27.8292 33.5312C27.3684 33.441 26.9213 33.3056 26.488 33.125C27.4991 32.4569 28.3026 31.4097 28.8984 29.9833C29.4942 28.5569 29.7922 27.2569 29.7922 26.0833C29.7922 24.9097 29.4942 23.6097 28.8984 22.1833C28.3026 20.7569 27.4991 19.7097 26.488 19.0417C26.9213 18.8611 27.3684 18.7257 27.8292 18.6354C28.2892 18.5451 28.763 18.5 29.2505 18.5C31.363 18.5 33.1548 19.2356 34.626 20.7067C36.0979 22.1786 36.8338 23.9708 36.8338 26.0833C36.8338 28.1958 36.0979 29.9877 34.626 31.4588C33.1548 32.9307 31.363 33.6667 29.2505 33.6667ZM20.5838 33.6667C18.4713 33.6667 16.6795 32.9307 15.2083 31.4588C13.7364 29.9877 13.0005 28.1958 13.0005 26.0833C13.0005 23.9708 13.7364 22.1786 15.2083 20.7067C16.6795 19.2356 18.4713 18.5 20.5838 18.5C21.0713 18.5 21.5451 18.5451 22.0052 18.6354C22.4659 18.7257 22.913 18.8611 23.3463 19.0417C22.3352 19.7097 21.5317 20.7569 20.9359 22.1833C20.3401 23.6097 20.0422 24.9097 20.0422 26.0833C20.0422 27.2569 20.3401 28.5569 20.9359 29.9833C21.5317 31.4097 22.3352 32.4569 23.3463 33.125C22.913 33.3056 22.4659 33.441 22.0052 33.5312C21.5451 33.6215 21.0713 33.6667 20.5838 33.6667Z" fill="white"/>
</svg>
