<svg width="51" height="50" viewBox="0 0 51 50" fill="none" xmlns="http://www.w3.org/2000/svg">
<circle cx="25.3756" cy="25" r="25" fill="#E8356D"/>
<path d="M19.6881 33.6875C19.1725 33.6875 18.7312 33.5041 18.3644 33.1372C17.9969 32.7697 17.8131 32.3281 17.8131 31.8125V22.4375C17.8131 21.9219 17.9969 21.4803 18.3644 21.1128C18.7312 20.7459 19.1725 20.5625 19.6881 20.5625H20.6256V18.6875C20.6256 17.3906 21.0828 16.285 21.9972 15.3706C22.9109 14.4569 24.0162 14 25.3131 14C26.61 14 27.7156 14.4569 28.63 15.3706C29.5437 16.285 30.0006 17.3906 30.0006 18.6875V20.5625H30.9381C31.4537 20.5625 31.8953 20.7459 32.2628 21.1128C32.6297 21.4803 32.8131 21.9219 32.8131 22.4375V31.8125C32.8131 32.3281 32.6297 32.7697 32.2628 33.1372C31.8953 33.5041 31.4537 33.6875 30.9381 33.6875H19.6881ZM25.3131 29C25.8287 29 26.2703 28.8166 26.6378 28.4497C27.0047 28.0822 27.1881 27.6406 27.1881 27.125C27.1881 26.6094 27.0047 26.1678 26.6378 25.8003C26.2703 25.4334 25.8287 25.25 25.3131 25.25C24.7975 25.25 24.3562 25.4334 23.9894 25.8003C23.6219 26.1678 23.4381 26.6094 23.4381 27.125C23.4381 27.6406 23.6219 28.0822 23.9894 28.4497C24.3562 28.8166 24.7975 29 25.3131 29ZM22.5006 20.5625H28.1256V18.6875C28.1256 17.9062 27.8522 17.2422 27.3053 16.6953C26.7584 16.1484 26.0944 15.875 25.3131 15.875C24.5319 15.875 23.8678 16.1484 23.3209 16.6953C22.774 17.2422 22.5006 17.9062 22.5006 18.6875V20.5625Z" fill="white"/>
</svg>
