<svg width="50" height="50" viewBox="0 0 50 50" fill="none" xmlns="http://www.w3.org/2000/svg">
<circle cx="25" cy="25" r="25" fill="#EAB308"/>
<path d="M26.9146 15.1547C29.0934 15.6389 30.901 16.7525 32.3373 18.4955C33.7737 20.2385 34.4919 22.2801 34.4919 24.6203C34.4919 26.0889 34.1972 27.4446 33.6078 28.6873C33.0191 29.9301 32.2163 30.9952 31.1995 31.8829H32.5552C32.8296 31.8829 33.0594 31.9758 33.2447 32.1618C33.4306 32.347 33.5236 32.5769 33.5236 32.8512C33.5236 33.1256 33.4306 33.3554 33.2447 33.5407C33.0594 33.7266 32.8296 33.8196 32.5552 33.8196H28.6818C28.4075 33.8196 28.1776 33.7266 27.9924 33.5407C27.8065 33.3554 27.7135 33.1256 27.7135 32.8512V28.9778C27.7135 28.7035 27.8065 28.4733 27.9924 28.2874C28.1776 28.1021 28.4075 28.0095 28.6818 28.0095C28.9562 28.0095 29.186 28.1021 29.3713 28.2874C29.5572 28.4733 29.6502 28.7035 29.6502 28.9778V30.6482C30.5378 29.922 31.2441 29.0424 31.7689 28.0095C32.2931 26.9766 32.5552 25.8469 32.5552 24.6203C32.5552 22.7643 31.9865 21.1462 30.849 19.766C29.7109 18.3864 28.2784 17.4949 26.5515 17.0914C26.3255 17.043 26.1399 16.93 25.9947 16.7525C25.8494 16.575 25.7768 16.3732 25.7768 16.1473C25.7768 15.8245 25.8898 15.5582 26.1157 15.3484C26.3417 15.1386 26.608 15.074 26.9146 15.1547ZM22.7023 34.0859C20.5235 33.6017 18.7159 32.4881 17.2796 30.7451C15.8432 29.0021 15.125 26.9605 15.125 24.6203C15.125 23.1516 15.4197 21.796 16.0091 20.5532C16.5979 19.3105 17.4006 18.2454 18.4174 17.3577H17.0617C16.7873 17.3577 16.5575 17.2647 16.3722 17.0788C16.1863 16.8935 16.0933 16.6637 16.0933 16.3894C16.0933 16.115 16.1863 15.8848 16.3722 15.6989C16.5575 15.5137 16.7873 15.421 17.0617 15.421H20.9351C21.2094 15.421 21.4396 15.5137 21.6255 15.6989C21.8108 15.8848 21.9034 16.115 21.9034 16.3894V20.2627C21.9034 20.5371 21.8108 20.7672 21.6255 20.9532C21.4396 21.1384 21.2094 21.2311 20.9351 21.2311C20.6607 21.2311 20.4306 21.1384 20.2446 20.9532C20.0594 20.7672 19.9667 20.5371 19.9667 20.2627V18.5923C19.0791 19.3025 18.3728 20.1782 17.848 21.2195C17.3238 22.2601 17.0617 23.3937 17.0617 24.6203C17.0617 26.4763 17.6308 28.0941 18.7689 29.4736C19.9064 30.8539 21.3385 31.7457 23.0654 32.1492C23.2914 32.1976 23.477 32.3106 23.6222 32.4881C23.7675 32.6656 23.8401 32.8674 23.8401 33.0933C23.8401 33.4161 23.7271 33.6824 23.5012 33.8922C23.2752 34.102 23.0089 34.1666 22.7023 34.0859ZM23.4286 28.6631C23.2994 28.6631 23.1784 28.6431 23.0654 28.6031C22.9525 28.5624 22.8476 28.4937 22.7507 28.3968L20.0151 25.6371C19.8376 25.4595 19.745 25.2375 19.7372 24.9708C19.7288 24.7049 19.8215 24.475 20.0151 24.2814C20.1927 24.1038 20.4186 24.0151 20.693 24.0151C20.9674 24.0151 21.1933 24.1038 21.3708 24.2814L23.4286 26.3391L28.2461 21.5216C28.4397 21.3279 28.6657 21.235 28.9239 21.2427C29.1821 21.2511 29.4081 21.3521 29.6018 21.5458C29.7793 21.7395 29.8723 21.9654 29.8806 22.2236C29.8884 22.4819 29.7954 22.7078 29.6018 22.9015L24.1064 28.3968C24.0096 28.4937 23.9047 28.5624 23.7917 28.6031C23.6787 28.6431 23.5577 28.6631 23.4286 28.6631Z" fill="white"/>
</svg>
