<svg width="301" height="196" viewBox="0 0 301 196" fill="none" xmlns="http://www.w3.org/2000/svg">
<g filter="url(#filter0_b_1_10649)">
<rect x="0.443359" y="0.0473633" width="300.351" height="195.951" rx="11.9128" fill="#8807F7"/>
</g>
<path d="M282.157 0.0473633H12.353C5.77549 0.0473633 0.443359 5.3795 0.443359 11.957V184.997C0.443359 186.273 1.86091 187.04 2.92912 186.34L283.037 2.99739C284.372 2.12324 283.753 0.0473633 282.157 0.0473633Z" fill="#820CE8"/>
<path d="M220.797 81.5063H185.951V173.203H220.797V81.5063Z" fill="#8807F7"/>
<path opacity="0.5" d="M220.904 81.5063H194.92V173.203H220.904V81.5063Z" fill="black"/>
<path d="M266.329 112.768H231.482V173.198H266.329V112.768Z" fill="#8807F7"/>
<path opacity="0.3" d="M266.318 112.626H240.334V173.203H266.318V112.626Z" fill="black"/>
<path d="M175.047 97.8578H140.201V173.198H175.047V97.8578Z" fill="#8807F7"/>
<path opacity="0.4" d="M175.06 97.6733H149.076V173.198H175.06V97.6733Z" fill="black"/>
<path d="M153.764 173.297C153.717 174.422 157.269 175.483 161.681 175.673C166.094 175.863 169.741 175.103 169.789 173.978C169.836 172.854 166.284 171.798 161.871 171.608C157.459 171.418 153.812 172.178 153.764 173.297Z" fill="#8807F7"/>
<path d="M153.85 171.261L153.764 173.291L169.805 173.972L169.891 171.941L153.85 171.261Z" fill="#8807F7"/>
<path d="M153.858 171.266C153.81 172.39 157.363 173.451 161.775 173.641C166.188 173.831 169.835 173.071 169.882 171.947C169.93 170.822 166.378 169.767 161.965 169.577C157.553 169.387 153.905 170.147 153.858 171.266Z" fill="#8807F7"/>
<path opacity="0.4" d="M153.858 171.266C153.81 172.39 157.363 173.451 161.775 173.641C166.188 173.831 169.835 173.071 169.882 171.947C169.93 170.822 166.378 169.767 161.965 169.577C157.553 169.387 153.905 170.147 153.858 171.266Z" fill="white"/>
<path d="M154.889 171.234C154.889 171.307 154.913 171.377 154.957 171.435C155.485 170.775 158.425 170.379 161.93 170.532C165.434 170.685 168.332 171.318 168.791 172.02C168.844 171.969 168.874 171.899 168.876 171.825C168.907 171.065 165.804 170.305 161.935 170.141C158.066 169.978 154.92 170.474 154.889 171.234Z" fill="#8807F7"/>
<path opacity="0.4" d="M154.889 171.234C154.889 171.307 154.913 171.377 154.957 171.435C155.485 170.775 158.425 170.379 161.93 170.532C165.434 170.685 168.332 171.318 168.791 172.02C168.844 171.969 168.874 171.899 168.876 171.825C168.907 171.065 165.804 170.305 161.935 170.141C158.066 169.978 154.92 170.474 154.889 171.234Z" fill="#8807F7"/>
<path opacity="0.4" d="M154.943 171.434C155.424 172.136 158.311 172.77 161.805 172.917C165.299 173.065 168.25 172.68 168.777 172.02C168.308 171.318 165.42 170.685 161.916 170.532C158.411 170.379 155.482 170.775 154.943 171.434Z" fill="#8807F7"/>
<path d="M152.061 170.22C152.014 171.344 155.566 172.405 159.978 172.595C164.391 172.785 168.038 172.025 168.085 170.906C168.133 169.787 164.581 168.721 160.168 168.531C155.756 168.341 152.13 169.101 152.061 170.22Z" fill="#8807F7"/>
<path d="M152.17 168.195L152.084 170.225L168.126 170.906L168.212 168.876L152.17 168.195Z" fill="#8807F7"/>
<path d="M152.17 168.194C152.123 169.313 155.675 170.374 160.088 170.564C164.5 170.754 168.147 169.994 168.195 168.875C168.242 167.756 164.69 166.69 160.278 166.5C155.865 166.31 152.218 167.07 152.17 168.194Z" fill="#8807F7"/>
<path opacity="0.4" d="M152.17 168.194C152.123 169.313 155.675 170.374 160.088 170.564C164.5 170.754 168.147 169.994 168.195 168.875C168.242 167.756 164.69 166.69 160.278 166.5C155.865 166.31 152.218 167.07 152.17 168.194Z" fill="white"/>
<path d="M153.186 168.157C153.183 168.23 153.208 168.301 153.254 168.357C153.782 167.697 156.722 167.302 160.227 167.46C163.731 167.618 166.629 168.241 167.088 168.943C167.136 168.891 167.166 168.824 167.173 168.753C167.204 167.993 164.101 167.228 160.232 167.064C156.363 166.9 153.217 167.397 153.186 168.157Z" fill="#8807F7"/>
<path opacity="0.4" d="M153.186 168.157C153.183 168.23 153.208 168.301 153.254 168.357C153.782 167.697 156.722 167.302 160.227 167.46C163.731 167.618 166.629 168.241 167.088 168.943C167.136 168.891 167.166 168.824 167.173 168.753C167.204 167.993 164.101 167.228 160.232 167.064C156.363 166.9 153.217 167.397 153.186 168.157Z" fill="#8807F7"/>
<path opacity="0.4" d="M153.264 168.357C153.739 169.059 156.631 169.693 160.125 169.841C163.619 169.988 166.57 169.603 167.098 168.943C166.628 168.241 163.741 167.608 160.236 167.46C156.731 167.312 153.797 167.698 153.264 168.357Z" fill="#8807F7"/>
<path d="M152.295 166.515C152.248 167.639 155.8 168.7 160.213 168.89C164.625 169.08 168.272 168.32 168.32 167.196C168.367 166.072 164.815 165.016 160.403 164.826C155.99 164.636 152.343 165.396 152.295 166.515Z" fill="#8807F7"/>
<path d="M152.381 164.485L152.295 166.515L168.337 167.196L168.423 165.166L152.381 164.485Z" fill="#8807F7"/>
<path d="M152.389 164.483C152.342 165.608 155.894 166.669 160.306 166.859C164.719 167.049 168.361 166.289 168.408 165.17C168.456 164.051 164.904 162.984 160.491 162.794C156.079 162.604 152.437 163.364 152.389 164.483Z" fill="#8807F7"/>
<path opacity="0.4" d="M152.389 164.483C152.342 165.608 155.894 166.669 160.306 166.859C164.719 167.049 168.361 166.289 168.408 165.17C168.456 164.051 164.904 162.984 160.491 162.794C156.079 162.604 152.437 163.364 152.389 164.483Z" fill="white"/>
<path d="M153.412 164.452C153.412 164.525 153.436 164.595 153.481 164.653C154.009 163.993 156.948 163.597 160.453 163.755C163.958 163.914 166.855 164.536 167.315 165.238C167.367 165.189 167.397 165.12 167.399 165.048C167.431 164.288 164.327 163.523 160.458 163.359C156.59 163.196 153.444 163.692 153.412 164.452Z" fill="#8807F7"/>
<path opacity="0.4" d="M153.412 164.452C153.412 164.525 153.436 164.595 153.481 164.653C154.009 163.993 156.948 163.597 160.453 163.755C163.958 163.914 166.855 164.536 167.315 165.238C167.367 165.189 167.397 165.12 167.399 165.048C167.431 164.288 164.327 163.523 160.458 163.359C156.59 163.196 153.444 163.692 153.412 164.452Z" fill="#8807F7"/>
<path opacity="0.4" d="M153.482 164.652C153.963 165.354 156.85 165.987 160.344 166.135C163.838 166.283 166.789 165.898 167.316 165.238C166.847 164.536 163.96 163.903 160.455 163.755C156.95 163.607 154.021 164.003 153.482 164.652Z" fill="#8807F7"/>
<path d="M150.616 163.444C150.568 164.563 154.12 165.624 158.533 165.814C162.945 166.004 166.593 165.244 166.64 164.125C166.688 163.006 163.135 161.94 158.723 161.75C154.31 161.56 150.663 162.32 150.616 163.444Z" fill="#8807F7"/>
<path d="M150.701 161.397L150.615 163.428L166.657 164.108L166.743 162.078L150.701 161.397Z" fill="#8807F7"/>
<path d="M150.694 161.411C150.646 162.53 154.199 163.591 158.611 163.781C163.024 163.971 166.671 163.211 166.718 162.092C166.766 160.973 163.214 159.907 158.801 159.717C154.389 159.527 150.741 160.308 150.694 161.411Z" fill="#8807F7"/>
<path opacity="0.4" d="M150.694 161.411C150.646 162.53 154.199 163.591 158.611 163.781C163.024 163.971 166.671 163.211 166.718 162.092C166.766 160.973 163.214 159.907 158.801 159.717C154.389 159.527 150.741 160.308 150.694 161.411Z" fill="white"/>
<path d="M151.725 161.364C151.722 161.437 151.746 161.508 151.794 161.564C152.321 160.905 155.261 160.509 158.766 160.667C162.271 160.825 165.168 161.448 165.627 162.15C165.676 162.098 165.705 162.031 165.712 161.96C165.744 161.2 162.64 160.435 158.771 160.271C154.902 160.108 151.757 160.614 151.725 161.364Z" fill="#8807F7"/>
<path opacity="0.4" d="M151.725 161.364C151.722 161.437 151.746 161.508 151.794 161.564C152.321 160.905 155.261 160.509 158.766 160.667C162.271 160.825 165.168 161.448 165.627 162.15C165.676 162.098 165.705 162.031 165.712 161.96C165.744 161.2 162.64 160.435 158.771 160.271C154.902 160.108 151.757 160.614 151.725 161.364Z" fill="#8807F7"/>
<path opacity="0.4" d="M151.795 161.575C152.27 162.277 155.162 162.911 158.656 163.058C162.151 163.206 165.101 162.821 165.629 162.161C165.159 161.459 162.272 160.826 158.767 160.678C155.263 160.53 152.328 160.915 151.795 161.575Z" fill="#8807F7"/>
<path d="M153.186 160.836C153.139 161.955 156.691 163.016 161.103 163.206C165.516 163.396 169.163 162.636 169.21 161.517C169.258 160.398 165.706 159.332 161.293 159.142C156.881 158.952 153.234 159.712 153.186 160.836Z" fill="#8807F7"/>
<path d="M153.272 158.803L153.186 160.834L169.227 161.514L169.313 159.484L153.272 158.803Z" fill="#8807F7"/>
<path d="M153.272 158.804C153.224 159.923 156.777 160.984 161.189 161.174C165.602 161.364 169.249 160.604 169.296 159.485C169.344 158.366 165.792 157.3 161.379 157.11C156.967 156.92 153.319 157.669 153.272 158.804Z" fill="#8807F7"/>
<path opacity="0.4" d="M153.272 158.804C153.224 159.923 156.777 160.984 161.189 161.174C165.602 161.364 169.249 160.604 169.296 159.485C169.344 158.366 165.792 157.3 161.379 157.11C156.967 156.92 153.319 157.669 153.272 158.804Z" fill="white"/>
<path d="M154.295 158.767C154.297 158.839 154.321 158.909 154.364 158.967C154.891 158.308 157.837 157.912 161.336 158.07C164.835 158.229 167.744 158.851 168.198 159.553C168.249 159.503 168.281 159.435 168.287 159.363C168.319 158.603 165.215 157.838 161.346 157.674C157.478 157.511 154.332 158.007 154.295 158.767Z" fill="#8807F7"/>
<path opacity="0.4" d="M154.295 158.767C154.297 158.839 154.321 158.909 154.364 158.967C154.891 158.308 157.837 157.912 161.336 158.07C164.835 158.229 167.744 158.851 168.198 159.553C168.249 159.503 168.281 159.435 168.287 159.363C168.319 158.603 165.215 157.838 161.346 157.674C157.478 157.511 154.332 158.007 154.295 158.767Z" fill="#8807F7"/>
<path opacity="0.4" d="M154.365 158.968C154.846 159.67 157.733 160.303 161.227 160.451C164.721 160.599 167.677 160.213 168.199 159.554C167.735 158.852 164.842 158.218 161.338 158.07C157.833 157.923 154.904 158.308 154.365 158.968Z" fill="#8807F7"/>
<path d="M151.491 157.759C151.443 158.878 154.995 159.944 159.408 160.129C163.82 160.313 167.468 159.559 167.515 158.44C167.563 157.321 164.01 156.254 159.598 156.064C155.185 155.874 151.522 156.613 151.491 157.759Z" fill="#8807F7"/>
<path d="M151.576 155.721L151.49 157.751L167.532 158.432L167.618 156.401L151.576 155.721Z" fill="#8807F7"/>
<path d="M151.592 155.727C151.545 156.846 155.097 157.912 159.509 158.097C163.922 158.281 167.569 157.532 167.617 156.408C167.664 155.283 164.112 154.223 159.699 154.033C155.287 153.843 151.64 154.603 151.592 155.727Z" fill="#8807F7"/>
<path opacity="0.4" d="M151.592 155.727C151.545 156.846 155.097 157.912 159.509 158.097C163.922 158.281 167.569 157.532 167.617 156.408C167.664 155.283 164.112 154.223 159.699 154.033C155.287 153.843 151.64 154.603 151.592 155.727Z" fill="white"/>
<path d="M152.584 155.69C152.582 155.763 152.607 155.834 152.653 155.891C153.181 155.231 156.12 154.835 159.625 154.994C163.13 155.152 166.027 155.775 166.487 156.482C166.538 156.43 166.568 156.36 166.571 156.287C166.603 155.527 163.499 154.767 159.63 154.598C155.762 154.429 152.637 154.93 152.584 155.69Z" fill="#8807F7"/>
<path opacity="0.4" d="M152.584 155.69C152.582 155.763 152.607 155.834 152.653 155.891C153.181 155.231 156.12 154.835 159.625 154.994C163.13 155.152 166.027 155.775 166.487 156.482C166.538 156.43 166.568 156.36 166.571 156.287C166.603 155.527 163.499 154.767 159.63 154.598C155.762 154.429 152.637 154.93 152.584 155.69Z" fill="#8807F7"/>
<path opacity="0.4" d="M152.662 155.891C153.142 156.593 156.03 157.226 159.524 157.379C163.018 157.532 165.968 157.142 166.496 156.482C166.026 155.775 163.139 155.141 159.635 154.994C156.13 154.846 153.2 155.231 152.662 155.891Z" fill="#8807F7"/>
<path d="M129.842 172.316C129.79 173.441 133.342 174.501 137.76 174.686C142.177 174.871 145.814 174.121 145.861 172.997C145.909 171.873 142.362 170.812 137.944 170.627C133.527 170.443 129.89 171.192 129.842 172.316Z" fill="#8807F7"/>
<path d="M129.928 170.274L129.842 172.304L145.883 172.985L145.97 170.954L129.928 170.274Z" fill="#8807F7"/>
<path d="M129.944 170.284C129.896 171.408 133.449 172.469 137.861 172.659C142.274 172.849 145.921 172.089 145.968 170.965C146.016 169.84 142.464 168.78 138.051 168.595C133.639 168.41 129.991 169.16 129.944 170.284Z" fill="#8807F7"/>
<path opacity="0.4" d="M129.944 170.284C129.896 171.408 133.449 172.469 137.861 172.659C142.274 172.849 145.921 172.089 145.968 170.965C146.016 169.84 142.464 168.78 138.051 168.595C133.639 168.41 129.991 169.16 129.944 170.284Z" fill="white"/>
<path d="M130.928 170.247C130.924 170.32 130.949 170.392 130.997 170.447C131.525 169.788 134.465 169.392 137.969 169.55C141.474 169.708 144.372 170.337 144.831 171.039C144.879 170.984 144.909 170.916 144.915 170.843C144.947 170.083 141.843 169.323 137.975 169.16C134.106 168.996 130.965 169.487 130.928 170.247Z" fill="#8807F7"/>
<path opacity="0.4" d="M130.928 170.247C130.924 170.32 130.949 170.392 130.997 170.447C131.525 169.788 134.465 169.392 137.969 169.55C141.474 169.708 144.372 170.337 144.831 171.039C144.879 170.984 144.909 170.916 144.915 170.843C144.947 170.083 141.843 169.323 137.975 169.16C134.106 168.996 130.965 169.487 130.928 170.247Z" fill="#8807F7"/>
<path opacity="0.4" d="M131.029 170.448C131.504 171.15 134.397 171.788 137.891 171.936C141.385 172.084 144.335 171.699 144.863 171.039C144.394 170.337 141.506 169.698 138.002 169.55C134.497 169.403 131.562 169.809 131.029 170.448Z" fill="#8807F7"/>
<path d="M136.825 170.337C136.561 171.429 139.85 173.145 144.162 174.169C148.474 175.192 152.185 175.14 152.443 174.047C152.702 172.955 149.414 171.239 145.101 170.215C140.789 169.191 137.084 169.244 136.825 170.337Z" fill="#8807F7"/>
<path d="M137.289 168.37L136.818 170.347L152.439 174.062L152.909 172.085L137.289 168.37Z" fill="#8807F7"/>
<path d="M137.294 168.357C137.03 169.45 140.318 171.165 144.631 172.195C148.943 173.224 152.653 173.166 152.912 172.073C153.171 170.981 149.898 169.281 145.581 168.225C141.263 167.17 137.563 167.265 137.294 168.357Z" fill="#8807F7"/>
<path opacity="0.4" d="M137.294 168.357C137.03 169.45 140.318 171.165 144.631 172.195C148.943 173.224 152.653 173.166 152.912 172.073C153.171 170.981 149.898 169.281 145.581 168.225C141.263 167.17 137.563 167.265 137.294 168.357Z" fill="white"/>
<path d="M138.302 168.516C138.286 168.588 138.297 168.663 138.333 168.727C138.983 168.199 141.938 168.358 145.348 169.171C148.758 169.983 151.487 171.155 151.814 171.931C151.873 171.889 151.916 171.827 151.935 171.757C152.109 171.018 149.206 169.683 145.438 168.785C141.669 167.888 138.481 167.777 138.302 168.516Z" fill="#8807F7"/>
<path opacity="0.4" d="M138.302 168.516C138.286 168.588 138.297 168.663 138.333 168.727C138.983 168.199 141.938 168.358 145.348 169.171C148.758 169.983 151.487 171.155 151.814 171.931C151.873 171.889 151.916 171.827 151.935 171.757C152.109 171.018 149.206 169.683 145.438 168.785C141.669 167.888 138.481 167.777 138.302 168.516Z" fill="#8807F7"/>
<path opacity="0.4" d="M138.342 168.753C138.68 169.534 141.393 170.706 144.808 171.514C148.222 172.321 151.178 172.506 151.822 171.957C151.495 171.181 148.777 170.009 145.356 169.196C141.936 168.384 138.986 168.178 138.342 168.753Z" fill="#8807F7"/>
<path d="M157.182 157.089C161.176 157.089 164.413 153.851 164.413 149.858C164.413 145.864 161.176 142.627 157.182 142.627C153.189 142.627 149.951 145.864 149.951 149.858C149.951 153.851 153.189 157.089 157.182 157.089Z" fill="#8807F7"/>
<path d="M158.049 157.089C162.043 157.089 165.28 153.851 165.28 149.858C165.28 145.864 162.043 142.627 158.049 142.627C154.056 142.627 150.818 145.864 150.818 149.858C150.818 153.851 154.056 157.089 158.049 157.089Z" fill="#8807F7"/>
<path opacity="0.5" d="M158.049 157.089C162.043 157.089 165.28 153.851 165.28 149.858C165.28 145.864 162.043 142.627 158.049 142.627C154.056 142.627 150.818 145.864 150.818 149.858C150.818 153.851 154.056 157.089 158.049 157.089Z" fill="white"/>
<path d="M161.884 153.687C163.999 151.572 163.999 148.143 161.884 146.028C159.769 143.914 156.341 143.914 154.226 146.028C152.111 148.143 152.111 151.572 154.226 153.687C156.341 155.802 159.769 155.802 161.884 153.687Z" fill="#8807F7"/>
<path d="M259.356 174.29C259.314 175.409 255.693 176.19 251.26 176.031C246.826 175.873 243.274 174.833 243.311 173.714C243.348 172.595 246.979 171.809 251.407 171.967C255.836 172.126 259.399 173.165 259.356 174.29Z" fill="#8807F7"/>
<path d="M243.383 171.666L243.311 173.696L259.356 174.271L259.429 172.24L243.383 171.666Z" fill="#8807F7"/>
<path d="M259.434 172.258C259.392 173.377 255.771 174.158 251.338 174C246.904 173.841 243.352 172.802 243.389 171.683C243.426 170.564 247.052 169.777 251.486 169.936C255.919 170.094 259.477 171.134 259.434 172.258Z" fill="#8807F7"/>
<path opacity="0.4" d="M259.434 172.258C259.392 173.377 255.771 174.158 251.338 174C246.904 173.841 243.352 172.802 243.389 171.683C243.426 170.564 247.052 169.777 251.486 169.936C255.919 170.094 259.477 171.134 259.434 172.258Z" fill="white"/>
<path d="M258.399 172.142C258.396 172.215 258.366 172.285 258.315 172.337C257.834 171.635 254.942 171.017 251.453 170.896C247.964 170.775 245.009 171.176 244.486 171.836C244.44 171.781 244.414 171.712 244.412 171.64C244.444 170.88 247.579 170.363 251.464 170.5C255.348 170.637 258.426 171.392 258.399 172.142Z" fill="#8807F7"/>
<path opacity="0.4" d="M258.399 172.142C258.396 172.215 258.366 172.285 258.315 172.337C257.834 171.635 254.942 171.017 251.453 170.896C247.964 170.775 245.009 171.176 244.486 171.836C244.44 171.781 244.414 171.712 244.412 171.64C244.444 170.88 247.579 170.363 251.464 170.5C255.348 170.637 258.426 171.392 258.399 172.142Z" fill="#8807F7"/>
<path opacity="0.4" d="M258.335 172.337C257.807 172.997 254.872 173.392 251.367 173.276C247.863 173.16 244.96 172.537 244.506 171.835C245.034 171.176 247.958 170.78 251.473 170.896C254.988 171.012 257.854 171.635 258.335 172.337Z" fill="#8807F7"/>
<path d="M261.27 171.355C261.228 172.474 257.607 173.255 253.174 173.097C248.74 172.939 245.188 171.899 245.225 170.775C245.262 169.65 248.893 168.874 253.322 169.033C257.75 169.191 261.318 170.231 261.27 171.355Z" fill="#8807F7"/>
<path d="M245.313 168.76L245.24 170.791L261.286 171.368L261.359 169.337L245.313 168.76Z" fill="#8807F7"/>
<path d="M261.341 169.323C261.299 170.442 257.678 171.223 253.244 171.065C248.811 170.907 245.253 169.867 245.295 168.743C245.338 167.619 248.958 166.843 253.392 167.001C257.826 167.159 261.378 168.225 261.341 169.323Z" fill="#8807F7"/>
<path opacity="0.4" d="M261.341 169.323C261.299 170.442 257.678 171.223 253.244 171.065C248.811 170.907 245.253 169.867 245.295 168.743C245.338 167.619 248.958 166.843 253.392 167.001C257.826 167.159 261.378 168.225 261.341 169.323Z" fill="white"/>
<path d="M260.337 169.208C260.335 169.279 260.304 169.348 260.252 169.398C259.772 168.701 256.879 168.083 253.391 167.962C249.902 167.84 246.941 168.242 246.424 168.901C246.377 168.847 246.351 168.778 246.35 168.706C246.381 167.946 249.516 167.429 253.401 167.566C257.286 167.703 260.363 168.447 260.337 169.208Z" fill="#8807F7"/>
<path opacity="0.4" d="M260.337 169.208C260.335 169.279 260.304 169.348 260.252 169.398C259.772 168.701 256.879 168.083 253.391 167.962C249.902 167.84 246.941 168.242 246.424 168.901C246.377 168.847 246.351 168.778 246.35 168.706C246.381 167.946 249.516 167.429 253.401 167.566C257.286 167.703 260.363 168.447 260.337 169.208Z" fill="#8807F7"/>
<path opacity="0.4" d="M260.264 169.397C259.736 170.062 256.802 170.453 253.297 170.342C249.792 170.231 246.889 169.603 246.436 168.901C246.963 168.241 249.887 167.845 253.403 167.962C256.918 168.078 259.763 168.7 260.264 169.397Z" fill="#8807F7"/>
<path d="M261.341 167.64C261.299 168.764 257.672 169.545 253.244 169.387C248.816 169.228 245.253 168.189 245.295 167.064C245.338 165.94 248.958 165.164 253.392 165.323C257.826 165.481 261.378 166.521 261.341 167.64Z" fill="#8807F7"/>
<path d="M245.384 165.047L245.311 167.078L261.356 167.655L261.429 165.625L245.384 165.047Z" fill="#8807F7"/>
<path d="M261.435 165.586C261.392 166.711 257.766 167.492 253.338 167.333C248.91 167.175 245.347 166.135 245.389 165.011C245.431 163.887 249.052 163.111 253.48 163.269C257.909 163.428 261.471 164.489 261.435 165.586Z" fill="#8807F7"/>
<path opacity="0.4" d="M261.435 165.586C261.392 166.711 257.766 167.492 253.338 167.333C248.91 167.175 245.347 166.135 245.389 165.011C245.431 163.887 249.052 163.111 253.48 163.269C257.909 163.428 261.471 164.489 261.435 165.586Z" fill="white"/>
<path d="M260.41 165.497C260.403 165.567 260.373 165.634 260.325 165.687C259.84 164.99 256.947 164.372 253.464 164.246C249.98 164.119 247.019 164.525 246.496 165.191C246.45 165.134 246.426 165.063 246.428 164.99C246.428 164.23 249.595 163.718 253.479 163.855C257.364 163.992 260.436 164.737 260.41 165.497Z" fill="#8807F7"/>
<path opacity="0.4" d="M260.41 165.497C260.403 165.567 260.373 165.634 260.325 165.687C259.84 164.99 256.947 164.372 253.464 164.246C249.98 164.119 247.019 164.525 246.496 165.191C246.45 165.134 246.426 165.063 246.428 164.99C246.428 164.23 249.595 163.718 253.479 163.855C257.364 163.992 260.436 164.737 260.41 165.497Z" fill="#8807F7"/>
<path opacity="0.4" d="M260.303 165.687C259.775 166.352 256.841 166.743 253.336 166.632C249.831 166.521 246.929 165.893 246.475 165.191C247.002 164.526 249.927 164.135 253.442 164.246C256.957 164.357 259.818 164.99 260.303 165.687Z" fill="#8807F7"/>
<path d="M263.27 164.705C263.228 165.829 259.602 166.61 255.174 166.452C250.745 166.294 247.183 165.254 247.225 164.13C247.267 163.005 250.888 162.229 255.322 162.388C259.755 162.546 263.307 163.586 263.27 164.705Z" fill="#8807F7"/>
<path d="M247.274 162.088L247.201 164.119L263.247 164.694L263.32 162.663L247.274 162.088Z" fill="#8807F7"/>
<path d="M263.336 162.673C263.299 163.797 259.672 164.578 255.244 164.42C250.816 164.262 247.253 163.222 247.295 162.098C247.338 160.973 250.958 160.197 255.387 160.356C259.815 160.514 263.378 161.554 263.336 162.673Z" fill="#8807F7"/>
<path opacity="0.4" d="M263.336 162.673C263.299 163.797 259.672 164.578 255.244 164.42C250.816 164.262 247.253 163.222 247.295 162.098C247.338 160.973 250.958 160.197 255.387 160.356C259.815 160.514 263.378 161.554 263.336 162.673Z" fill="white"/>
<path d="M262.308 162.562C262.301 162.633 262.272 162.7 262.224 162.752C261.738 162.056 258.846 161.438 255.362 161.311C251.878 161.185 248.917 161.591 248.395 162.256C248.349 162.2 248.325 162.129 248.326 162.056C248.353 161.296 251.493 160.784 255.378 160.921C259.263 161.058 262.361 161.802 262.308 162.562Z" fill="#8807F7"/>
<path opacity="0.4" d="M262.308 162.562C262.301 162.633 262.272 162.7 262.224 162.752C261.738 162.056 258.846 161.438 255.362 161.311C251.878 161.185 248.917 161.591 248.395 162.256C248.349 162.2 248.325 162.129 248.326 162.056C248.353 161.296 251.493 160.784 255.378 160.921C259.263 161.058 262.361 161.802 262.308 162.562Z" fill="#8807F7"/>
<path opacity="0.4" d="M262.241 162.753C261.713 163.418 258.778 163.808 255.274 163.697C251.769 163.587 248.866 162.958 248.412 162.256C248.94 161.591 251.864 161.201 255.379 161.312C258.894 161.423 261.755 162.056 262.241 162.753Z" fill="#8807F7"/>
<path d="M199.561 172.031C199.514 173.156 203.06 174.217 207.478 174.407C211.896 174.597 215.533 173.837 215.58 172.712C215.628 171.588 212.081 170.527 207.663 170.342C203.245 170.158 199.593 170.912 199.561 172.031Z" fill="#8807F7"/>
<path d="M199.631 169.992L199.545 172.023L215.587 172.703L215.673 170.673L199.631 169.992Z" fill="#8807F7"/>
<path d="M199.647 169.999C199.599 171.123 203.152 172.184 207.564 172.374C211.977 172.564 215.624 171.804 215.671 170.68C215.719 169.555 212.167 168.495 207.754 168.31C203.342 168.125 199.694 168.88 199.647 169.999Z" fill="#8807F7"/>
<path opacity="0.4" d="M199.647 169.999C199.599 171.123 203.152 172.184 207.564 172.374C211.977 172.564 215.624 171.804 215.671 170.68C215.719 169.555 212.167 168.495 207.754 168.31C203.342 168.125 199.694 168.88 199.647 169.999Z" fill="white"/>
<path d="M200.662 169.967C200.659 170.039 200.684 170.108 200.731 170.162C201.259 169.503 204.199 169.107 207.703 169.265C211.208 169.423 214.106 170.052 214.565 170.754C214.613 170.699 214.643 170.631 214.649 170.558C214.681 169.798 211.578 169.038 207.709 168.874C203.84 168.711 200.694 169.207 200.662 169.967Z" fill="#8807F7"/>
<path opacity="0.4" d="M200.662 169.967C200.659 170.039 200.684 170.108 200.731 170.162C201.259 169.503 204.199 169.107 207.703 169.265C211.208 169.423 214.106 170.052 214.565 170.754C214.613 170.699 214.643 170.631 214.649 170.558C214.681 169.798 211.578 169.038 207.709 168.874C203.84 168.711 200.694 169.207 200.662 169.967Z" fill="#8807F7"/>
<path opacity="0.4" d="M200.732 170.162C201.207 170.87 204.1 171.503 207.594 171.651C211.088 171.798 214.039 171.413 214.566 170.753C214.097 170.051 211.21 169.418 207.705 169.265C204.2 169.112 201.266 169.502 200.732 170.162Z" fill="#8807F7"/>
<path d="M197.858 168.954C197.81 170.078 201.363 171.139 205.775 171.329C210.188 171.519 213.835 170.759 213.882 169.635C213.93 168.511 210.378 167.45 205.965 167.265C201.553 167.08 197.905 167.835 197.858 168.954Z" fill="#8807F7"/>
<path d="M197.944 166.931L197.857 168.961L213.899 169.642L213.985 167.612L197.944 166.931Z" fill="#8807F7"/>
<path d="M197.952 166.922C197.904 168.046 201.456 169.107 205.869 169.297C210.281 169.487 213.929 168.727 213.976 167.603C214.024 166.479 210.471 165.423 206.059 165.233C201.646 165.043 197.983 165.803 197.952 166.922Z" fill="#8807F7"/>
<path opacity="0.4" d="M197.952 166.922C197.904 168.046 201.456 169.107 205.869 169.297C210.281 169.487 213.929 168.727 213.976 167.603C214.024 166.479 210.471 165.423 206.059 165.233C201.646 165.043 197.983 165.803 197.952 166.922Z" fill="white"/>
<path d="M198.975 166.89C198.977 166.962 199.001 167.032 199.043 167.09C199.571 166.431 202.516 166.035 206.016 166.188C209.515 166.341 212.423 166.974 212.877 167.676C212.929 167.624 212.961 167.555 212.967 167.481C212.999 166.721 209.895 165.961 206.026 165.797C202.157 165.634 199.012 166.114 198.975 166.89Z" fill="#8807F7"/>
<path opacity="0.4" d="M198.975 166.89C198.977 166.962 199.001 167.032 199.043 167.09C199.571 166.431 202.516 166.035 206.016 166.188C209.515 166.341 212.423 166.974 212.877 167.676C212.929 167.624 212.961 167.555 212.967 167.481C212.999 166.721 209.895 165.961 206.026 165.797C202.157 165.634 199.012 166.114 198.975 166.89Z" fill="#8807F7"/>
<path opacity="0.4" d="M199.053 167.091C199.533 167.793 202.42 168.426 205.914 168.574C209.408 168.721 212.364 168.336 212.887 167.676C212.422 166.974 209.53 166.341 206.025 166.188C202.52 166.035 199.581 166.431 199.053 167.091Z" fill="#8807F7"/>
<path d="M198.077 165.249C198.029 166.373 201.581 167.434 205.994 167.624C210.406 167.814 214.054 167.054 214.101 165.93C214.149 164.806 210.596 163.745 206.184 163.56C201.771 163.375 198.124 164.13 198.077 165.249Z" fill="#8807F7"/>
<path d="M198.162 163.216L198.076 165.246L214.118 165.927L214.204 163.897L198.162 163.216Z" fill="#8807F7"/>
<path d="M198.163 163.216C198.115 164.34 201.667 165.401 206.08 165.591C210.492 165.781 214.139 165.021 214.187 163.897C214.234 162.773 210.682 161.712 206.27 161.527C201.857 161.342 198.21 162.097 198.163 163.216Z" fill="#8807F7"/>
<path opacity="0.4" d="M198.163 163.216C198.115 164.34 201.667 165.401 206.08 165.591C210.492 165.781 214.139 165.021 214.187 163.897C214.234 162.773 210.682 161.712 206.27 161.527C201.857 161.342 198.21 162.097 198.163 163.216Z" fill="white"/>
<path d="M199.186 163.185C199.183 163.257 199.207 163.327 199.254 163.38C199.782 162.726 202.722 162.325 206.227 162.483C209.731 162.642 212.629 163.27 213.088 163.972C213.137 163.917 213.166 163.849 213.173 163.776C213.205 163.016 210.101 162.256 206.232 162.093C202.363 161.929 199.217 162.42 199.186 163.185Z" fill="#8807F7"/>
<path opacity="0.4" d="M199.186 163.185C199.183 163.257 199.207 163.327 199.254 163.38C199.782 162.726 202.722 162.325 206.227 162.483C209.731 162.642 212.629 163.27 213.088 163.972C213.137 163.917 213.166 163.849 213.173 163.776C213.205 163.016 210.101 162.256 206.232 162.093C202.363 161.929 199.217 162.42 199.186 163.185Z" fill="#8807F7"/>
<path opacity="0.4" d="M199.256 163.38C199.731 164.088 202.623 164.721 206.117 164.869C209.612 165.017 212.562 164.631 213.09 163.971C212.62 163.269 209.733 162.636 206.228 162.483C202.724 162.33 199.789 162.726 199.256 163.38Z" fill="#8807F7"/>
<path d="M196.389 162.171C196.342 163.296 199.894 164.357 204.306 164.547C208.719 164.737 212.366 163.977 212.414 162.852C212.461 161.728 208.909 160.672 204.496 160.482C200.084 160.292 196.431 161.052 196.389 162.171Z" fill="#8807F7"/>
<path d="M196.475 160.134L196.389 162.164L212.43 162.845L212.516 160.815L196.475 160.134Z" fill="#8807F7"/>
<path d="M196.483 160.14C196.435 161.264 199.988 162.325 204.4 162.515C208.813 162.705 212.46 161.945 212.507 160.821C212.555 159.696 209.003 158.641 204.59 158.451C200.178 158.261 196.53 159.021 196.483 160.14Z" fill="#8807F7"/>
<path opacity="0.4" d="M196.483 160.14C196.435 161.264 199.988 162.325 204.4 162.515C208.813 162.705 212.46 161.945 212.507 160.821C212.555 159.696 209.003 158.641 204.59 158.451C200.178 158.261 196.53 159.021 196.483 160.14Z" fill="white"/>
<path d="M197.514 160.108C197.512 160.18 197.534 160.251 197.577 160.309C198.105 159.649 201.05 159.253 204.555 159.411C208.059 159.57 210.957 160.193 211.416 160.895C211.465 160.841 211.495 160.772 211.501 160.699C211.532 159.945 208.429 159.179 204.56 159.016C200.691 158.852 197.545 159.348 197.514 160.108Z" fill="#8807F7"/>
<path opacity="0.4" d="M197.514 160.108C197.512 160.18 197.534 160.251 197.577 160.309C198.105 159.649 201.05 159.253 204.555 159.411C208.059 159.57 210.957 160.193 211.416 160.895C211.465 160.841 211.495 160.772 211.501 160.699C211.532 159.945 208.429 159.179 204.56 159.016C200.691 158.852 197.545 159.348 197.514 160.108Z" fill="#8807F7"/>
<path opacity="0.4" d="M197.568 160.308C198.049 161.01 200.936 161.644 204.43 161.792C207.924 161.939 210.88 161.554 211.408 160.894C210.938 160.192 208.045 159.559 204.546 159.411C201.047 159.263 198.107 159.649 197.568 160.308Z" fill="#8807F7"/>
<path d="M198.975 159.564C198.928 160.689 202.48 161.75 206.892 161.94C211.305 162.13 214.952 161.37 214.999 160.245C215.047 159.121 211.495 158.065 207.082 157.875C202.67 157.685 199.044 158.445 198.975 159.564Z" fill="#8807F7"/>
<path d="M199.061 157.534L198.975 159.565L215.016 160.245L215.102 158.215L199.061 157.534Z" fill="#8807F7"/>
<path d="M199.053 157.532C199.006 158.656 202.558 159.717 206.97 159.907C211.383 160.097 215.03 159.337 215.078 158.213C215.125 157.088 211.573 156.033 207.16 155.843C202.748 155.653 199.117 156.413 199.053 157.532Z" fill="#8807F7"/>
<path opacity="0.4" d="M199.053 157.532C199.006 158.656 202.558 159.717 206.97 159.907C211.383 160.097 215.03 159.337 215.078 158.213C215.125 157.088 211.573 156.033 207.16 155.843C202.748 155.653 199.117 156.413 199.053 157.532Z" fill="white"/>
<path d="M200.092 157.5C200.092 157.573 200.116 157.643 200.16 157.701C200.688 157.041 203.628 156.645 207.133 156.804C210.637 156.962 213.535 157.585 213.994 158.287C214.021 158.261 214.042 158.231 214.056 158.198C214.071 158.164 214.078 158.128 214.079 158.091C214.111 157.337 211.007 156.571 207.138 156.408C203.269 156.244 200.092 156.74 200.092 157.5Z" fill="#8807F7"/>
<path opacity="0.4" d="M200.092 157.5C200.092 157.573 200.116 157.643 200.16 157.701C200.688 157.041 203.628 156.645 207.133 156.804C210.637 156.962 213.535 157.585 213.994 158.287C214.021 158.261 214.042 158.231 214.056 158.198C214.071 158.164 214.078 158.128 214.079 158.091C214.111 157.337 211.007 156.571 207.138 156.408C203.269 156.244 200.092 156.74 200.092 157.5Z" fill="#8807F7"/>
<path opacity="0.4" d="M200.162 157.701C200.642 158.403 203.53 159.037 207.024 159.184C210.518 159.332 213.468 158.947 213.996 158.287C213.526 157.585 210.639 156.952 207.135 156.804C203.63 156.656 200.7 157.041 200.162 157.701Z" fill="#8807F7"/>
<path d="M197.288 156.492C197.24 157.611 200.792 158.672 205.205 158.862C209.617 159.052 213.259 158.292 213.312 157.173C213.365 156.054 209.807 154.988 205.395 154.798C200.982 154.608 197.335 155.368 197.288 156.492Z" fill="#8807F7"/>
<path d="M197.373 154.452L197.287 156.482L213.329 157.163L213.415 155.133L197.373 154.452Z" fill="#8807F7"/>
<path d="M197.381 154.46C197.334 155.579 200.886 156.64 205.299 156.83C209.711 157.02 213.358 156.26 213.406 155.141C213.453 154.022 209.901 152.956 205.489 152.766C201.076 152.576 197.429 153.336 197.381 154.46Z" fill="#8807F7"/>
<path opacity="0.4" d="M197.381 154.46C197.334 155.579 200.886 156.64 205.299 156.83C209.711 157.02 213.358 156.26 213.406 155.141C213.453 154.022 209.901 152.956 205.489 152.766C201.076 152.576 197.429 153.336 197.381 154.46Z" fill="white"/>
<path d="M198.397 154.423C198.394 154.496 198.418 154.568 198.465 154.623C198.993 153.964 201.933 153.568 205.438 153.726C208.942 153.885 211.84 154.507 212.299 155.209C212.347 155.157 212.377 155.09 212.384 155.019C212.415 154.259 209.312 153.494 205.443 153.33C201.574 153.167 198.428 153.663 198.397 154.423Z" fill="#8807F7"/>
<path opacity="0.4" d="M198.397 154.423C198.394 154.496 198.418 154.568 198.465 154.623C198.993 153.964 201.933 153.568 205.438 153.726C208.942 153.885 211.84 154.507 212.299 155.209C212.347 155.157 212.377 155.09 212.384 155.019C212.415 154.259 209.312 153.494 205.443 153.33C201.574 153.167 198.428 153.663 198.397 154.423Z" fill="#8807F7"/>
<path opacity="0.4" d="M198.467 154.624C198.942 155.326 201.834 155.959 205.328 156.107C208.822 156.255 211.773 155.869 212.301 155.21C211.831 154.508 208.944 153.874 205.439 153.727C201.935 153.579 199 153.975 198.467 154.624Z" fill="#8807F7"/>
<path d="M215.016 154.307C215.063 155.426 211.511 156.492 207.099 156.677C202.686 156.862 199.05 156.086 198.976 154.988C198.902 153.89 202.475 152.803 206.893 152.613C211.311 152.423 214.963 153.183 215.016 154.307Z" fill="#8807F7"/>
<path d="M214.562 152.805L198.506 153.447L198.587 155.479L214.643 154.837L214.562 152.805Z" fill="#8807F7"/>
<path d="M214.914 152.275C214.961 153.394 211.409 154.46 206.996 154.645C202.584 154.83 198.937 154.08 198.889 152.956C198.842 151.832 202.394 150.771 206.806 150.581C211.219 150.391 214.871 151.151 214.914 152.275Z" fill="#8807F7"/>
<path opacity="0.4" d="M214.914 152.275C214.961 153.394 211.409 154.46 206.996 154.645C202.584 154.83 198.937 154.08 198.889 152.956C198.842 151.832 202.394 150.771 206.806 150.581C211.219 150.391 214.871 151.151 214.914 152.275Z" fill="white"/>
<path d="M213.899 152.238C213.904 152.311 213.879 152.383 213.831 152.438C213.303 151.779 210.363 151.383 206.858 151.541C203.354 151.7 200.456 152.322 199.997 153.03C199.95 152.975 199.92 152.906 199.912 152.834C199.881 152.074 202.984 151.314 206.853 151.151C210.722 150.987 213.868 151.478 213.899 152.238Z" fill="#8807F7"/>
<path opacity="0.4" d="M213.899 152.238C213.904 152.311 213.879 152.383 213.831 152.438C213.303 151.779 210.363 151.383 206.858 151.541C203.354 151.7 200.456 152.322 199.997 153.03C199.95 152.975 199.92 152.906 199.912 152.834C199.881 152.074 202.984 151.314 206.853 151.151C210.722 150.987 213.868 151.478 213.899 152.238Z" fill="#8807F7"/>
<path opacity="0.4" d="M213.832 152.438C213.357 153.14 210.465 153.774 206.97 153.927C203.476 154.08 200.526 153.689 199.998 153.03C200.468 152.322 203.355 151.689 206.86 151.541C210.364 151.393 213.304 151.779 213.832 152.438Z" fill="#8807F7"/>
<path d="M216.687 151.23C216.734 152.354 213.182 153.415 208.77 153.6C204.357 153.785 200.71 153.035 200.663 151.911C200.615 150.787 204.167 149.726 208.58 149.541C212.992 149.356 216.639 150.106 216.687 151.23Z" fill="#8807F7"/>
<path d="M216.602 149.193L200.561 149.874L200.647 151.904L216.688 151.223L216.602 149.193Z" fill="#8807F7"/>
<path d="M216.596 149.224C216.643 150.349 213.096 151.409 208.679 151.599C204.261 151.789 200.624 151.029 200.577 149.905C200.529 148.781 204.076 147.72 208.494 147.535C212.912 147.351 216.548 148.074 216.596 149.224Z" fill="#8807F7"/>
<path opacity="0.4" d="M216.596 149.224C216.643 150.349 213.096 151.409 208.679 151.599C204.261 151.789 200.624 151.029 200.577 149.905C200.529 148.781 204.076 147.72 208.494 147.535C212.912 147.351 216.548 148.074 216.596 149.224Z" fill="white"/>
<path d="M215.579 149.161C215.578 149.234 215.554 149.304 215.511 149.362C214.983 148.702 212.038 148.306 208.538 148.465C205.039 148.623 202.13 149.251 201.677 149.953C201.624 149.901 201.594 149.831 201.592 149.758C201.555 148.998 204.664 148.238 208.528 148.074C212.391 147.91 215.542 148.401 215.579 149.161Z" fill="#8807F7"/>
<path opacity="0.4" d="M215.579 149.161C215.578 149.234 215.554 149.304 215.511 149.362C214.983 148.702 212.038 148.306 208.538 148.465C205.039 148.623 202.13 149.251 201.677 149.953C201.624 149.901 201.594 149.831 201.592 149.758C201.555 148.998 204.664 148.238 208.528 148.074C212.391 147.91 215.542 148.401 215.579 149.161Z" fill="#8807F7"/>
<path opacity="0.4" d="M215.512 149.361C215.031 150.063 212.144 150.702 208.65 150.85C205.156 150.997 202.2 150.612 201.678 149.952C202.142 149.25 205.035 148.612 208.539 148.464C212.044 148.316 214.973 148.696 215.512 149.361Z" fill="#8807F7"/>
<path d="M216.447 147.525C216.495 148.644 212.948 149.71 208.53 149.895C204.112 150.079 200.476 149.33 200.428 148.206C200.381 147.081 203.928 146.02 208.345 145.83C212.763 145.64 216.41 146.4 216.447 147.525Z" fill="#8807F7"/>
<path d="M216.383 145.495L200.342 146.176L200.428 148.206L216.47 147.525L216.383 145.495Z" fill="#8807F7"/>
<path d="M216.367 145.493C216.414 146.617 212.862 147.678 208.449 147.863C204.037 148.048 200.39 147.298 200.342 146.174C200.295 145.05 203.847 143.989 208.259 143.804C212.672 143.619 216.319 144.369 216.367 145.493Z" fill="#8807F7"/>
<path opacity="0.4" d="M216.367 145.493C216.414 146.617 212.862 147.678 208.449 147.863C204.037 148.048 200.39 147.298 200.342 146.174C200.295 145.05 203.847 143.989 208.259 143.804C212.672 143.619 216.319 144.369 216.367 145.493Z" fill="white"/>
<path d="M215.353 145.456C215.357 145.529 215.332 145.601 215.284 145.656C214.756 144.996 211.816 144.601 208.311 144.759C204.807 144.917 201.909 145.545 201.45 146.247C201.403 146.192 201.373 146.124 201.365 146.052C201.334 145.292 204.437 144.532 208.306 144.368C212.175 144.205 215.321 144.696 215.353 145.456Z" fill="#8807F7"/>
<path opacity="0.4" d="M215.353 145.456C215.357 145.529 215.332 145.601 215.284 145.656C214.756 144.996 211.816 144.601 208.311 144.759C204.807 144.917 201.909 145.545 201.45 146.247C201.403 146.192 201.373 146.124 201.365 146.052C201.334 145.292 204.437 144.532 208.306 144.368C212.175 144.205 215.321 144.696 215.353 145.456Z" fill="#8807F7"/>
<path opacity="0.4" d="M215.277 145.657C214.802 146.359 211.91 146.997 208.416 147.145C204.922 147.293 201.971 146.908 201.443 146.248C201.913 145.546 204.8 144.907 208.305 144.759C211.81 144.612 214.744 145.002 215.277 145.657Z" fill="#8807F7"/>
<path d="M218.164 144.474C218.211 145.598 214.659 146.659 210.246 146.849C205.834 147.039 202.187 146.279 202.139 145.155C202.092 144.03 205.644 142.97 210.056 142.785C214.469 142.6 218.116 143.323 218.164 144.474Z" fill="#8807F7"/>
<path d="M218.063 142.423L202.021 143.104L202.108 145.134L218.149 144.453L218.063 142.423Z" fill="#8807F7"/>
<path d="M218.062 142.416C218.109 143.54 214.557 144.601 210.145 144.791C205.732 144.981 202.085 144.221 202.038 143.097C201.99 141.973 205.542 140.912 209.955 140.727C214.367 140.542 218.036 141.307 218.062 142.416Z" fill="#8807F7"/>
<path opacity="0.4" d="M218.062 142.416C218.109 143.54 214.557 144.601 210.145 144.791C205.732 144.981 202.085 144.221 202.038 143.097C201.99 141.973 205.542 140.912 209.955 140.727C214.367 140.542 218.036 141.307 218.062 142.416Z" fill="white"/>
<path d="M217.03 142.363C217.028 142.434 217.004 142.502 216.961 142.558C216.433 141.899 213.488 141.503 209.989 141.661C206.489 141.819 203.581 142.447 203.127 143.149C203.075 143.097 203.044 143.028 203.037 142.954C203.006 142.194 206.109 141.434 209.978 141.27C213.847 141.107 216.993 141.624 217.03 142.363Z" fill="#8807F7"/>
<path opacity="0.4" d="M217.03 142.363C217.028 142.434 217.004 142.502 216.961 142.558C216.433 141.899 213.488 141.503 209.989 141.661C206.489 141.819 203.581 142.447 203.127 143.149C203.075 143.097 203.044 143.028 203.037 142.954C203.006 142.194 206.109 141.434 209.978 141.27C213.847 141.107 216.993 141.624 217.03 142.363Z" fill="#8807F7"/>
<path opacity="0.4" d="M216.973 142.579C216.492 143.287 213.605 143.92 210.111 144.068C206.617 144.216 203.661 143.83 203.139 143.171C203.603 142.469 206.496 141.83 210 141.682C213.505 141.534 216.445 141.92 216.973 142.579Z" fill="#8807F7"/>
<path d="M215.574 141.835C215.622 142.96 212.07 144.02 207.657 144.21C203.245 144.4 199.561 143.646 199.561 142.521C199.561 141.397 203.065 140.336 207.478 140.152C211.89 139.967 215.527 140.722 215.574 141.835Z" fill="#8807F7"/>
<path d="M215.508 139.806L199.467 140.487L199.553 142.517L215.595 141.836L215.508 139.806Z" fill="#8807F7"/>
<path d="M215.492 139.808C215.539 140.932 211.987 141.993 207.574 142.183C203.162 142.373 199.515 141.613 199.467 140.489C199.42 139.364 202.972 138.303 207.384 138.119C211.797 137.934 215.444 138.668 215.492 139.808Z" fill="#8807F7"/>
<path opacity="0.4" d="M215.492 139.808C215.539 140.932 211.987 141.993 207.574 142.183C203.162 142.373 199.515 141.613 199.467 140.489C199.42 139.364 202.972 138.303 207.384 138.119C211.797 137.934 215.444 138.668 215.492 139.808Z" fill="white"/>
<path d="M214.47 139.776C214.473 139.848 214.448 139.918 214.401 139.972C213.873 139.312 210.933 138.916 207.429 139.074C203.924 139.233 201.026 139.861 200.567 140.563C200.517 140.51 200.487 140.44 200.483 140.367C200.451 139.607 203.555 138.847 207.423 138.684C211.292 138.52 214.438 139.016 214.47 139.776Z" fill="#8807F7"/>
<path opacity="0.4" d="M214.47 139.776C214.473 139.848 214.448 139.918 214.401 139.972C213.873 139.312 210.933 138.916 207.429 139.074C203.924 139.233 201.026 139.861 200.567 140.563C200.517 140.51 200.487 140.44 200.483 140.367C200.451 139.607 203.555 138.847 207.423 138.684C211.292 138.52 214.438 139.016 214.47 139.776Z" fill="#8807F7"/>
<path opacity="0.4" d="M214.395 139.971C213.914 140.679 211.027 141.312 207.533 141.46C204.039 141.608 201.088 141.222 200.561 140.563C201.03 139.861 203.917 139.227 207.422 139.074C210.927 138.921 213.856 139.312 214.395 139.971Z" fill="#8807F7"/>
<path d="M217.268 138.763C217.315 139.887 213.763 140.948 209.35 141.138C204.938 141.328 201.296 140.568 201.249 139.444C201.201 138.32 204.748 137.259 209.166 137.074C213.584 136.889 217.215 137.644 217.268 138.763Z" fill="#8807F7"/>
<path d="M217.196 136.739L201.154 137.42L201.24 139.45L217.282 138.769L217.196 136.739Z" fill="#8807F7"/>
<path d="M217.179 136.731C217.227 137.855 213.674 138.916 209.262 139.106C204.849 139.296 201.202 138.536 201.155 137.412C201.107 136.288 204.659 135.232 209.072 135.042C213.484 134.852 217.132 135.612 217.179 136.731Z" fill="#8807F7"/>
<path opacity="0.4" d="M217.179 136.731C217.227 137.855 213.674 138.916 209.262 139.106C204.849 139.296 201.202 138.536 201.155 137.412C201.107 136.288 204.659 135.232 209.072 135.042C213.484 134.852 217.132 135.612 217.179 136.731Z" fill="white"/>
<path d="M216.165 136.699C216.167 136.772 216.143 136.844 216.096 136.9C215.569 136.24 212.629 135.844 209.124 135.997C205.619 136.151 202.722 136.784 202.262 137.486C202.214 137.431 202.185 137.363 202.178 137.291C202.146 136.531 205.25 135.771 209.119 135.607C212.988 135.443 216.133 135.939 216.165 136.699Z" fill="#8807F7"/>
<path opacity="0.4" d="M216.165 136.699C216.167 136.772 216.143 136.844 216.096 136.9C215.569 136.24 212.629 135.844 209.124 135.997C205.619 136.151 202.722 136.784 202.262 137.486C202.214 137.431 202.185 137.363 202.178 137.291C202.146 136.531 205.25 135.771 209.119 135.607C212.988 135.443 216.133 135.939 216.165 136.699Z" fill="#8807F7"/>
<path opacity="0.4" d="M216.09 136.899C215.615 137.601 212.722 138.235 209.228 138.383C205.734 138.53 202.784 138.145 202.256 137.485C202.726 136.783 205.613 136.15 209.117 135.997C212.622 135.844 215.557 136.24 216.09 136.899Z" fill="#8807F7"/>
<path d="M210.572 136.464C214.312 135.062 216.207 130.894 214.805 127.154C213.403 123.415 209.235 121.52 205.495 122.922C201.756 124.324 199.861 128.492 201.263 132.231C202.665 135.97 206.833 137.865 210.572 136.464Z" fill="#8807F7"/>
<path d="M214.346 134.736C216.935 131.695 216.568 127.131 213.526 124.543C210.485 121.955 205.921 122.322 203.333 125.363C200.745 128.404 201.112 132.968 204.153 135.556C207.194 138.145 211.758 137.777 214.346 134.736Z" fill="#8807F7"/>
<path opacity="0.4" d="M214.346 134.736C216.935 131.695 216.568 127.131 213.526 124.543C210.485 121.955 205.921 122.322 203.333 125.363C200.745 128.404 201.112 132.968 204.153 135.556C207.194 138.145 211.758 137.777 214.346 134.736Z" fill="white"/>
<path d="M213.762 132.276C213.318 133.25 212.596 134.07 211.687 134.634C210.777 135.197 209.721 135.478 208.652 135.441C207.583 135.405 206.549 135.052 205.68 134.427C204.811 133.803 204.147 132.935 203.772 131.933C203.396 130.932 203.326 129.841 203.571 128.8C203.815 127.758 204.362 126.812 205.144 126.082C205.926 125.351 206.906 124.869 207.962 124.696C209.018 124.523 210.101 124.666 211.075 125.109C212.381 125.704 213.398 126.793 213.902 128.137C214.405 129.481 214.355 130.97 213.762 132.276Z" fill="#8807F7"/>
<path d="M276.999 170.981C276.835 171.641 274.598 171.646 272.001 170.981C269.404 170.316 267.43 169.266 267.593 168.611C267.757 167.957 270 167.946 272.597 168.611C275.194 169.276 277.157 170.337 276.999 170.981Z" fill="#8807F7"/>
<path d="M267.891 167.438L267.592 168.631L276.997 170.987L277.296 169.794L267.891 167.438Z" fill="#8807F7"/>
<path d="M277.288 169.809C277.119 170.469 274.881 170.474 272.285 169.809C269.688 169.144 267.719 168.099 267.883 167.439C268.046 166.779 270.284 166.774 272.881 167.439C275.478 168.104 277.452 169.133 277.288 169.809Z" fill="#8807F7"/>
<path opacity="0.4" d="M277.288 169.809C277.119 170.469 274.881 170.474 272.285 169.809C269.688 169.144 267.719 168.099 267.883 167.439C268.046 166.779 270.284 166.774 272.881 167.439C275.478 168.104 277.452 169.133 277.288 169.809Z" fill="white"/>
<path d="M276.713 169.593C276.708 169.614 276.699 169.635 276.687 169.653C276.674 169.671 276.658 169.687 276.639 169.698C276.444 169.223 274.813 168.495 272.76 167.983C270.706 167.471 268.917 167.339 268.537 167.666C268.527 167.625 268.527 167.581 268.537 167.54C268.653 167.091 270.58 167.186 272.849 167.751C275.119 168.315 276.829 169.149 276.713 169.593Z" fill="#8807F7"/>
<path opacity="0.4" d="M276.713 169.593C276.708 169.614 276.699 169.635 276.687 169.653C276.674 169.671 276.658 169.687 276.639 169.698C276.444 169.223 274.813 168.495 272.76 167.983C270.706 167.471 268.917 167.339 268.537 167.666C268.527 167.625 268.527 167.581 268.537 167.54C268.653 167.091 270.58 167.186 272.849 167.751C275.119 168.315 276.829 169.149 276.713 169.593Z" fill="#8807F7"/>
<path opacity="0.4" d="M276.629 169.698C276.233 170.02 274.454 169.893 272.406 169.381C270.358 168.87 268.711 168.136 268.521 167.666C268.917 167.339 270.696 167.466 272.744 167.983C274.792 168.5 276.439 169.223 276.629 169.698Z" fill="#8807F7"/>
<path d="M281.504 173.144C281.536 173.82 279.393 174.464 276.711 174.575C274.03 174.685 271.845 174.231 271.819 173.556C271.792 172.88 273.93 172.236 276.611 172.12C279.292 172.004 281.478 172.447 281.504 173.144Z" fill="#8807F7"/>
<path d="M281.443 171.927L271.756 172.338L271.808 173.567L281.495 173.156L281.443 171.927Z" fill="#8807F7"/>
<path d="M281.465 171.92C281.497 172.601 279.354 173.24 276.678 173.356C274.002 173.472 271.811 173.013 271.78 172.332C271.748 171.651 273.891 171.012 276.572 170.901C279.253 170.791 281.439 171.239 281.465 171.92Z" fill="#8807F7"/>
<path opacity="0.4" d="M281.465 171.92C281.497 172.601 279.354 173.24 276.678 173.356C274.002 173.472 271.811 173.013 271.78 172.332C271.748 171.651 273.891 171.012 276.572 170.901C279.253 170.791 281.439 171.239 281.465 171.92Z" fill="white"/>
<path d="M280.839 171.92C280.841 171.942 280.839 171.965 280.831 171.986C280.824 172.007 280.812 172.026 280.797 172.042C280.475 171.646 278.686 171.408 276.574 171.514C274.463 171.619 272.706 171.989 272.421 172.411C272.391 172.379 272.374 172.338 272.373 172.295C272.373 171.836 274.226 171.377 276.564 171.276C278.902 171.176 280.839 171.435 280.839 171.92Z" fill="#8807F7"/>
<path opacity="0.4" d="M280.839 171.92C280.841 171.942 280.839 171.965 280.831 171.986C280.824 172.007 280.812 172.026 280.797 172.042C280.475 171.646 278.686 171.408 276.574 171.514C274.463 171.619 272.706 171.989 272.421 172.411C272.391 172.379 272.374 172.338 272.373 172.295C272.373 171.836 274.226 171.377 276.564 171.276C278.902 171.176 280.839 171.435 280.839 171.92Z" fill="#8807F7"/>
<path opacity="0.4" d="M280.799 172.015C280.514 172.438 278.767 172.823 276.65 172.913C274.534 173.002 272.76 172.77 272.428 172.385C272.713 171.963 274.46 171.577 276.582 171.487C278.703 171.398 280.477 171.619 280.799 172.015Z" fill="#8807F7"/>
<path d="M276.423 170.726C278.615 167.387 277.685 162.904 274.346 160.713C271.008 158.521 266.525 159.451 264.333 162.79C262.142 166.129 263.072 170.612 266.41 172.803C269.749 174.994 274.232 174.064 276.423 170.726Z" fill="#8807F7"/>
<path d="M276.417 172.173C275.465 173.241 274.218 174.003 272.834 174.362C271.449 174.721 269.989 174.662 268.639 174.191C267.288 173.72 266.107 172.86 265.246 171.718C264.384 170.576 263.881 169.205 263.799 167.777C263.717 166.349 264.06 164.929 264.786 163.696C265.511 162.463 266.585 161.473 267.873 160.851C269.161 160.229 270.605 160.003 272.021 160.201C273.437 160.4 274.763 161.014 275.831 161.966C277.262 163.242 278.127 165.034 278.237 166.948C278.347 168.862 277.692 170.742 276.417 172.173Z" fill="#8807F7"/>
<path opacity="0.4" d="M276.417 172.173C275.465 173.241 274.218 174.003 272.834 174.362C271.449 174.721 269.989 174.662 268.639 174.191C267.288 173.72 266.107 172.86 265.246 171.718C264.384 170.576 263.881 169.205 263.799 167.777C263.717 166.349 264.06 164.929 264.786 163.696C265.511 162.463 266.585 161.473 267.873 160.851C269.161 160.229 270.605 160.003 272.021 160.201C273.437 160.4 274.763 161.014 275.831 161.966C277.262 163.242 278.127 165.034 278.237 166.948C278.347 168.862 277.692 170.742 276.417 172.173Z" fill="white"/>
<path d="M275.051 170.965C274.338 171.765 273.404 172.335 272.367 172.604C271.331 172.873 270.237 172.829 269.226 172.476C268.214 172.124 267.33 171.479 266.684 170.624C266.039 169.769 265.662 168.742 265.601 167.672C265.539 166.603 265.797 165.539 266.34 164.616C266.883 163.693 267.688 162.951 268.653 162.486C269.618 162.02 270.699 161.851 271.76 162C272.82 162.149 273.813 162.609 274.613 163.322C275.144 163.795 275.576 164.368 275.886 165.008C276.195 165.648 276.375 166.343 276.416 167.052C276.457 167.762 276.357 168.473 276.123 169.144C275.888 169.816 275.524 170.434 275.051 170.965Z" fill="#8807F7"/>
<path d="M181.498 173.815C181.472 174.491 183.61 175.135 186.291 175.245C188.972 175.356 191.157 174.902 191.184 174.227C191.21 173.551 189.072 172.907 186.396 172.791C183.72 172.675 181.53 173.134 181.498 173.815Z" fill="#8807F7"/>
<path d="M181.574 172.591L181.521 173.819L191.209 174.231L191.261 173.002L181.574 172.591Z" fill="#8807F7"/>
<path d="M181.545 172.585C181.514 173.266 183.657 173.905 186.338 174.021C189.019 174.137 191.204 173.678 191.231 172.997C191.257 172.316 189.119 171.677 186.438 171.566C183.757 171.455 181.572 171.92 181.545 172.585Z" fill="#8807F7"/>
<path opacity="0.4" d="M181.545 172.585C181.514 173.266 183.657 173.905 186.338 174.021C189.019 174.137 191.204 173.678 191.231 172.997C191.257 172.316 189.119 171.677 186.438 171.566C183.757 171.455 181.572 171.92 181.545 172.585Z" fill="white"/>
<path d="M182.178 172.564C182.178 172.608 182.193 172.651 182.22 172.686C182.542 172.29 184.331 172.052 186.442 172.158C188.554 172.263 190.306 172.633 190.591 173.06C190.621 173.027 190.64 172.984 190.644 172.939C190.644 172.48 188.786 172.02 186.453 171.925C184.12 171.83 182.199 172.105 182.178 172.564Z" fill="#8807F7"/>
<path opacity="0.4" d="M182.178 172.564C182.178 172.608 182.193 172.651 182.22 172.686C182.542 172.29 184.331 172.052 186.442 172.158C188.554 172.263 190.306 172.633 190.591 173.06C190.621 173.027 190.64 172.984 190.644 172.939C190.644 172.48 188.786 172.02 186.453 171.925C184.12 171.83 182.199 172.105 182.178 172.564Z" fill="#8807F7"/>
<path opacity="0.4" d="M182.217 172.686C182.507 173.113 184.249 173.493 186.365 173.583C188.482 173.673 190.261 173.441 190.588 173.055C190.303 172.628 188.561 172.248 186.439 172.153C184.317 172.058 182.539 172.29 182.217 172.686Z" fill="#8807F7"/>
<path d="M180.482 171.958C180.482 172.633 182.594 173.277 185.275 173.388C187.956 173.499 190.141 173.045 190.168 172.369C190.194 171.694 188.057 171.05 185.381 170.934C182.705 170.817 180.514 171.282 180.482 171.958Z" fill="#8807F7"/>
<path d="M180.535 170.717L180.482 171.945L190.17 172.356L190.222 171.128L180.535 170.717Z" fill="#8807F7"/>
<path d="M180.553 170.728C180.553 171.408 182.664 172.047 185.345 172.163C188.027 172.279 190.212 171.82 190.238 171.139C190.264 170.458 188.127 169.82 185.451 169.709C182.775 169.598 180.553 170.052 180.553 170.728Z" fill="#8807F7"/>
<path opacity="0.4" d="M180.553 170.728C180.553 171.408 182.664 172.047 185.345 172.163C188.027 172.279 190.212 171.82 190.238 171.139C190.264 170.458 188.127 169.82 185.451 169.709C182.775 169.598 180.553 170.052 180.553 170.728Z" fill="white"/>
<path d="M181.146 170.706C181.147 170.75 181.162 170.793 181.189 170.828C181.511 170.432 183.3 170.2 185.411 170.3C187.522 170.4 189.275 170.77 189.56 171.197C189.59 171.163 189.608 171.121 189.613 171.076C189.613 170.622 187.755 170.157 185.422 170.062C183.089 169.967 181.168 170.247 181.146 170.706Z" fill="#8807F7"/>
<path opacity="0.4" d="M181.146 170.706C181.147 170.75 181.162 170.793 181.189 170.828C181.511 170.432 183.3 170.2 185.411 170.3C187.522 170.4 189.275 170.77 189.56 171.197C189.59 171.163 189.608 171.121 189.613 171.076C189.613 170.622 187.755 170.157 185.422 170.062C183.089 169.967 181.168 170.247 181.146 170.706Z" fill="#8807F7"/>
<path opacity="0.4" d="M181.193 170.828C181.484 171.255 183.225 171.635 185.342 171.725C187.458 171.815 189.237 171.582 189.564 171.197C189.279 170.77 187.538 170.39 185.416 170.3C183.294 170.21 181.515 170.432 181.193 170.828Z" fill="#8807F7"/>
<path d="M180.615 169.72C180.615 170.395 182.726 171.039 185.408 171.15C188.089 171.261 190.274 170.807 190.301 170.131C190.327 169.456 188.189 168.812 185.513 168.696C182.837 168.58 180.647 169.044 180.615 169.72Z" fill="#8807F7"/>
<path d="M180.652 168.479L180.6 169.708L190.287 170.119L190.339 168.89L180.652 168.479Z" fill="#8807F7"/>
<path d="M180.662 168.489C180.662 169.17 182.773 169.809 185.455 169.925C188.136 170.041 190.321 169.582 190.347 168.901C190.374 168.22 188.236 167.581 185.56 167.471C182.884 167.36 180.694 167.814 180.662 168.489Z" fill="#8807F7"/>
<path opacity="0.4" d="M180.662 168.489C180.662 169.17 182.773 169.809 185.455 169.925C188.136 170.041 190.321 169.582 190.347 168.901C190.374 168.22 188.236 167.581 185.56 167.471C182.884 167.36 180.694 167.814 180.662 168.489Z" fill="white"/>
<path d="M181.287 168.468C181.287 168.512 181.302 168.555 181.329 168.589C181.651 168.194 183.441 167.961 185.552 168.062C187.663 168.162 189.415 168.531 189.7 168.959C189.731 168.925 189.749 168.883 189.753 168.837C189.753 168.384 187.895 167.919 185.562 167.824C183.229 167.729 181.308 168.014 181.287 168.468Z" fill="#8807F7"/>
<path opacity="0.4" d="M181.287 168.468C181.287 168.512 181.302 168.555 181.329 168.589C181.651 168.194 183.441 167.961 185.552 168.062C187.663 168.162 189.415 168.531 189.7 168.959C189.731 168.925 189.749 168.883 189.753 168.837C189.753 168.384 187.895 167.919 185.562 167.824C183.229 167.729 181.308 168.014 181.287 168.468Z" fill="#8807F7"/>
<path opacity="0.4" d="M181.334 168.59C181.624 169.017 183.366 169.397 185.483 169.487C187.599 169.577 189.378 169.345 189.705 168.959C189.42 168.532 187.678 168.152 185.556 168.062C183.435 167.972 181.656 168.194 181.334 168.59Z" fill="#8807F7"/>
<path d="M179.607 167.861C179.607 168.537 181.719 169.181 184.4 169.291C187.081 169.402 189.266 168.948 189.298 168.273C189.33 167.597 187.187 166.953 184.506 166.837C181.824 166.721 179.639 167.17 179.607 167.861Z" fill="#8807F7"/>
<path d="M179.66 166.626L179.607 167.854L189.295 168.266L189.347 167.037L179.66 166.626Z" fill="#8807F7"/>
<path d="M179.655 166.642C179.628 167.323 181.766 167.962 184.447 168.078C187.128 168.194 189.314 167.735 189.34 167.054C189.366 166.373 187.229 165.74 184.553 165.624C181.877 165.507 179.686 165.956 179.655 166.642Z" fill="#8807F7"/>
<path opacity="0.4" d="M179.655 166.642C179.628 167.323 181.766 167.962 184.447 168.078C187.128 168.194 189.314 167.735 189.34 167.054C189.366 166.373 187.229 165.74 184.553 165.624C181.877 165.507 179.686 165.956 179.655 166.642Z" fill="white"/>
<path d="M180.264 166.611C180.264 166.655 180.279 166.697 180.306 166.732C180.633 166.336 182.417 166.104 184.528 166.204C186.64 166.304 188.397 166.674 188.677 167.101C188.708 167.07 188.727 167.029 188.73 166.985C188.73 166.526 186.872 166.062 184.539 165.967C182.206 165.872 180.285 166.157 180.264 166.611Z" fill="#8807F7"/>
<path opacity="0.4" d="M180.264 166.611C180.264 166.655 180.279 166.697 180.306 166.732C180.633 166.336 182.417 166.104 184.528 166.204C186.64 166.304 188.397 166.674 188.677 167.101C188.708 167.07 188.727 167.029 188.73 166.985C188.73 166.526 186.872 166.062 184.539 165.967C182.206 165.872 180.285 166.157 180.264 166.611Z" fill="#8807F7"/>
<path opacity="0.4" d="M180.311 166.732C180.601 167.159 182.343 167.539 184.459 167.629C186.576 167.719 188.354 167.486 188.682 167.101C188.402 166.674 186.655 166.294 184.533 166.204C182.411 166.114 180.638 166.336 180.311 166.732Z" fill="#8807F7"/>
<path d="M181.147 166.289C181.115 166.964 183.258 167.608 185.939 167.719C188.621 167.83 190.806 167.376 190.832 166.7C190.859 166.025 188.721 165.381 186.04 165.265C183.358 165.149 181.173 165.587 181.147 166.289Z" fill="#8807F7"/>
<path d="M181.199 165.045L181.146 166.274L190.834 166.685L190.886 165.457L181.199 165.045Z" fill="#8807F7"/>
<path d="M181.194 165.058C181.162 165.739 183.305 166.378 185.981 166.494C188.657 166.61 190.847 166.151 190.879 165.47C190.911 164.789 188.768 164.15 186.087 164.04C183.405 163.929 181.22 164.383 181.194 165.058Z" fill="#8807F7"/>
<path opacity="0.4" d="M181.194 165.058C181.162 165.739 183.305 166.378 185.981 166.494C188.657 166.61 190.847 166.151 190.879 165.47C190.911 164.789 188.768 164.15 186.087 164.04C183.405 163.929 181.22 164.383 181.194 165.058Z" fill="white"/>
<path d="M181.827 165.058C181.825 165.08 181.827 165.103 181.835 165.124C181.842 165.145 181.854 165.164 181.869 165.18C182.191 164.784 183.98 164.546 186.092 164.652C188.203 164.757 189.961 165.127 190.246 165.549C190.275 165.517 190.292 165.476 190.293 165.433C190.293 164.974 188.44 164.515 186.102 164.414C183.764 164.314 181.843 164.578 181.827 165.058Z" fill="#8807F7"/>
<path opacity="0.4" d="M181.827 165.058C181.825 165.08 181.827 165.103 181.835 165.124C181.842 165.145 181.854 165.164 181.869 165.18C182.191 164.784 183.98 164.546 186.092 164.652C188.203 164.757 189.961 165.127 190.246 165.549C190.275 165.517 190.292 165.476 190.293 165.433C190.293 164.974 188.44 164.515 186.102 164.414C183.764 164.314 181.843 164.578 181.827 165.058Z" fill="#8807F7"/>
<path opacity="0.4" d="M181.857 165.159C182.142 165.581 183.89 165.967 186.006 166.056C188.123 166.146 189.896 165.914 190.229 165.528C189.944 165.106 188.196 164.721 186.075 164.631C183.953 164.541 182.179 164.763 181.857 165.159Z" fill="#8807F7"/>
<path d="M174.312 173.704C174.476 174.364 176.719 174.369 179.316 173.704C181.913 173.039 183.881 171.994 183.718 171.334C183.554 170.675 181.316 170.669 178.719 171.334C176.123 171.999 174.149 173.05 174.312 173.704Z" fill="#8807F7"/>
<path d="M183.427 170.156L174.021 172.512L174.32 173.705L183.726 171.349L183.427 170.156Z" fill="#8807F7"/>
<path d="M174.032 172.517C174.195 173.171 176.433 173.182 179.03 172.517C181.627 171.852 183.601 170.807 183.432 170.152C183.263 169.498 181.03 169.487 178.434 170.152C175.837 170.817 173.863 171.857 174.032 172.517Z" fill="#8807F7"/>
<path opacity="0.4" d="M174.032 172.517C174.195 173.171 176.433 173.182 179.03 172.517C181.627 171.852 183.601 170.807 183.432 170.152C183.263 169.498 181.03 169.487 178.434 170.152C175.837 170.817 173.863 171.857 174.032 172.517Z" fill="white"/>
<path d="M174.62 172.322C174.632 172.363 174.658 172.399 174.694 172.422C174.889 171.952 176.52 171.224 178.579 170.707C180.637 170.189 182.416 170.063 182.801 170.39C182.817 170.349 182.817 170.304 182.801 170.263C182.691 169.82 180.759 169.91 178.494 170.48C176.23 171.05 174.509 171.873 174.62 172.322Z" fill="#8807F7"/>
<path opacity="0.4" d="M174.62 172.322C174.632 172.363 174.658 172.399 174.694 172.422C174.889 171.952 176.52 171.224 178.579 170.707C180.637 170.189 182.416 170.063 182.801 170.39C182.817 170.349 182.817 170.304 182.801 170.263C182.691 169.82 180.759 169.91 178.494 170.48C176.23 171.05 174.509 171.873 174.62 172.322Z" fill="#8807F7"/>
<path opacity="0.4" d="M174.701 172.448C175.097 172.775 176.881 172.648 178.924 172.131C180.966 171.614 182.618 170.891 182.808 170.416C182.413 170.089 180.634 170.221 178.586 170.733C176.538 171.245 174.896 171.952 174.701 172.448Z" fill="#8807F7"/>
<path d="M169.826 173.815C169.826 174.491 171.937 175.135 174.619 175.245C177.3 175.356 179.485 174.902 179.512 174.227C179.538 173.551 177.4 172.907 174.724 172.791C172.048 172.675 169.858 173.134 169.826 173.815Z" fill="#8807F7"/>
<path d="M169.871 172.575L169.818 173.803L179.506 174.214L179.558 172.986L169.871 172.575Z" fill="#8807F7"/>
<path d="M169.881 172.585C169.855 173.266 171.992 173.905 174.674 174.021C177.355 174.137 179.54 173.678 179.566 172.997C179.593 172.316 177.455 171.677 174.779 171.566C172.103 171.455 169.913 171.92 169.881 172.585Z" fill="#8807F7"/>
<path opacity="0.4" d="M169.881 172.585C169.855 173.266 171.992 173.905 174.674 174.021C177.355 174.137 179.54 173.678 179.566 172.997C179.593 172.316 177.455 171.677 174.779 171.566C172.103 171.455 169.913 171.92 169.881 172.585Z" fill="white"/>
<path d="M170.514 172.564C170.514 172.608 170.529 172.651 170.556 172.686C170.878 172.29 172.667 172.052 174.778 172.158C176.89 172.263 178.642 172.633 178.927 173.06C178.957 173.027 178.976 172.984 178.98 172.939C178.98 172.48 177.122 172.02 174.789 171.925C172.456 171.83 170.545 172.105 170.514 172.564Z" fill="#8807F7"/>
<path opacity="0.4" d="M170.514 172.564C170.514 172.608 170.529 172.651 170.556 172.686C170.878 172.29 172.667 172.052 174.778 172.158C176.89 172.263 178.642 172.633 178.927 173.06C178.957 173.027 178.976 172.984 178.98 172.939C178.98 172.48 177.122 172.02 174.789 171.925C172.456 171.83 170.545 172.105 170.514 172.564Z" fill="#8807F7"/>
<path opacity="0.4" d="M170.537 172.686C170.827 173.113 172.569 173.493 174.686 173.583C176.802 173.673 178.581 173.441 178.908 173.055C178.623 172.628 176.881 172.248 174.76 172.153C172.638 172.058 170.87 172.29 170.537 172.686Z" fill="#8807F7"/>
<path d="M219.866 173.758C219.834 174.454 222.04 175.114 224.79 175.23C227.54 175.346 229.794 174.876 229.825 174.174C229.857 173.472 227.646 172.823 224.896 172.702C222.146 172.58 219.892 173.061 219.866 173.758Z" fill="#8807F7"/>
<path d="M219.903 172.48L219.85 173.74L229.811 174.163L229.865 172.902L219.903 172.48Z" fill="#8807F7"/>
<path d="M219.92 172.496C219.889 173.192 222.095 173.852 224.845 173.968C227.595 174.084 229.848 173.615 229.88 172.913C229.912 172.211 227.705 171.561 224.95 171.44C222.195 171.319 219.947 171.799 219.92 172.496Z" fill="#8807F7"/>
<path opacity="0.4" d="M219.92 172.496C219.889 173.192 222.095 173.852 224.845 173.968C227.595 174.084 229.848 173.615 229.88 172.913C229.912 172.211 227.705 171.561 224.95 171.44C222.195 171.319 219.947 171.799 219.92 172.496Z" fill="white"/>
<path d="M220.545 172.475C220.546 172.52 220.561 172.564 220.587 172.601C220.92 172.19 222.741 171.952 224.92 172.042C227.1 172.131 228.895 172.527 229.185 172.965C229.218 172.933 229.237 172.89 229.238 172.844C229.238 172.374 227.333 171.899 224.931 171.788C222.529 171.678 220.566 172.005 220.545 172.475Z" fill="#8807F7"/>
<path opacity="0.4" d="M220.545 172.475C220.546 172.52 220.561 172.564 220.587 172.601C220.92 172.19 222.741 171.952 224.92 172.042C227.1 172.131 228.895 172.527 229.185 172.965C229.218 172.933 229.237 172.89 229.238 172.844C229.238 172.374 227.333 171.899 224.931 171.788C222.529 171.678 220.566 172.005 220.545 172.475Z" fill="#8807F7"/>
<path opacity="0.4" d="M220.6 172.601C220.9 173.034 222.711 173.43 224.87 173.525C227.028 173.62 228.87 173.377 229.198 172.965C228.907 172.527 227.113 172.137 224.933 172.042C222.753 171.947 220.932 172.189 220.6 172.601Z" fill="#8807F7"/>
<path d="M218.811 171.847C218.784 172.544 220.991 173.203 223.741 173.325C226.49 173.446 228.744 172.971 228.771 172.269C228.797 171.567 226.596 170.913 223.846 170.791C221.096 170.67 218.842 171.15 218.811 171.847Z" fill="#8807F7"/>
<path d="M218.864 170.582L218.811 171.842L228.772 172.265L228.825 171.005L218.864 170.582Z" fill="#8807F7"/>
<path d="M218.858 170.585C218.826 171.282 221.032 171.941 223.782 172.063C226.532 172.184 228.786 171.709 228.818 171.007C228.849 170.305 226.638 169.651 223.888 169.529C221.138 169.408 218.884 169.888 218.858 170.585Z" fill="#8807F7"/>
<path opacity="0.4" d="M218.858 170.585C218.826 171.282 221.032 171.941 223.782 172.063C226.532 172.184 228.786 171.709 228.818 171.007C228.849 170.305 226.638 169.651 223.888 169.529C221.138 169.408 218.884 169.888 218.858 170.585Z" fill="white"/>
<path d="M219.514 170.564C219.515 170.609 219.529 170.653 219.556 170.69C219.888 170.279 221.709 170.041 223.884 170.131C226.059 170.221 227.864 170.616 228.154 171.055C228.184 171.021 228.203 170.978 228.207 170.933C228.207 170.463 226.296 169.988 223.895 169.878C221.493 169.767 219.535 170.094 219.514 170.564Z" fill="#8807F7"/>
<path opacity="0.4" d="M219.514 170.564C219.515 170.609 219.529 170.653 219.556 170.69C219.888 170.279 221.709 170.041 223.884 170.131C226.059 170.221 227.864 170.616 228.154 171.055C228.184 171.021 228.203 170.978 228.207 170.933C228.207 170.463 226.296 169.988 223.895 169.878C221.493 169.767 219.535 170.094 219.514 170.564Z" fill="#8807F7"/>
<path opacity="0.4" d="M219.553 170.69C219.848 171.123 221.664 171.519 223.817 171.614C225.971 171.709 227.824 171.466 228.151 171.054C227.861 170.616 226.066 170.226 223.881 170.131C221.696 170.036 219.885 170.279 219.553 170.69Z" fill="#8807F7"/>
<path d="M221.069 170.437C221.037 171.129 223.243 171.788 225.993 171.91C228.743 172.031 230.997 171.556 231.029 170.854C231.06 170.152 228.849 169.498 226.099 169.381C223.349 169.265 221.095 169.74 221.069 170.437Z" fill="#8807F7"/>
<path d="M221.114 169.162L221.061 170.422L231.022 170.845L231.075 169.585L221.114 169.162Z" fill="#8807F7"/>
<path d="M221.123 169.171C221.092 169.867 223.298 170.527 226.048 170.648C228.798 170.77 231.052 170.295 231.083 169.593C231.115 168.891 228.903 168.236 226.153 168.12C223.404 168.004 221.15 168.479 221.123 169.171Z" fill="#8807F7"/>
<path opacity="0.4" d="M221.123 169.171C221.092 169.867 223.298 170.527 226.048 170.648C228.798 170.77 231.052 170.295 231.083 169.593C231.115 168.891 228.903 168.236 226.153 168.12C223.404 168.004 221.15 168.479 221.123 169.171Z" fill="white"/>
<path d="M221.717 169.149C221.718 169.195 221.733 169.239 221.759 169.276C222.092 168.864 223.912 168.627 226.087 168.717C228.262 168.806 230.067 169.202 230.357 169.64C230.387 169.606 230.406 169.564 230.41 169.519C230.41 169.049 228.499 168.574 226.098 168.463C223.696 168.352 221.754 168.68 221.717 169.149Z" fill="#8807F7"/>
<path opacity="0.4" d="M221.717 169.149C221.718 169.195 221.733 169.239 221.759 169.276C222.092 168.864 223.912 168.627 226.087 168.717C228.262 168.806 230.067 169.202 230.357 169.64C230.387 169.606 230.406 169.564 230.41 169.519C230.41 169.049 228.499 168.574 226.098 168.463C223.696 168.352 221.754 168.68 221.717 169.149Z" fill="#8807F7"/>
<path opacity="0.4" d="M221.787 169.281C222.083 169.719 223.898 170.11 226.052 170.205C228.205 170.3 230.058 170.057 230.385 169.645C230.095 169.207 228.3 168.817 226.115 168.722C223.93 168.627 222.12 168.864 221.787 169.281Z" fill="#8807F7"/>
<path d="M221.1 168.526C221.068 169.223 223.275 169.883 226.024 169.999C228.774 170.115 231.028 169.645 231.06 168.943C231.091 168.241 228.88 167.587 226.13 167.47C223.38 167.354 221.126 167.829 221.1 168.526Z" fill="#8807F7"/>
<path d="M220.947 166.612L220.896 167.874L230.867 168.273L230.917 167.011L220.947 166.612Z" fill="#8807F7"/>
<path d="M221.147 167.265C221.115 167.962 223.321 168.622 226.071 168.738C228.821 168.854 231.075 168.384 231.107 167.682C231.138 166.98 228.927 166.326 226.177 166.21C223.427 166.093 221.173 166.569 221.147 167.265Z" fill="#8807F7"/>
<path opacity="0.4" d="M221.147 167.265C221.115 167.962 223.321 168.622 226.071 168.738C228.821 168.854 231.075 168.384 231.107 167.682C231.138 166.98 228.927 166.326 226.177 166.21C223.427 166.093 221.173 166.569 221.147 167.265Z" fill="white"/>
<path d="M221.771 167.244C221.773 167.288 221.787 167.33 221.814 167.365C222.146 166.954 223.967 166.716 226.142 166.806C228.316 166.896 230.121 167.297 230.412 167.729C230.444 167.697 230.463 167.654 230.465 167.608C230.465 167.138 228.559 166.663 226.152 166.552C223.746 166.442 221.793 166.769 221.771 167.244Z" fill="#8807F7"/>
<path opacity="0.4" d="M221.771 167.244C221.773 167.288 221.787 167.33 221.814 167.365C222.146 166.954 223.967 166.716 226.142 166.806C228.316 166.896 230.121 167.297 230.412 167.729C230.444 167.697 230.463 167.654 230.465 167.608C230.465 167.138 228.559 166.663 226.152 166.552C223.746 166.442 221.793 166.769 221.771 167.244Z" fill="#8807F7"/>
<path opacity="0.4" d="M221.834 167.365C222.13 167.804 223.945 168.194 226.104 168.289C228.263 168.384 230.105 168.141 230.432 167.73C230.142 167.297 228.347 166.901 226.162 166.806C223.977 166.711 222.167 166.954 221.834 167.365Z" fill="#8807F7"/>
<path d="M219.045 166.964C219.014 167.661 221.22 168.321 223.97 168.437C226.72 168.553 228.973 168.083 229.005 167.381C229.037 166.679 226.831 166.025 224.081 165.909C221.331 165.792 219.098 166.267 219.045 166.964Z" fill="#8807F7"/>
<path d="M219.114 165.715L219.061 166.975L229.022 167.4L229.076 166.139L219.114 165.715Z" fill="#8807F7"/>
<path d="M219.108 165.703C219.076 166.399 221.282 167.059 224.032 167.175C226.782 167.291 229.036 166.822 229.068 166.12C229.099 165.418 226.893 164.763 224.143 164.647C221.393 164.531 219.139 165.006 219.108 165.703Z" fill="#8807F7"/>
<path opacity="0.4" d="M219.108 165.703C219.076 166.399 221.282 167.059 224.032 167.175C226.782 167.291 229.036 166.822 229.068 166.12C229.099 165.418 226.893 164.763 224.143 164.647C221.393 164.531 219.139 165.006 219.108 165.703Z" fill="white"/>
<path d="M219.74 165.681C219.741 165.725 219.756 165.768 219.782 165.803C220.12 165.396 221.941 165.154 224.116 165.249C226.29 165.344 228.09 165.734 228.381 166.167C228.413 166.137 228.432 166.095 228.433 166.051C228.433 165.576 226.528 165.106 224.126 164.995C221.725 164.884 219.761 165.206 219.74 165.681Z" fill="#8807F7"/>
<path opacity="0.4" d="M219.74 165.681C219.741 165.725 219.756 165.768 219.782 165.803C220.12 165.396 221.941 165.154 224.116 165.249C226.29 165.344 228.09 165.734 228.381 166.167C228.413 166.137 228.432 166.095 228.433 166.051C228.433 165.576 226.528 165.106 224.126 164.995C221.725 164.884 219.761 165.206 219.74 165.681Z" fill="#8807F7"/>
<path opacity="0.4" d="M219.756 165.803C220.057 166.241 221.867 166.637 224.026 166.727C226.185 166.817 228.027 166.579 228.354 166.168C228.064 165.735 226.269 165.339 224.089 165.249C221.909 165.159 220.094 165.397 219.756 165.803Z" fill="#8807F7"/>
<path d="M231.889 170.764C231.599 171.382 233.33 172.802 235.753 173.931C238.175 175.061 240.376 175.514 240.661 174.881C240.946 174.248 239.221 172.849 236.798 171.714C234.375 170.579 232.174 170.152 231.889 170.764Z" fill="#8807F7"/>
<path d="M232.427 169.672L231.904 170.785L240.68 174.908L241.203 173.795L232.427 169.672Z" fill="#8807F7"/>
<path d="M232.42 169.656C232.13 170.268 233.861 171.688 236.284 172.823C238.707 173.958 240.908 174.406 241.193 173.773C241.478 173.14 239.752 171.736 237.329 170.606C234.906 169.477 232.705 169.039 232.42 169.656Z" fill="#8807F7"/>
<path opacity="0.4" d="M232.42 169.656C232.13 170.268 233.861 171.688 236.284 172.823C238.707 173.958 240.908 174.406 241.193 173.773C241.478 173.14 239.752 171.736 237.329 170.606C234.906 169.477 232.705 169.039 232.42 169.656Z" fill="white"/>
<path d="M232.987 169.872C232.971 169.913 232.971 169.958 232.987 169.999C233.435 169.762 235.161 170.226 237.077 171.129C238.993 172.031 240.46 173.06 240.561 173.562C240.6 173.543 240.632 173.512 240.65 173.472C240.846 173.055 239.294 171.889 237.177 170.912C235.061 169.936 233.182 169.461 232.987 169.872Z" fill="#8807F7"/>
<path opacity="0.4" d="M232.987 169.872C232.971 169.913 232.971 169.958 232.987 169.999C233.435 169.762 235.161 170.226 237.077 171.129C238.993 172.031 240.46 173.06 240.561 173.562C240.6 173.543 240.632 173.512 240.65 173.472C240.846 173.055 239.294 171.889 237.177 170.912C235.061 169.936 233.182 169.461 232.987 169.872Z" fill="#8807F7"/>
<path opacity="0.4" d="M232.975 169.999C233.075 170.527 234.558 171.53 236.453 172.432C238.348 173.335 240.1 173.805 240.549 173.562C240.448 173.06 238.965 172.031 237.065 171.129C235.165 170.226 233.423 169.762 232.975 169.999Z" fill="#8807F7"/>
<path d="M226.811 172.945C226.784 173.62 228.922 174.259 231.603 174.375C234.285 174.491 236.47 174.032 236.501 173.356C236.533 172.681 234.39 172.037 231.709 171.921C229.028 171.805 226.842 172.264 226.811 172.945Z" fill="#8807F7"/>
<path d="M226.847 171.697L226.795 172.926L236.482 173.337L236.534 172.108L226.847 171.697Z" fill="#8807F7"/>
<path d="M226.85 171.715C226.85 172.39 228.961 173.034 231.642 173.15C234.323 173.267 236.509 172.802 236.535 172.126C236.561 171.451 234.424 170.807 231.748 170.696C229.072 170.585 226.881 171.039 226.85 171.715Z" fill="#8807F7"/>
<path opacity="0.4" d="M226.85 171.715C226.85 172.39 228.961 173.034 231.642 173.15C234.323 173.267 236.509 172.802 236.535 172.126C236.561 171.451 234.424 170.807 231.748 170.696C229.072 170.585 226.881 171.039 226.85 171.715Z" fill="white"/>
<path d="M227.475 171.694C227.475 171.738 227.49 171.78 227.517 171.815C227.844 171.414 229.628 171.182 231.739 171.287C233.851 171.393 235.608 171.762 235.888 172.184C235.92 172.154 235.939 172.112 235.941 172.068C235.941 171.609 234.083 171.15 231.75 171.05C229.417 170.949 227.496 171.234 227.475 171.694Z" fill="#8807F7"/>
<path opacity="0.4" d="M227.475 171.694C227.475 171.738 227.49 171.78 227.517 171.815C227.844 171.414 229.628 171.182 231.739 171.287C233.851 171.393 235.608 171.762 235.888 172.184C235.92 172.154 235.939 172.112 235.941 172.068C235.941 171.609 234.083 171.15 231.75 171.05C229.417 170.949 227.496 171.234 227.475 171.694Z" fill="#8807F7"/>
<path opacity="0.4" d="M227.553 171.814C227.843 172.237 229.585 172.622 231.701 172.712C233.818 172.801 235.597 172.569 235.924 172.184C235.644 171.762 233.897 171.376 231.775 171.287C229.653 171.197 227.859 171.392 227.553 171.814Z" fill="#8807F7"/>
<path d="M157.525 147.568C157.527 148.02 157.527 148.471 157.528 148.923C157.529 149.312 157.401 149.691 157.041 149.89C156.618 150.121 156.019 150.062 155.548 150.014C155.53 150.013 155.514 150.01 155.497 150.009C155.513 149.684 155.507 149.356 155.491 149.032C155.471 148.593 155.738 148.069 156.209 147.995C156.721 147.915 157.166 147.86 157.407 147.577C157.416 147.569 157.423 147.561 157.43 147.551C157.465 147.503 157.503 147.456 157.541 147.41C157.53 147.461 157.525 147.515 157.525 147.568Z" fill="#B86AFA"/>
<path d="M155.982 152.954C156.335 152.977 156.69 152.971 157.043 152.977C157.455 152.984 157.876 153.035 158.273 152.963C158.844 152.859 159.485 152.487 159.697 151.936C159.893 151.425 159.801 150.816 159.463 150.388C159.439 150.358 159.414 150.33 159.387 150.301C159.045 149.927 158.514 149.732 158.011 149.799C157.383 149.882 156.831 150.375 156.668 150.986C156.567 151.367 156.655 151.773 156.596 152.161C156.547 152.482 156.273 152.812 155.982 152.954Z" fill="#B86AFA"/>
<path d="M159.499 146.112C159.467 146.208 159.505 146.311 159.546 146.403C160.069 147.57 161.471 148.359 161.423 149.76C161.401 150.394 161.085 151.138 160.556 151.514C160.517 151.541 160.482 151.566 160.437 151.578C160.337 151.389 160.326 151.113 160.24 150.905C160.132 150.644 159.99 150.387 159.791 150.184C159.601 149.991 159.362 149.879 159.172 149.689C158.772 149.29 158.52 148.742 158.486 148.178C158.438 147.372 158.841 146.573 159.499 146.112Z" fill="#B86AFA"/>
<path d="M155.842 148.925C155.842 148.925 155.824 148.573 156.184 148.591C156.185 148.591 156.316 148.976 155.842 148.925Z" fill="#8807F7" stroke="#B86AFA" stroke-width="0.117933" stroke-miterlimit="10"/>
<path d="M155.743 151.902C156.073 151.902 156.34 151.635 156.34 151.305C156.34 150.976 156.073 150.708 155.743 150.708C155.414 150.708 155.146 150.976 155.146 151.305C155.146 151.635 155.414 151.902 155.743 151.902Z" fill="#B86AFA"/>
<path d="M208.166 128.014C208.167 128.465 208.167 128.917 208.168 129.368C208.17 129.757 208.042 130.137 207.681 130.335C207.259 130.566 206.66 130.508 206.189 130.459C206.171 130.458 206.154 130.456 206.138 130.455C206.153 130.129 206.147 129.801 206.132 129.477C206.112 129.038 206.378 128.515 206.849 128.441C207.361 128.36 207.806 128.305 208.048 128.023C208.056 128.015 208.063 128.006 208.07 127.997C208.106 127.949 208.144 127.902 208.182 127.855C208.17 127.906 208.166 127.96 208.166 128.014Z" fill="#B86AFA"/>
<path d="M206.623 133.4C206.976 133.422 207.33 133.417 207.683 133.423C208.095 133.43 208.516 133.481 208.914 133.408C209.484 133.305 210.126 132.933 210.338 132.381C210.534 131.871 210.441 131.262 210.103 130.833C210.079 130.804 210.054 130.775 210.027 130.747C209.685 130.373 209.155 130.178 208.651 130.245C208.024 130.328 207.472 130.821 207.309 131.431C207.208 131.812 207.296 132.218 207.237 132.606C207.188 132.928 206.914 133.257 206.623 133.4Z" fill="#B86AFA"/>
<path d="M210.139 126.558C210.108 126.653 210.146 126.757 210.187 126.849C210.71 128.016 212.112 128.805 212.064 130.206C212.042 130.839 211.725 131.584 211.197 131.96C211.158 131.987 211.123 132.011 211.078 132.024C210.977 131.835 210.966 131.559 210.88 131.35C210.773 131.089 210.631 130.832 210.432 130.63C210.241 130.436 210.003 130.325 209.812 130.135C209.412 129.736 209.16 129.188 209.127 128.623C209.078 127.817 209.481 127.018 210.139 126.558Z" fill="#B86AFA"/>
<path d="M206.483 129.371C206.483 129.371 206.464 129.019 206.825 129.037C206.825 129.037 206.957 129.422 206.483 129.371Z" fill="#8807F7" stroke="#B86AFA" stroke-width="0.117933" stroke-miterlimit="10"/>
<path d="M206.384 132.348C206.714 132.348 206.981 132.081 206.981 131.751C206.981 131.421 206.714 131.154 206.384 131.154C206.054 131.154 205.787 131.421 205.787 131.751C205.787 132.081 206.054 132.348 206.384 132.348Z" fill="#B86AFA"/>
<path d="M270.299 164.981C270.3 165.432 270.3 165.884 270.301 166.336C270.302 166.725 270.175 167.104 269.814 167.303C269.392 167.534 268.793 167.475 268.322 167.427C268.304 167.426 268.287 167.423 268.271 167.422C268.286 167.097 268.28 166.769 268.265 166.445C268.245 166.006 268.511 165.482 268.982 165.408C269.494 165.327 269.939 165.273 270.181 164.99C270.189 164.982 270.196 164.974 270.203 164.964C270.239 164.916 270.277 164.869 270.315 164.823C270.303 164.874 270.299 164.928 270.299 164.981Z" fill="#B86AFA"/>
<path d="M268.756 170.367C269.108 170.389 269.463 170.384 269.816 170.39C270.228 170.397 270.649 170.448 271.047 170.376C271.617 170.272 272.259 169.9 272.47 169.349C272.667 168.838 272.574 168.229 272.236 167.801C272.212 167.771 272.187 167.742 272.16 167.714C271.818 167.34 271.288 167.145 270.784 167.212C270.157 167.295 269.604 167.788 269.442 168.399C269.34 168.78 269.429 169.185 269.369 169.573C269.321 169.895 269.047 170.224 268.756 170.367Z" fill="#B86AFA"/>
<path d="M272.272 163.525C272.241 163.621 272.279 163.724 272.32 163.816C272.842 164.983 274.244 165.772 274.196 167.173C274.174 167.807 273.858 168.551 273.329 168.927C273.291 168.954 273.256 168.979 273.211 168.991C273.11 168.802 273.099 168.526 273.013 168.318C272.906 168.057 272.763 167.8 272.565 167.597C272.374 167.404 272.136 167.292 271.945 167.102C271.545 166.703 271.293 166.155 271.26 165.591C271.211 164.785 271.614 163.985 272.272 163.525Z" fill="#B86AFA"/>
<path d="M268.615 166.338C268.615 166.338 268.597 165.986 268.958 166.004C268.958 166.004 269.09 166.389 268.615 166.338Z" fill="#8807F7" stroke="#B86AFA" stroke-width="0.117933" stroke-miterlimit="10"/>
<path d="M268.517 169.315C268.847 169.315 269.114 169.048 269.114 168.718C269.114 168.389 268.847 168.121 268.517 168.121C268.187 168.121 267.92 168.389 267.92 168.718C267.92 169.048 268.187 169.315 268.517 169.315Z" fill="#B86AFA"/>
<defs>
<filter id="filter0_b_1_10649" x="-237.813" y="-238.209" width="776.863" height="672.463" filterUnits="userSpaceOnUse" color-interpolation-filters="sRGB">
<feFlood flood-opacity="0" result="BackgroundImageFix"/>
<feGaussianBlur in="BackgroundImageFix" stdDeviation="119.128"/>
<feComposite in2="SourceAlpha" operator="in" result="effect1_backgroundBlur_1_10649"/>
<feBlend mode="normal" in="SourceGraphic" in2="effect1_backgroundBlur_1_10649" result="shape"/>
</filter>
</defs>
</svg>
