<svg width="325" height="196" viewBox="0 0 325 196" fill="none" xmlns="http://www.w3.org/2000/svg">
<g filter="url(#filter0_b_1_11584)">
<rect x="0.103516" y="0.0473633" width="300.351" height="195.951" rx="11.9128" fill="url(#paint0_linear_1_11584)" fill-opacity="0.9"/>
</g>
<path d="M281.817 0.0473633H12.0132C5.43564 0.0473633 0.103516 5.3795 0.103516 11.957V184.997C0.103516 186.273 1.52106 187.04 2.58928 186.34L282.697 2.99739C284.032 2.12324 283.413 0.0473633 281.817 0.0473633Z" fill="url(#paint1_linear_1_11584)"/>
<g filter="url(#filter1_i_1_11584)">
<path d="M210.242 154.949L203.335 159.109C203.03 159.304 202.711 159.387 202.378 159.359C202.046 159.331 201.754 159.22 201.505 159.026C201.255 158.832 201.061 158.59 200.922 158.299C200.784 158.007 200.756 157.681 200.839 157.32L202.67 149.457L196.554 144.173C196.277 143.924 196.103 143.639 196.035 143.32C195.965 143.001 195.985 142.69 196.096 142.385C196.207 142.079 196.374 141.83 196.595 141.636C196.817 141.441 197.122 141.317 197.511 141.261L205.582 140.554L208.702 133.148C208.841 132.816 209.056 132.566 209.348 132.4C209.639 132.233 209.937 132.15 210.242 132.15C210.547 132.15 210.845 132.233 211.137 132.4C211.428 132.566 211.642 132.816 211.781 133.148L214.901 140.554L222.972 141.261C223.361 141.317 223.666 141.441 223.888 141.636C224.11 141.83 224.276 142.079 224.387 142.385C224.498 142.69 224.519 143.001 224.45 143.32C224.38 143.639 224.207 143.924 223.929 144.173L217.814 149.457L219.644 157.32C219.727 157.681 219.7 158.007 219.561 158.299C219.422 158.59 219.228 158.832 218.978 159.026C218.729 159.22 218.438 159.331 218.105 159.359C217.772 159.387 217.453 159.304 217.148 159.109L210.242 154.949Z" fill="white"/>
<path d="M241.089 130.732L229.788 137.54C229.289 137.858 228.767 137.994 228.222 137.949C227.678 137.903 227.201 137.722 226.793 137.404C226.384 137.086 226.067 136.69 225.84 136.214C225.613 135.737 225.567 135.203 225.704 134.613L228.699 121.746L218.691 113.1C218.237 112.691 217.954 112.226 217.842 111.703C217.727 111.182 217.761 110.672 217.942 110.172C218.124 109.673 218.396 109.265 218.759 108.947C219.122 108.629 219.622 108.425 220.257 108.334L233.465 107.177L238.571 95.0587C238.797 94.5141 239.15 94.1056 239.627 93.8333C240.103 93.561 240.59 93.4248 241.089 93.4248C241.589 93.4248 242.077 93.561 242.555 93.8333C243.03 94.1056 243.381 94.5141 243.608 95.0587L248.714 107.177L261.922 108.334C262.557 108.425 263.056 108.629 263.42 108.947C263.783 109.265 264.055 109.673 264.236 110.172C264.418 110.672 264.452 111.182 264.34 111.703C264.226 112.226 263.941 112.691 263.488 113.1L253.48 121.746L256.475 134.613C256.612 135.203 256.566 135.737 256.339 136.214C256.112 136.69 255.795 137.086 255.386 137.404C254.978 137.722 254.501 137.903 253.956 137.949C253.412 137.994 252.89 137.858 252.391 137.54L241.089 130.732Z" fill="white"/>
<path d="M239.249 165.842L232.343 170.002C232.038 170.196 231.719 170.28 231.386 170.252C231.053 170.224 230.762 170.113 230.513 169.919C230.263 169.725 230.069 169.482 229.93 169.192C229.791 168.9 229.764 168.574 229.847 168.213L231.677 160.35L225.562 155.066C225.284 154.817 225.111 154.532 225.042 154.213C224.973 153.894 224.993 153.582 225.104 153.277C225.215 152.972 225.381 152.723 225.603 152.528C225.825 152.334 226.13 152.209 226.519 152.154L234.59 151.447L237.71 144.041C237.849 143.708 238.064 143.459 238.356 143.292C238.646 143.126 238.944 143.043 239.249 143.043C239.555 143.043 239.853 143.126 240.145 143.292C240.435 143.459 240.65 143.708 240.789 144.041L243.909 151.447L251.98 152.154C252.369 152.209 252.674 152.334 252.896 152.528C253.117 152.723 253.284 152.972 253.395 153.277C253.506 153.582 253.527 153.894 253.458 154.213C253.388 154.532 253.215 154.817 252.937 155.066L246.821 160.35L248.652 168.213C248.735 168.574 248.707 168.9 248.569 169.192C248.43 169.482 248.236 169.725 247.986 169.919C247.737 170.113 247.445 170.224 247.113 170.252C246.78 170.28 246.461 170.196 246.156 170.002L239.249 165.842Z" fill="white"/>
</g>
<defs>
<filter id="filter0_b_1_11584" x="-238.153" y="-238.209" width="776.863" height="672.463" filterUnits="userSpaceOnUse" color-interpolation-filters="sRGB">
<feFlood flood-opacity="0" result="BackgroundImageFix"/>
<feGaussianBlur in="BackgroundImageFix" stdDeviation="119.128"/>
<feComposite in2="SourceAlpha" operator="in" result="effect1_backgroundBlur_1_11584"/>
<feBlend mode="normal" in="SourceGraphic" in2="effect1_backgroundBlur_1_11584" result="shape"/>
</filter>
<filter id="filter1_i_1_11584" x="143.041" y="17.923" width="181.545" height="177.417" filterUnits="userSpaceOnUse" color-interpolation-filters="sRGB">
<feFlood flood-opacity="0" result="BackgroundImageFix"/>
<feBlend mode="normal" in="SourceGraphic" in2="BackgroundImageFix" result="shape"/>
<feColorMatrix in="SourceAlpha" type="matrix" values="0 0 0 0 0 0 0 0 0 0 0 0 0 0 0 0 0 0 127 0" result="hardAlpha"/>
<feOffset dy="-57.5971"/>
<feGaussianBlur stdDeviation="28.7985"/>
<feComposite in2="hardAlpha" operator="arithmetic" k2="-1" k3="1"/>
<feColorMatrix type="matrix" values="0 0 0 0 0.791667 0 0 0 0 0.791667 0 0 0 0 0.791667 0 0 0 0.25 0"/>
<feBlend mode="normal" in2="shape" result="effect1_innerShadow_1_11584"/>
</filter>
<linearGradient id="paint0_linear_1_11584" x1="20.407" y1="129.628" x2="335.608" y2="128.076" gradientUnits="userSpaceOnUse">
<stop stop-color="#8807F7"/>
<stop offset="0.40625" stop-color="#520BB3"/>
<stop offset="1" stop-color="#EA00BE"/>
</linearGradient>
<linearGradient id="paint1_linear_1_11584" x1="28.2112" y1="126.532" x2="321.096" y2="122.034" gradientUnits="userSpaceOnUse">
<stop stop-color="#8807F7"/>
<stop offset="0.40625" stop-color="#520BB3"/>
<stop offset="1" stop-color="#EA00BE"/>
</linearGradient>
</defs>
</svg>
