<svg width="302" height="196" viewBox="0 0 302 196" fill="none" xmlns="http://www.w3.org/2000/svg">
<g filter="url(#filter0_b_1_11551)">
<rect x="0.660156" y="0.0473633" width="300.351" height="195.951" rx="11.9128" fill="#F97316"/>
</g>
<path d="M282.374 0.0473633H12.5698C5.99228 0.0473633 0.660156 5.3795 0.660156 11.957V184.997C0.660156 186.273 2.0777 187.04 3.14592 186.34L283.253 2.99739C284.589 2.12324 283.97 0.0473633 282.374 0.0473633Z" fill="#FA6803"/>
<path d="M256.377 99.9841C257.951 94.3517 257.325 88.3315 254.625 83.1437C251.926 77.9559 247.355 73.9886 241.838 72.0458L240.421 76.5336C244.742 78.106 248.315 81.2421 250.434 85.322C252.553 89.4018 253.065 94.1284 251.867 98.5671L256.377 99.9841Z" fill="white"/>
<path d="M244.869 114.162C246.64 113.247 248.283 112.102 249.755 110.756C252.547 108.197 254.665 104.989 255.923 101.416L251.435 99.999C250.386 102.906 248.619 105.5 246.298 107.541C243.978 109.581 241.179 111.002 238.162 111.671C235.145 112.34 232.008 112.235 229.042 111.366C226.077 110.497 223.379 108.892 221.2 106.701L217.731 109.881C221.201 113.404 225.71 115.721 230.594 116.492C235.479 117.263 240.482 116.446 244.869 114.162Z" fill="white"/>
<path opacity="0.7" d="M244.869 114.162C246.64 113.247 248.283 112.102 249.755 110.756C252.547 108.197 254.665 104.989 255.923 101.416L251.435 99.999C250.386 102.906 248.619 105.5 246.298 107.541C243.978 109.581 241.179 111.002 238.162 111.671C235.145 112.34 232.008 112.235 229.042 111.366C226.077 110.497 223.379 108.892 221.2 106.701L217.731 109.881C221.201 113.404 225.71 115.721 230.594 116.492C235.479 117.263 240.482 116.446 244.869 114.162Z" fill="white"/>
<path d="M220.166 105.592C217.647 102.607 216.148 98.8953 215.887 94.9985C215.626 91.1017 216.617 87.2234 218.715 83.9292C220.813 80.635 223.909 78.0971 227.55 76.6857C231.192 75.2742 235.189 75.0629 238.959 76.0826L240.376 71.5722C234.616 69.9591 228.455 70.6486 223.195 73.4949C217.934 76.3412 213.987 81.1212 212.186 86.8249C211.015 90.5608 210.813 94.533 211.598 98.3686C212.383 102.204 214.129 105.777 216.674 108.753L220.166 105.592Z" fill="white"/>
<path opacity="0.3" d="M220.166 105.592C217.647 102.607 216.148 98.8953 215.887 94.9985C215.626 91.1017 216.617 87.2234 218.715 83.9292C220.813 80.635 223.909 78.0971 227.55 76.6857C231.192 75.2742 235.189 75.0629 238.959 76.0826L240.376 71.5722C234.616 69.9591 228.455 70.6486 223.195 73.4949C217.934 76.3412 213.987 81.1212 212.186 86.8249C211.015 90.5608 210.813 94.533 211.598 98.3686C212.383 102.204 214.129 105.777 216.674 108.753L220.166 105.592Z" fill="#F97316"/>
<path d="M229.898 88.2119C230.429 87.6806 231.06 87.259 231.754 86.9714C232.448 86.6837 233.192 86.5356 233.943 86.5354C234.694 86.5352 235.438 86.683 236.132 86.9704C236.826 87.2577 237.457 87.679 237.988 88.2101C238.52 88.7412 238.941 89.3718 239.229 90.0658C239.517 90.7598 239.665 91.5037 239.665 92.255C239.665 93.0062 239.517 93.7502 239.23 94.4444C238.943 95.1385 238.521 95.7693 237.99 96.3006L233.946 100.345L229.898 96.3006C228.826 95.2279 228.223 93.7731 228.223 92.2563C228.223 90.7395 228.826 89.2847 229.898 88.2119Z" fill="white"/>
<path opacity="0.3" d="M229.898 88.2119C230.429 87.6806 231.06 87.259 231.754 86.9714C232.448 86.6837 233.192 86.5356 233.943 86.5354C234.694 86.5352 235.438 86.683 236.132 86.9704C236.826 87.2577 237.457 87.679 237.988 88.2101C238.52 88.7412 238.941 89.3718 239.229 90.0658C239.517 90.7598 239.665 91.5037 239.665 92.255C239.665 93.0062 239.517 93.7502 239.23 94.4444C238.943 95.1385 238.521 95.7693 237.99 96.3006L233.946 100.345L229.898 96.3006C228.826 95.2279 228.223 93.7731 228.223 92.2563C228.223 90.7395 228.826 89.2847 229.898 88.2119Z" fill="#F97316"/>
<path d="M233.714 101.544H234.165V103.348H233.714V101.544Z" fill="white"/>
<path opacity="0.3" d="M223.714 101.544H224.165V103.348H223.714V101.544Z" fill="#F97316"/>
<path d="M233.714 104.743H234.165V106.547H233.714V104.743Z" fill="white"/>
<path opacity="0.3" d="M223.714 104.743H224.165V106.547H223.714V104.743Z" fill="#F97316"/>
<path d="M249.551 119.341H264.86V174.774H249.551V119.341Z" fill="white"/>
<path opacity="0.7" d="M249.551 119.341H264.86V174.774H249.551V119.341Z" fill="white"/>
<path d="M242.207 119.341H249.556V174.774H242.207V119.341Z" fill="white"/>
<path opacity="0.5" d="M242.207 119.341H249.556V174.774H242.207V119.341Z" fill="white"/>
<path d="M221.235 139.743H221.626V148.373H221.235V139.743Z" fill="#F97316"/>
<path d="M221.235 134.669H221.626V138.138H221.235V134.669Z" fill="#F97316"/>
<path d="M210.372 153.726H225.681V174.774H210.372V153.726Z" fill="white"/>
<path opacity="0.5" d="M210.372 153.726H225.681V174.774H210.372V153.726Z" fill="#F97316"/>
<path d="M203.028 153.726H210.376V174.774H203.028V153.726Z" fill="white"/>
<path opacity="0.6" d="M203.028 153.726H210.376V174.774H203.028V153.726Z" fill="#F97316"/>
<path d="M230.328 128.54H245.587V175.118H230.328V128.54Z" fill="white"/>
<path opacity="0.7" d="M230.328 128.54H245.587V175.118H230.328V128.54Z" fill="#F97316"/>
<path d="M222.298 128.54H230.329V175.118H222.298V128.54Z" fill="white"/>
<path opacity="0.8" d="M222.298 128.54H230.329V175.118H222.298V128.54Z" fill="#F97316"/>
<defs>
<filter id="filter0_b_1_11551" x="-237.596" y="-238.209" width="776.863" height="672.463" filterUnits="userSpaceOnUse" color-interpolation-filters="sRGB">
<feFlood flood-opacity="0" result="BackgroundImageFix"/>
<feGaussianBlur in="BackgroundImageFix" stdDeviation="119.128"/>
<feComposite in2="SourceAlpha" operator="in" result="effect1_backgroundBlur_1_11551"/>
<feBlend mode="normal" in="SourceGraphic" in2="effect1_backgroundBlur_1_11551" result="shape"/>
</filter>
</defs>
</svg>
