<svg width="1440" height="898" viewBox="0 0 1440 898" fill="none" xmlns="http://www.w3.org/2000/svg">
<rect width="1440" height="898" fill="#240053"/>
<g opacity="0.05">
<path d="M219 584.773L386 509.725L553 584.773L386 659.822L219 584.773Z" fill="#C505FF"/>
<path d="M219 584.773L386 659.822V809.919L219 734.87V584.773Z" fill="#FD59FF"/>
<path d="M386 659.822L553 584.773V734.87L386 809.919V659.822Z" fill="#8E00CB"/>
<path d="M386 359.628L553 284.579L720 359.628L553 434.676L386 359.628Z" fill="#C505FF"/>
<path d="M386 359.628L553 434.676V584.773L386 509.725V359.628Z" fill="#FD59FF"/>
<path d="M553 434.676L720 359.628V509.725L553 584.773V434.676Z" fill="#8E00CB"/>
<path d="M720 359.628L887 284.579L1054 359.628L887 434.676L720 359.628Z" fill="#C505FF"/>
<path d="M720 359.628L887 434.676V584.773L720 509.725V359.628Z" fill="#FD59FF"/>
<path d="M887 434.676L1054 359.628V509.725L887 584.773V434.676Z" fill="#8E00CB"/>
<path d="M553 134.482L720 59.4332L887 134.482L720 209.53L553 134.482Z" fill="#C505FF"/>
<path d="M553 134.482L720 209.53V359.628L553 284.579V134.482Z" fill="#FD59FF"/>
<path d="M720 209.53L887 134.482V284.579L720 359.628V209.53Z" fill="#8E00CB"/>
<path d="M887 584.773L1054 509.725L1221 584.773L1054 659.822L887 584.773Z" fill="#C505FF"/>
<path d="M887 584.773L1054 659.822V809.919L887 734.87V584.773Z" fill="#FD59FF"/>
<path d="M1054 659.822L1221 584.773V734.87L1054 809.919V659.822Z" fill="#8E00CB"/>
</g>
</svg>
