<svg width="1436" height="695" viewBox="0 0 1436 695" fill="none" xmlns="http://www.w3.org/2000/svg">
<rect width="1440" height="702" fill="#FFFDF2"/>
<path d="M1280.43 209.023L1159.7 278.751L1280.45 348.438L1280.43 209.023ZM1003.04 678.088L998.101 689.105L1003.04 678.088ZM1011.25 675.431L1021.71 681.466L1011.25 675.431ZM759.449 568.863L764.389 557.846L759.449 568.863ZM626.97 721.478C646.323 698.683 722.161 618.99 760.896 578.624L743.473 561.905C705.047 601.949 628.522 682.339 608.562 705.849L626.97 721.478ZM754.509 579.88L998.101 689.105L1007.98 667.071L764.389 557.846L754.509 579.88ZM1021.71 681.466L1236.57 309.172L1215.66 297.102L1000.8 669.396L1021.71 681.466ZM998.101 689.105C1006.76 692.99 1016.96 689.69 1021.71 681.466L1000.8 669.396C1002.24 666.893 1005.34 665.889 1007.98 667.071L998.101 689.105ZM760.896 578.624C759.214 580.377 756.639 580.835 754.509 579.88L764.389 557.846C757.295 554.666 748.921 556.227 743.473 561.905L760.896 578.624Z" fill="#3D0072"/>
<path d="M1303.77 205L1183.05 274.727L1303.8 344.415L1303.77 205ZM1026.38 674.065L1021.44 685.082L1026.38 674.065ZM1034.6 671.408L1045.05 677.443L1034.6 671.408ZM775.529 566.241L784.24 574.6L775.529 566.241ZM782.792 564.84L787.732 553.823L782.792 564.84ZM650.313 717.454C669.666 694.659 745.505 614.966 784.24 574.6L766.817 557.881C728.39 597.926 651.865 678.316 631.906 701.826L650.313 717.454ZM777.853 575.856L1021.44 685.082L1031.32 663.048L787.732 553.823L777.853 575.856ZM1045.05 677.443L1259.91 305.149L1239 293.079L1024.14 665.373L1045.05 677.443ZM1021.44 685.082C1030.11 688.966 1040.31 685.667 1045.05 677.443L1024.14 665.373C1025.58 662.87 1028.69 661.866 1031.32 663.048L1021.44 685.082ZM784.24 574.6C782.558 576.353 779.982 576.812 777.853 575.856L787.732 553.823C780.639 550.642 772.265 552.204 766.817 557.881L784.24 574.6Z" fill="#0D9488"/>
</svg>
