<svg width="364" height="458" viewBox="0 0 364 458" fill="none" xmlns="http://www.w3.org/2000/svg">
<g clip-path="url(#clip0_1_7963)">
<rect width="364" height="458" rx="16" fill="#FDEDF2"/>
<g clip-path="url(#clip1_1_7963)">
<rect width="252.288" height="539.944" transform="translate(55 112)" fill="white"/>
<path d="M78.1057 180.049C80.5107 180.049 82.3145 178.811 82.3145 176.671C82.3145 174.408 80.6168 173.665 78.7247 173.205L77.3984 172.887C76.1075 172.569 75.294 172.197 75.294 171.154C75.294 170.252 76.1075 169.722 77.2392 169.722C78.6893 169.722 79.9625 170.358 80.6168 171.826L82.12 170.394C81.2711 168.767 79.5381 167.865 77.363 167.865C75.1349 167.865 73.2073 169.067 73.2073 171.296C73.2073 173.541 74.9934 174.302 76.6734 174.655L77.7874 174.903C79.3259 175.239 80.2808 175.557 80.2808 176.707C80.2808 177.786 79.3259 178.21 78.1411 178.21C76.691 178.21 74.905 177.538 74.2684 175.805L72.8537 177.237C73.7732 179.236 75.8422 180.049 78.1057 180.049ZM85.9068 180.049C87.7105 180.049 88.5416 178.705 88.8069 177.573V178.21C88.8069 179.448 89.5319 179.872 90.4515 179.872H91.6717V178.175H91.1235C90.8052 178.175 90.6637 178.051 90.6637 177.662V174.426C90.6637 172.304 89.4612 171.083 87.3215 171.083C85.4116 171.083 84.0676 172.074 83.3957 172.993L84.5805 174.408C85.0756 173.506 85.9775 172.834 87.1269 172.834C88.3118 172.834 88.7008 173.418 88.7715 174.284L85.8891 175.504C84.4921 176.053 83.6432 176.795 83.6432 178.015C83.6432 179.253 84.4921 180.049 85.9068 180.049ZM85.5531 177.715C85.5531 177.273 85.8537 176.972 86.5964 176.636L88.8069 175.646V176.565C88.8069 177.732 87.9227 178.511 86.6141 178.511C85.8891 178.511 85.5531 178.21 85.5531 177.715ZM97.4222 179.872L100.499 171.26H98.3418L96.8917 175.946L96.202 178.581L95.4947 175.946L94.0269 171.26H91.8341L94.8934 179.872H97.4222ZM104.984 180.049C106.894 180.049 108.061 179.183 108.716 178.192L107.495 176.919C107.177 177.644 106.505 178.422 105.002 178.422C103.64 178.422 102.739 177.591 102.632 176.053H108.786C108.822 175.876 108.857 175.504 108.857 175.186C108.857 172.799 107.425 171.083 104.843 171.083C102.42 171.083 100.74 172.869 100.74 175.575C100.74 178.263 102.42 180.049 104.984 180.049ZM104.843 172.675C106.151 172.675 106.93 173.418 107.071 174.779H102.65C102.809 173.382 103.623 172.675 104.843 172.675Z" fill="#3D0072"/>
<rect x="72.6821" y="192.756" width="216.921" height="69.5561" rx="6.81923" fill="#F9F9F9"/>
<path d="M89.5198 226.941V224.92H89.0452V224.314H89.5198V223.725H89.0452V223.12H89.5198V221.098H90.8046L91.4428 223.12H92.1875V221.098H93.0958V223.12H93.5623V223.725H93.0958V224.314H93.5623V224.92H93.0958V226.941H91.8029L91.1483 224.92H90.4281V226.941H89.5198ZM90.4281 224.314H90.9682L90.7882 223.725H90.4118L90.4281 224.314ZM92.2121 225.665H92.253L92.2202 224.92H91.9993L92.2121 225.665ZM90.3954 223.12H90.6245L90.3872 222.334H90.3545L90.3954 223.12ZM91.8275 224.314H92.2039L92.1875 223.725H91.6392L91.8275 224.314ZM99.3745 227.064C101.24 227.064 102.406 225.935 102.406 224.241C102.406 222.608 101.498 221.553 99.9391 221.553C98.8467 221.553 98.1838 222.142 97.9261 222.878L98.1225 219.994H101.793V218.717H96.7968L96.5268 223.394L97.877 223.529L97.8893 223.418C97.9629 222.891 98.5153 222.559 99.3008 222.559C100.148 222.559 100.921 223.026 100.921 224.179C100.921 225.137 100.381 225.726 99.3868 225.726C98.3311 225.726 97.6069 225.112 97.3246 224.093L96.2199 225.161C96.6372 226.229 97.8033 227.064 99.3745 227.064ZM106.854 227.052C109.15 227.052 110.303 225.235 110.303 222.817C110.303 220.411 109.15 218.594 106.854 218.594C104.559 218.594 103.393 220.411 103.393 222.817C103.393 225.235 104.559 227.052 106.854 227.052ZM106.854 225.726C105.394 225.726 104.854 224.548 104.854 222.817C104.854 221.098 105.394 219.908 106.854 219.908C108.327 219.908 108.855 221.098 108.855 222.817C108.855 224.548 108.327 225.726 106.854 225.726ZM111.527 228.365C112.448 228.267 112.803 227.788 112.803 226.966V225.198H111.232V226.941H111.957V227.101C111.957 227.506 111.686 227.592 111.245 227.641L111.527 228.365ZM117.187 227.052C119.482 227.052 120.636 225.235 120.636 222.817C120.636 220.411 119.482 218.594 117.187 218.594C114.892 218.594 113.726 220.411 113.726 222.817C113.726 225.235 114.892 227.052 117.187 227.052ZM117.187 225.726C115.726 225.726 115.186 224.548 115.186 222.817C115.186 221.098 115.726 219.908 117.187 219.908C118.66 219.908 119.188 221.098 119.188 222.817C119.188 224.548 118.66 225.726 117.187 225.726ZM125.206 227.052C127.502 227.052 128.655 225.235 128.655 222.817C128.655 220.411 127.502 218.594 125.206 218.594C122.911 218.594 121.745 220.411 121.745 222.817C121.745 225.235 122.911 227.052 125.206 227.052ZM125.206 225.726C123.746 225.726 123.206 224.548 123.206 222.817C123.206 221.098 123.746 219.908 125.206 219.908C126.679 219.908 127.207 221.098 127.207 222.817C127.207 224.548 126.679 225.726 125.206 225.726ZM133.226 227.052C135.521 227.052 136.675 225.235 136.675 222.817C136.675 220.411 135.521 218.594 133.226 218.594C130.93 218.594 129.764 220.411 129.764 222.817C129.764 225.235 130.93 227.052 133.226 227.052ZM133.226 225.726C131.765 225.726 131.225 224.548 131.225 222.817C131.225 221.098 131.765 219.908 133.226 219.908C134.698 219.908 135.226 221.098 135.226 222.817C135.226 224.548 134.698 225.726 133.226 225.726ZM139.175 226.941V225.198H137.604V226.941H139.175ZM143.558 227.052C145.854 227.052 147.007 225.235 147.007 222.817C147.007 220.411 145.854 218.594 143.558 218.594C141.263 218.594 140.097 220.411 140.097 222.817C140.097 225.235 141.263 227.052 143.558 227.052ZM143.558 225.726C142.098 225.726 141.558 224.548 141.558 222.817C141.558 221.098 142.098 219.908 143.558 219.908C145.031 219.908 145.559 221.098 145.559 222.817C145.559 224.548 145.031 225.726 143.558 225.726ZM151.578 227.052C153.873 227.052 155.027 225.235 155.027 222.817C155.027 220.411 153.873 218.594 151.578 218.594C149.282 218.594 148.116 220.411 148.116 222.817C148.116 225.235 149.282 227.052 151.578 227.052ZM151.578 225.726C150.117 225.726 149.577 224.548 149.577 222.817C149.577 221.098 150.117 219.908 151.578 219.908C153.05 219.908 153.578 221.098 153.578 222.817C153.578 224.548 153.05 225.726 151.578 225.726Z" fill="#3D0072"/>
<path fill-rule="evenodd" clip-rule="evenodd" d="M155.113 223.827C155.113 223.827 157.031 220.033 160.228 220.033C163.424 220.033 165.342 223.827 165.342 223.827C165.342 223.827 163.424 227.622 160.228 227.622C157.031 227.622 155.113 223.827 155.113 223.827ZM156.27 223.91C156.253 223.882 156.236 223.855 156.219 223.827L156.272 223.745C156.48 223.423 156.787 222.995 157.18 222.571C157.986 221.699 159.026 220.981 160.228 220.981C161.428 220.981 162.469 221.699 163.277 222.571C163.635 222.96 163.956 223.381 164.236 223.827C163.954 224.274 163.633 224.694 163.276 225.084C162.469 225.956 161.43 226.674 160.228 226.674C159.027 226.674 157.986 225.956 157.178 225.084C156.842 224.719 156.539 224.326 156.27 223.91ZM162.146 223.827C162.145 224.227 162.018 224.616 161.781 224.94C161.544 225.263 161.21 225.505 160.827 225.629C160.443 225.754 160.03 225.756 159.645 225.635C159.261 225.513 158.924 225.275 158.685 224.954C158.445 224.632 158.314 224.244 158.31 223.845C158.306 223.446 158.43 223.055 158.663 222.729C158.897 222.404 159.228 222.159 159.611 222.03C159.993 221.902 160.406 221.896 160.792 222.014C160.651 222.077 160.527 222.173 160.432 222.294C160.336 222.415 160.272 222.557 160.244 222.708C160.216 222.859 160.226 223.014 160.272 223.161C160.318 223.307 160.4 223.44 160.509 223.549C160.619 223.657 160.754 223.738 160.902 223.783C161.05 223.829 161.207 223.839 161.359 223.811C161.512 223.784 161.656 223.72 161.778 223.626C161.9 223.531 161.997 223.409 162.061 223.269C162.117 223.45 162.146 223.638 162.146 223.827Z" fill="#9CA3AF"/>
<rect x="88.9634" y="235.698" width="41.1203" height="14.4818" rx="7.24092" fill="#3D0072" fill-opacity="0.11"/>
<rect x="91.6909" y="238.439" width="20.5569" height="9" rx="4.5" fill="white"/>
<path d="M96.8628 244.439V242.049L96.8354 241.561L97.1643 242.049L98.8472 244.439H99.2748V240.766H98.7979V243.112L98.8253 243.671L98.447 243.101L96.808 240.766H96.3859V244.439H96.8628ZM101.439 244.483C102.283 244.483 102.755 243.836 102.782 243.019L102.93 244.439H103.226V242.597H101.604V243.019H102.727C102.59 243.638 102.311 244.033 101.604 244.033C100.809 244.033 100.441 243.436 100.441 242.597C100.441 241.758 100.82 241.161 101.653 241.161C102.3 241.161 102.662 241.555 102.788 242.076L103.215 241.796C102.969 241.1 102.415 240.711 101.647 240.711C100.54 240.711 99.9371 241.522 99.9371 242.597C99.9371 243.71 100.458 244.483 101.439 244.483ZM104.465 244.439V242.049L104.437 241.561L104.766 242.049L106.449 244.439H106.877V240.766H106.4V243.112L106.427 243.671L106.049 243.101L104.41 240.766H103.988V244.439H104.465Z" fill="#3D0072" fill-opacity="0.8"/>
<path d="M117.412 244.494C118.388 244.494 118.815 243.989 118.815 242.904V240.766H118.344V242.904C118.344 243.715 118.092 244.039 117.417 244.039C116.754 244.039 116.496 243.715 116.496 242.904V240.766H116.02V242.904C116.02 243.989 116.458 244.494 117.412 244.494ZM120.942 244.494C121.654 244.494 122.186 244.11 122.186 243.474C122.186 242.75 121.616 242.547 121.095 242.421L120.695 242.323C120.273 242.219 120.004 242.082 120.004 241.714C120.004 241.374 120.306 241.172 120.711 241.172C121.188 241.172 121.561 241.374 121.737 241.873L122.137 241.555C121.912 241.007 121.386 240.717 120.722 240.717C120.081 240.717 119.5 241.078 119.5 241.747C119.5 242.438 120.054 242.657 120.542 242.767L120.887 242.844C121.375 242.959 121.698 243.063 121.698 243.485C121.698 243.885 121.353 244.044 120.942 244.044C120.481 244.044 119.911 243.83 119.741 243.233L119.379 243.551C119.621 244.23 120.251 244.494 120.942 244.494ZM124.14 244.439C125.297 244.439 125.872 243.764 125.872 242.602C125.872 241.44 125.297 240.766 124.14 240.766H122.841V244.439H124.14ZM124.063 241.188C124.897 241.188 125.379 241.555 125.379 242.602C125.379 243.649 124.897 244.017 124.063 244.017H123.318V241.188H124.063Z" fill="#3D0072" fill-opacity="0.3"/>
<path d="M137.276 244.439V243.085H136.958V242.679H137.276V242.284H136.958V241.878H137.276V240.524H138.136L138.564 241.878H139.063V240.524H139.672V241.878H139.984V242.284H139.672V242.679H139.984V243.085H139.672V244.439H138.805L138.367 243.085H137.884V244.439H137.276ZM137.884 242.679H138.246L138.125 242.284H137.873L137.884 242.679ZM139.079 243.583H139.107L139.085 243.085H138.937L139.079 243.583ZM137.862 241.878H138.016L137.857 241.352H137.835L137.862 241.878ZM138.822 242.679H139.074L139.063 242.284H138.696L138.822 242.679ZM141.422 244.439C141.422 242.904 141.948 242.125 142.683 241.401V240.765H140.177V241.336H142.102C141.526 241.906 140.742 242.723 140.742 244.439H141.422ZM145.05 244.439V243.611H145.67V243.074H145.05V240.765H144.398L142.599 243.134V243.611H144.436V244.439H145.05ZM143.279 243.074L144.436 241.566V243.074H143.279ZM147.525 244.488C148.55 244.488 149.065 243.677 149.065 242.597C149.065 241.522 148.55 240.711 147.525 240.711C146.5 240.711 145.979 241.522 145.979 242.597C145.979 243.677 146.5 244.488 147.525 244.488ZM147.525 243.896C146.872 243.896 146.631 243.37 146.631 242.597C146.631 241.829 146.872 241.297 147.525 241.297C148.183 241.297 148.418 241.829 148.418 242.597C148.418 243.37 148.183 243.896 147.525 243.896ZM151.139 244.658L152.565 240.546H152L150.575 244.658H151.139ZM154.677 244.987V244.488C155.357 244.444 155.851 244.071 155.851 243.446C155.851 242.745 155.324 242.514 154.738 242.372L154.677 242.355V241.352C154.951 241.44 155.187 241.632 155.324 241.944L155.79 241.5C155.576 241.089 155.182 240.826 154.677 240.743V240.217H154.293V240.716C153.625 240.716 153.027 241.089 153.027 241.78C153.027 242.476 153.581 242.712 154.102 242.821L154.293 242.865V243.901C153.91 243.83 153.515 243.611 153.356 243.178L152.917 243.622C153.169 244.165 153.696 244.428 154.293 244.483V244.987H154.677ZM153.674 241.736C153.674 241.456 153.926 241.292 154.277 241.292H154.293V242.262C153.926 242.174 153.674 242.059 153.674 241.736ZM155.22 243.457C155.22 243.753 154.984 243.89 154.677 243.918V242.953C155.017 243.046 155.22 243.161 155.22 243.457ZM157.561 244.439V240.765H157.018C156.832 241.001 156.574 241.094 156.273 241.094V241.544H156.941V244.439H157.561Z" fill="#B69FC9"/>
<path d="M91.1304 209.667V205.623H92.5761V205.098H89.0983V205.623H90.544V209.667H91.1304ZM93.8648 209.735C94.7786 209.735 95.4264 209.06 95.4264 208.016C95.4264 206.973 94.7786 206.298 93.8648 206.298C92.9511 206.298 92.31 206.973 92.31 208.016C92.31 209.06 92.9511 209.735 93.8648 209.735ZM93.8648 209.237C93.3057 209.237 92.917 208.848 92.917 208.016C92.917 207.177 93.3057 206.796 93.8648 206.796C94.4308 206.796 94.8263 207.177 94.8263 208.016C94.8263 208.848 94.4308 209.237 93.8648 209.237ZM97.2227 209.742C97.6796 209.742 97.9933 209.53 98.1365 209.305L97.9387 208.719C97.8501 208.923 97.6455 209.169 97.3523 209.169C97.0931 209.169 96.8954 209.066 96.8954 208.644V206.83H97.9796V206.366H96.8954V205.507L96.3021 205.943V206.366H95.7702V206.83H96.3021V208.821C96.3021 209.387 96.684 209.742 97.2227 209.742ZM99.3039 209.735C99.9858 209.735 100.34 209.244 100.449 208.807V209.039C100.449 209.503 100.695 209.667 101.036 209.667H101.418V209.128H101.206C101.084 209.128 101.022 209.08 101.022 208.923V207.566C101.022 206.782 100.586 206.298 99.7744 206.298C99.0379 206.298 98.5469 206.714 98.3492 207.055L98.7515 207.471C98.922 207.109 99.2357 206.837 99.7062 206.837C100.224 206.837 100.409 207.123 100.429 207.512L99.2357 208.044C98.7651 208.255 98.431 208.535 98.431 208.978C98.431 209.414 98.7447 209.735 99.3039 209.735ZM99.0311 208.882C99.0311 208.678 99.1743 208.541 99.488 208.391L100.449 207.941V208.398C100.449 208.875 100.054 209.244 99.4948 209.244C99.1879 209.244 99.0311 209.107 99.0311 208.882ZM102.698 209.667V205.098H102.105V209.667H102.698ZM106.923 209.735C107.809 209.735 108.471 209.257 108.471 208.466C108.471 207.566 107.761 207.314 107.114 207.157L106.616 207.034C106.091 206.905 105.756 206.734 105.756 206.277C105.756 205.855 106.132 205.602 106.636 205.602C107.229 205.602 107.693 205.855 107.911 206.475L108.409 206.08C108.13 205.398 107.475 205.036 106.65 205.036C105.852 205.036 105.129 205.486 105.129 206.318C105.129 207.177 105.818 207.45 106.425 207.587L106.854 207.682C107.461 207.825 107.864 207.955 107.864 208.48C107.864 208.978 107.434 209.176 106.923 209.176C106.35 209.176 105.641 208.91 105.429 208.166L104.979 208.562C105.279 209.407 106.063 209.735 106.923 209.735ZM109.946 209.735C110.627 209.735 110.982 209.244 111.091 208.807V209.039C111.091 209.503 111.337 209.667 111.678 209.667H112.06V209.128H111.848C111.725 209.128 111.664 209.08 111.664 208.923V207.566C111.664 206.782 111.228 206.298 110.416 206.298C109.68 206.298 109.189 206.714 108.991 207.055L109.393 207.471C109.564 207.109 109.877 206.837 110.348 206.837C110.866 206.837 111.05 207.123 111.071 207.512L109.877 208.044C109.407 208.255 109.073 208.535 109.073 208.978C109.073 209.414 109.386 209.735 109.946 209.735ZM109.673 208.882C109.673 208.678 109.816 208.541 110.13 208.391L111.091 207.941V208.398C111.091 208.875 110.696 209.244 110.137 209.244C109.83 209.244 109.673 209.107 109.673 208.882ZM114.134 209.667L115.335 206.366H114.7L114.053 208.323L113.773 209.23L113.487 208.323L112.832 206.366H112.191L113.384 209.667H114.134ZM116.416 205.834V205.098H115.823V205.834H116.416ZM116.416 209.667V206.366H115.823V209.667H116.416ZM117.901 209.667V207.798C117.901 207.246 118.133 206.802 118.768 206.802C119.327 206.802 119.497 207.102 119.497 207.532V209.667H120.084V207.389C120.084 206.687 119.681 206.298 119.033 206.298C118.386 206.298 118.031 206.734 117.901 207.246V206.366H117.308V209.667H117.901ZM122.213 208.657C122.99 208.657 123.516 208.166 123.516 207.478C123.516 207.068 123.325 206.721 123.011 206.516L123.618 205.834L123.004 205.616L122.8 206.407C122.629 206.339 122.431 206.298 122.213 206.298C121.436 206.298 120.911 206.789 120.911 207.478C120.911 207.894 121.102 208.241 121.429 208.446C121.108 208.705 120.911 208.991 120.911 209.251C120.911 209.469 121.02 209.626 121.231 209.694C120.979 209.796 120.699 209.98 120.699 210.287C120.699 210.723 121.231 211.003 122.077 211.003C123.188 211.003 123.802 210.56 123.802 209.932C123.802 209.435 123.427 209.196 122.827 209.196H121.831C121.49 209.196 121.395 209.107 121.395 208.93C121.395 208.787 121.49 208.63 121.572 208.521C121.756 208.61 121.974 208.657 122.213 208.657ZM122.213 208.2C121.804 208.2 121.483 207.928 121.483 207.478C121.483 207.027 121.804 206.755 122.213 206.755C122.629 206.755 122.943 207.027 122.943 207.478C122.943 207.928 122.629 208.2 122.213 208.2ZM122.077 210.533C121.483 210.533 121.177 210.369 121.177 210.103C121.177 209.946 121.293 209.803 121.402 209.707H122.752C123.086 209.707 123.25 209.803 123.25 210.014C123.25 210.342 122.827 210.533 122.077 210.533ZM125.576 209.735C126.217 209.735 126.776 209.441 126.776 208.787C126.776 208.33 126.531 208.023 125.787 207.846L125.365 207.737C124.914 207.628 124.696 207.525 124.696 207.232C124.696 206.952 124.942 206.802 125.283 206.802C125.753 206.802 126.067 207.048 126.231 207.437L126.681 207.102C126.497 206.666 126.012 206.298 125.317 206.298C124.601 206.298 124.137 206.666 124.137 207.266C124.137 207.873 124.649 208.098 125.119 208.207L125.555 208.309C125.944 208.398 126.244 208.494 126.244 208.794C126.244 209.087 125.985 209.237 125.596 209.237C124.942 209.237 124.58 208.862 124.464 208.487L124.035 208.821C124.26 209.435 124.887 209.735 125.576 209.735Z" fill="#6B7280"/>
<rect x="72.6797" y="270.564" width="216.331" height="31.8308" rx="15.9154" fill="#8807F7"/>
<path d="M160.141 288.685H159.075V283.309H157.142V282.366H162.084V283.309H160.141V288.685ZM163.901 288.779C162.581 288.779 161.676 287.817 161.676 286.393C161.676 284.959 162.581 283.997 163.901 283.997C165.241 283.997 166.146 284.959 166.146 286.393C166.146 287.817 165.241 288.779 163.901 288.779ZM163.911 287.902C164.599 287.902 165.071 287.449 165.071 286.393C165.071 285.327 164.599 284.875 163.911 284.875C163.232 284.875 162.76 285.327 162.76 286.393C162.76 287.449 163.232 287.902 163.911 287.902ZM168.127 290.439H167.07V284.092H168.127V285.318C168.278 284.601 168.683 283.988 169.598 283.988C170.711 283.988 171.428 284.903 171.428 286.384C171.428 287.864 170.711 288.779 169.579 288.779C168.664 288.779 168.278 288.166 168.127 287.459V290.439ZM168.127 286.667C168.127 287.421 168.438 287.921 169.183 287.921C169.843 287.921 170.343 287.421 170.343 286.384C170.343 285.346 169.843 284.846 169.183 284.846C168.438 284.846 168.127 285.346 168.127 286.101V286.667ZM176.763 288.779C175.075 288.779 174.254 287.902 174.254 285.987V282.366H175.311V285.997C175.311 287.251 175.735 287.761 176.772 287.761C177.829 287.761 178.234 287.251 178.234 285.997V282.366H179.291V285.987C179.291 287.902 178.489 288.779 176.763 288.779ZM181.454 290.439H180.398V284.092H181.454V285.318C181.605 284.601 182.011 283.988 182.925 283.988C184.038 283.988 184.755 284.903 184.755 286.384C184.755 287.864 184.038 288.779 182.906 288.779C181.992 288.779 181.605 288.166 181.454 287.459V290.439ZM181.454 286.667C181.454 287.421 181.765 287.921 182.51 287.921C183.171 287.921 183.67 287.421 183.67 286.384C183.67 285.346 183.171 284.846 182.51 284.846C181.765 284.846 181.454 285.346 181.454 286.101V286.667Z" fill="white"/>
<path d="M195.661 282.41L191.891 283.663C189.356 284.511 189.356 285.893 191.891 286.736L193.01 287.108L193.381 288.227C194.225 290.761 195.611 290.761 196.454 288.227L197.711 284.461C198.27 282.77 197.352 281.847 195.661 282.41ZM195.794 284.657L194.208 286.252C194.145 286.314 194.066 286.344 193.987 286.344C193.907 286.344 193.828 286.314 193.765 286.252C193.644 286.131 193.644 285.93 193.765 285.809L195.352 284.214C195.473 284.093 195.673 284.093 195.794 284.214C195.916 284.335 195.916 284.536 195.794 284.657Z" fill="white"/>
<path d="M75.0971 333.092C76.335 333.092 77.1685 332.432 77.5234 331.293L76.8797 330.872C76.6981 331.796 76.1535 332.415 75.1054 332.415C73.8428 332.415 73.2651 331.516 73.2651 330.253C73.2651 328.991 73.8428 328.091 75.1054 328.091C76.1535 328.091 76.6981 328.71 76.8797 329.634L77.5234 329.213C77.1685 328.075 76.335 327.414 75.0971 327.414C73.4219 327.414 72.5059 328.66 72.5059 330.253C72.5059 331.846 73.4219 333.092 75.0971 333.092ZM79.1261 333.026V330.765C79.1261 330.08 79.5883 329.477 80.0999 329.477C80.3887 329.477 80.5125 329.676 80.5125 329.907C80.5125 330.129 80.4053 330.377 80.2732 330.493H81.0572C81.1232 330.393 81.214 330.146 81.214 329.808C81.214 329.246 80.8014 328.941 80.3722 328.941C79.6955 328.941 79.2829 329.477 79.1261 330.096V329.032H78.4082V333.026H79.1261ZM83.4849 333.109C84.3514 333.109 84.9043 332.704 85.2014 332.226L84.764 331.73C84.6072 332.077 84.2854 332.514 83.4849 332.514C82.7752 332.514 82.3048 332.036 82.2635 331.194H85.2261C85.2427 331.12 85.2592 330.996 85.2592 330.872C85.2592 329.7 84.5742 328.949 83.4436 328.949C82.3461 328.949 81.5703 329.766 81.5703 331.029C81.5703 332.3 82.3543 333.109 83.4849 333.109ZM83.4436 329.552C84.1121 329.552 84.5412 329.94 84.6155 330.674H82.28C82.3708 329.931 82.7999 329.552 83.4436 329.552ZM87.0184 333.109C87.8436 333.109 88.2728 332.514 88.4048 331.986V332.267C88.4048 332.828 88.7019 333.026 89.1145 333.026H89.5767V332.374H89.3208C89.1723 332.374 89.098 332.316 89.098 332.126V330.484C89.098 329.535 88.5699 328.949 87.5878 328.949C86.6966 328.949 86.1024 329.453 85.8631 329.865L86.35 330.369C86.5563 329.931 86.9359 329.601 87.5053 329.601C88.1325 329.601 88.3553 329.948 88.3801 330.418L86.9359 331.062C86.3665 331.318 85.9621 331.656 85.9621 332.193C85.9621 332.721 86.3417 333.109 87.0184 333.109ZM86.6883 332.077C86.6883 331.829 86.8616 331.664 87.2412 331.483L88.4048 330.938V331.491C88.4048 332.069 87.9262 332.514 87.2495 332.514C86.8781 332.514 86.6883 332.349 86.6883 332.077ZM91.6321 333.117C92.185 333.117 92.5646 332.861 92.7379 332.589L92.4986 331.879C92.3913 332.126 92.1437 332.424 91.7889 332.424C91.4753 332.424 91.236 332.3 91.236 331.788V329.593H92.5481V329.032H91.236V327.992L90.518 328.52V329.032H89.8743V329.593H90.518V332.003C90.518 332.688 90.9801 333.117 91.6321 333.117ZM94.8642 333.109C95.7307 333.109 96.2836 332.704 96.5807 332.226L96.1433 331.73C95.9865 332.077 95.6647 332.514 94.8642 332.514C94.1545 332.514 93.6841 332.036 93.6428 331.194H96.6055C96.622 331.12 96.6385 330.996 96.6385 330.872C96.6385 329.7 95.9535 328.949 94.8229 328.949C93.7254 328.949 92.9496 329.766 92.9496 331.029C92.9496 332.3 93.7336 333.109 94.8642 333.109ZM94.8229 329.552C95.4914 329.552 95.9205 329.94 95.9948 330.674H93.6593C93.7501 329.931 94.1792 329.552 94.8229 329.552ZM100.203 333.109C101.028 333.109 101.457 332.514 101.589 331.986V332.267C101.589 332.828 101.886 333.026 102.299 333.026H102.761V332.374H102.505C102.357 332.374 102.283 332.316 102.283 332.126V330.484C102.283 329.535 101.754 328.949 100.772 328.949C99.8811 328.949 99.2869 329.453 99.0476 329.865L99.5345 330.369C99.7408 329.931 100.12 329.601 100.69 329.601C101.317 329.601 101.54 329.948 101.565 330.418L100.12 331.062C99.551 331.318 99.1466 331.656 99.1466 332.193C99.1466 332.721 99.5262 333.109 100.203 333.109ZM99.8728 332.077C99.8728 331.829 100.046 331.664 100.426 331.483L101.589 330.938V331.491C101.589 332.069 101.111 332.514 100.434 332.514C100.063 332.514 99.8728 332.349 99.8728 332.077ZM106.124 333.026V330.765C106.124 330.096 106.404 329.56 107.172 329.56C107.849 329.56 108.055 329.923 108.055 330.443V333.026H108.765V330.27C108.765 329.42 108.278 328.949 107.494 328.949C106.71 328.949 106.281 329.477 106.124 330.096V329.032H105.406V333.026H106.124ZM111.514 333.109C112.381 333.109 112.934 332.704 113.231 332.226L112.793 331.73C112.636 332.077 112.315 332.514 111.514 332.514C110.804 332.514 110.334 332.036 110.293 331.194H113.255C113.272 331.12 113.288 330.996 113.288 330.872C113.288 329.7 112.603 328.949 111.473 328.949C110.375 328.949 109.6 329.766 109.6 331.029C109.6 332.3 110.384 333.109 111.514 333.109ZM111.473 329.552C112.141 329.552 112.57 329.94 112.645 330.674H110.309C110.4 329.931 110.829 329.552 111.473 329.552ZM115.531 333.026L116.216 330.691L116.489 329.626L116.744 330.691L117.429 333.026H118.37L119.402 329.032H118.601L118.09 331.491L117.9 332.506L117.644 331.491L116.926 329.032H116.043L115.317 331.491L115.069 332.506L114.879 331.491L114.359 329.032H113.559L114.599 333.026H115.531ZM123.406 333.109C124.181 333.109 124.858 332.754 124.858 331.961C124.858 331.409 124.561 331.037 123.662 330.823L123.15 330.691C122.605 330.559 122.341 330.435 122.341 330.08C122.341 329.742 122.638 329.56 123.051 329.56C123.62 329.56 124 329.857 124.198 330.327L124.743 329.923C124.52 329.395 123.934 328.949 123.092 328.949C122.226 328.949 121.664 329.395 121.664 330.121C121.664 330.856 122.283 331.128 122.853 331.26L123.381 331.384C123.851 331.491 124.214 331.607 124.214 331.97C124.214 332.325 123.901 332.506 123.43 332.506C122.638 332.506 122.201 332.052 122.061 331.598L121.541 332.003C121.813 332.745 122.572 333.109 123.406 333.109ZM126.54 333.109C127.365 333.109 127.794 332.514 127.926 331.986V332.267C127.926 332.828 128.223 333.026 128.636 333.026H129.098V332.374H128.842C128.694 332.374 128.619 332.316 128.619 332.126V330.484C128.619 329.535 128.091 328.949 127.109 328.949C126.218 328.949 125.624 329.453 125.384 329.865L125.871 330.369C126.078 329.931 126.457 329.601 127.027 329.601C127.654 329.601 127.877 329.948 127.901 330.418L126.457 331.062C125.888 331.318 125.483 331.656 125.483 332.193C125.483 332.721 125.863 333.109 126.54 333.109ZM126.21 332.077C126.21 331.829 126.383 331.664 126.763 331.483L127.926 330.938V331.491C127.926 332.069 127.448 332.514 126.771 332.514C126.399 332.514 126.21 332.349 126.21 332.077ZM131.609 333.026L133.061 329.032H132.294L131.51 331.4L131.171 332.498L130.825 331.4L130.033 329.032H129.257L130.701 333.026H131.609ZM134.371 328.388V327.497H133.653V328.388H134.371ZM134.371 333.026V329.032H133.653V333.026H134.371ZM136.168 333.026V330.765C136.168 330.096 136.448 329.56 137.216 329.56C137.892 329.56 138.099 329.923 138.099 330.443V333.026H138.809V330.27C138.809 329.42 138.322 328.949 137.538 328.949C136.754 328.949 136.325 329.477 136.168 330.096V329.032H135.45V333.026H136.168ZM141.386 331.805C142.326 331.805 142.962 331.21 142.962 330.377C142.962 329.882 142.731 329.461 142.351 329.213L143.086 328.388L142.343 328.124L142.095 329.081C141.889 328.999 141.65 328.949 141.386 328.949C140.445 328.949 139.809 329.543 139.809 330.377C139.809 330.88 140.04 331.301 140.436 331.549C140.049 331.862 139.809 332.209 139.809 332.523C139.809 332.787 139.941 332.976 140.197 333.059C139.892 333.183 139.553 333.406 139.553 333.777C139.553 334.305 140.197 334.643 141.22 334.643C142.566 334.643 143.308 334.107 143.308 333.348C143.308 332.745 142.854 332.457 142.128 332.457H140.923C140.511 332.457 140.395 332.349 140.395 332.135C140.395 331.961 140.511 331.772 140.61 331.64C140.833 331.747 141.097 331.805 141.386 331.805ZM141.386 331.252C140.89 331.252 140.503 330.922 140.503 330.377C140.503 329.832 140.89 329.502 141.386 329.502C141.889 329.502 142.269 329.832 142.269 330.377C142.269 330.922 141.889 331.252 141.386 331.252ZM141.22 334.074C140.503 334.074 140.131 333.876 140.131 333.554C140.131 333.364 140.271 333.191 140.403 333.076H142.037C142.442 333.076 142.64 333.191 142.64 333.447C142.64 333.843 142.128 334.074 141.22 334.074ZM145.455 333.109C146.231 333.109 146.908 332.754 146.908 331.961C146.908 331.409 146.61 331.037 145.711 330.823L145.199 330.691C144.655 330.559 144.391 330.435 144.391 330.08C144.391 329.742 144.688 329.56 145.1 329.56C145.67 329.56 146.049 329.857 146.247 330.327L146.792 329.923C146.569 329.395 145.983 328.949 145.142 328.949C144.275 328.949 143.714 329.395 143.714 330.121C143.714 330.856 144.333 331.128 144.902 331.26L145.43 331.384C145.901 331.491 146.264 331.607 146.264 331.97C146.264 332.325 145.95 332.506 145.48 332.506C144.688 332.506 144.25 332.052 144.11 331.598L143.59 332.003C143.862 332.745 144.622 333.109 145.455 333.109ZM150.271 334.561V331.994C150.411 332.597 150.791 333.109 151.558 333.109C152.565 333.109 153.192 332.283 153.192 331.021C153.192 329.758 152.565 328.941 151.558 328.941C150.791 328.941 150.411 329.453 150.271 330.055V329.032H149.553V334.561H150.271ZM150.271 331.309V330.74C150.271 330.08 150.552 329.543 151.311 329.543C151.946 329.543 152.466 330.006 152.466 331.021C152.466 332.044 151.946 332.506 151.311 332.506C150.552 332.506 150.271 331.97 150.271 331.309ZM154.776 333.026V327.497H154.058V333.026H154.776ZM156.68 333.109C157.506 333.109 157.935 332.514 158.067 331.986V332.267C158.067 332.828 158.364 333.026 158.777 333.026H159.239V332.374H158.983C158.834 332.374 158.76 332.316 158.76 332.126V330.484C158.76 329.535 158.232 328.949 157.25 328.949C156.359 328.949 155.764 329.453 155.525 329.865L156.012 330.369C156.218 329.931 156.598 329.601 157.167 329.601C157.794 329.601 158.017 329.948 158.042 330.418L156.598 331.062C156.028 331.318 155.624 331.656 155.624 332.193C155.624 332.721 156.004 333.109 156.68 333.109ZM156.35 332.077C156.35 331.829 156.524 331.664 156.903 331.483L158.067 330.938V331.491C158.067 332.069 157.588 332.514 156.911 332.514C156.54 332.514 156.35 332.349 156.35 332.077ZM160.788 333.026V330.765C160.788 330.096 161.069 329.56 161.836 329.56C162.513 329.56 162.719 329.923 162.719 330.443V333.026H163.429V330.27C163.429 329.42 162.942 328.949 162.158 328.949C161.374 328.949 160.945 329.477 160.788 330.096V329.032H160.07V333.026H160.788Z" fill="#3D0072"/>
<g clip-path="url(#clip2_1_7963)">
<g filter="url(#filter0_d_1_7963)">
<rect x="72.6807" y="348.962" width="216.921" height="90.7766" rx="4.21366" fill="#FFFAF0"/>
</g>
<rect x="89.2456" y="365.06" width="31.1814" height="28.426" rx="2.75542" fill="#FBBF24"/>
<path d="M100.981 384.919C100.656 384.919 100.379 384.804 100.148 384.573C99.9173 384.342 99.8018 384.064 99.8018 383.74V377.846C99.8018 377.521 99.9173 377.244 100.148 377.013C100.379 376.782 100.656 376.667 100.981 376.667H101.57V375.488C101.57 374.672 101.858 373.977 102.433 373.402C103.007 372.828 103.702 372.54 104.517 372.54C105.333 372.54 106.028 372.828 106.603 373.402C107.177 373.977 107.465 374.672 107.465 375.488V376.667H108.054C108.378 376.667 108.656 376.782 108.887 377.013C109.118 377.244 109.233 377.521 109.233 377.846V383.74C109.233 384.064 109.118 384.342 108.887 384.573C108.656 384.804 108.378 384.919 108.054 384.919H100.981ZM104.517 381.972C104.842 381.972 105.119 381.856 105.35 381.626C105.581 381.395 105.696 381.117 105.696 380.793C105.696 380.469 105.581 380.191 105.35 379.96C105.119 379.729 104.842 379.614 104.517 379.614C104.193 379.614 103.916 379.729 103.685 379.96C103.454 380.191 103.339 380.469 103.339 380.793C103.339 381.117 103.454 381.395 103.685 381.626C103.916 381.856 104.193 381.972 104.517 381.972ZM102.749 376.667H106.286V375.488C106.286 374.996 106.114 374.579 105.77 374.235C105.426 373.891 105.009 373.719 104.517 373.719C104.026 373.719 103.609 373.891 103.265 374.235C102.921 374.579 102.749 374.996 102.749 375.488V376.667Z" fill="white"/>
<path d="M137.107 385.617V385.275H134.843V383.778H136.723V383.43H134.843V382.01H137.107V381.668H134.454V385.617H137.107ZM138.758 385.617L139.825 382.788H139.412L138.799 384.509L138.528 385.323L138.245 384.509L137.632 382.788H137.207L138.274 385.617H138.758ZM141.348 385.676C141.949 385.676 142.326 385.387 142.527 385.04L142.291 384.763C142.167 385.04 141.92 385.352 141.348 385.352C140.788 385.352 140.405 384.998 140.381 384.291H142.539C142.544 384.244 142.556 384.173 142.556 384.102C142.556 383.248 142.073 382.729 141.301 382.729C140.534 382.729 140.01 383.283 140.01 384.203C140.01 385.14 140.558 385.676 141.348 385.676ZM141.301 383.047C141.819 383.047 142.167 383.371 142.203 384.008H140.387C140.44 383.371 140.782 383.047 141.301 383.047ZM143.626 385.617V383.979C143.626 383.489 143.962 383.018 144.386 383.018C144.646 383.018 144.752 383.183 144.752 383.366C144.752 383.537 144.681 383.719 144.604 383.808H145.023C145.076 383.713 145.129 383.537 145.129 383.324C145.129 382.935 144.858 382.723 144.528 382.723C144.044 382.723 143.732 383.112 143.626 383.56V382.788H143.237V385.617H143.626ZM145.927 386.613C146.31 386.613 146.587 386.407 146.752 385.953L147.949 382.788H147.542L146.835 384.727L146.628 385.311L146.428 384.727L145.715 382.788H145.302L146.339 385.523L146.558 385.517L146.451 385.8C146.328 386.148 146.163 386.272 145.933 386.272C145.673 386.272 145.514 386.112 145.396 385.883L145.178 386.166C145.284 386.378 145.544 386.613 145.927 386.613ZM149.44 385.676C150.218 385.676 150.766 385.099 150.766 384.203C150.766 383.307 150.218 382.729 149.44 382.729C148.662 382.729 148.12 383.307 148.12 384.203C148.12 385.099 148.662 385.676 149.44 385.676ZM149.44 385.346C148.886 385.346 148.509 384.951 148.509 384.203C148.509 383.448 148.886 383.047 149.44 383.047C150 383.047 150.377 383.448 150.377 384.203C150.377 384.951 150 385.346 149.44 385.346ZM151.835 385.617V383.979C151.835 383.489 152.076 383.053 152.672 383.053C153.161 383.053 153.373 383.336 153.373 383.796V385.617H153.762V383.707C153.762 383.059 153.385 382.729 152.825 382.729C152.259 382.729 151.935 383.118 151.835 383.578V382.788H151.446V385.617H151.835ZM155.739 385.676C156.34 385.676 156.717 385.387 156.918 385.04L156.682 384.763C156.558 385.04 156.311 385.352 155.739 385.352C155.179 385.352 154.796 384.998 154.772 384.291H156.93C156.935 384.244 156.947 384.173 156.947 384.102C156.947 383.248 156.464 382.729 155.692 382.729C154.925 382.729 154.401 383.283 154.401 384.203C154.401 385.14 154.949 385.676 155.739 385.676ZM155.692 383.047C156.21 383.047 156.558 383.371 156.594 384.008H154.778C154.831 383.371 155.173 383.047 155.692 383.047ZM159.324 385.617V383.979C159.324 383.489 159.565 383.053 160.161 383.053C160.65 383.053 160.862 383.336 160.862 383.796V385.617H161.251V383.707C161.251 383.059 160.874 382.729 160.314 382.729C159.748 382.729 159.424 383.118 159.324 383.578V382.788H158.935V385.617H159.324ZM163.228 385.676C163.829 385.676 164.206 385.387 164.407 385.04L164.171 384.763C164.047 385.04 163.8 385.352 163.228 385.352C162.668 385.352 162.285 384.998 162.261 384.291H164.419C164.425 384.244 164.436 384.173 164.436 384.102C164.436 383.248 163.953 382.729 163.181 382.729C162.415 382.729 161.89 383.283 161.89 384.203C161.89 385.14 162.438 385.676 163.228 385.676ZM163.181 383.047C163.7 383.047 164.047 383.371 164.083 384.008H162.267C162.32 383.371 162.662 383.047 163.181 383.047ZM166.359 385.676C166.961 385.676 167.338 385.387 167.538 385.04L167.303 384.763C167.179 385.04 166.931 385.352 166.359 385.352C165.8 385.352 165.416 384.998 165.393 384.291H167.55C167.556 384.244 167.568 384.173 167.568 384.102C167.568 383.248 167.085 382.729 166.312 382.729C165.546 382.729 165.021 383.283 165.021 384.203C165.021 385.14 165.57 385.676 166.359 385.676ZM166.312 383.047C166.831 383.047 167.179 383.371 167.214 384.008H165.399C165.452 383.371 165.794 383.047 166.312 383.047ZM169.32 385.682C169.88 385.682 170.181 385.293 170.269 384.845V385.617H170.652V381.668H170.269V383.566C170.181 383.118 169.88 382.729 169.32 382.729C168.583 382.729 168.141 383.313 168.141 384.203C168.141 385.099 168.583 385.682 169.32 385.682ZM168.536 384.203C168.536 383.413 168.925 383.053 169.438 383.053C170.01 383.053 170.269 383.466 170.269 383.937V384.468C170.269 384.939 170.01 385.358 169.438 385.358C168.925 385.358 168.536 384.998 168.536 384.203ZM172.563 385.676C173.087 385.676 173.547 385.435 173.547 384.892C173.547 384.491 173.311 384.25 172.722 384.102L172.344 384.008C171.932 383.908 171.72 383.802 171.72 383.507C171.72 383.212 171.961 383.053 172.303 383.053C172.745 383.053 173.04 383.265 173.17 383.649L173.464 383.43C173.323 383.03 172.928 382.729 172.327 382.729C171.743 382.729 171.354 383.035 171.354 383.525C171.354 384.032 171.773 384.22 172.179 384.321L172.563 384.409C172.946 384.497 173.199 384.603 173.199 384.898C173.199 385.193 172.952 385.346 172.574 385.346C172.003 385.346 171.649 385.028 171.56 384.645L171.272 384.863C171.443 385.417 171.985 385.676 172.563 385.676ZM176.05 385.676C176.616 385.676 176.981 385.24 177.076 384.833V385.134C177.076 385.494 177.264 385.617 177.547 385.617H177.813V385.27H177.647C177.512 385.27 177.447 385.216 177.447 385.069V383.743C177.447 383.112 177.105 382.729 176.445 382.729C175.844 382.729 175.431 383.065 175.254 383.36L175.525 383.631C175.673 383.318 175.979 383.077 176.404 383.077C176.864 383.077 177.064 383.324 177.064 383.749V383.772L175.991 384.262C175.596 384.438 175.319 384.674 175.319 385.046C175.319 385.423 175.584 385.676 176.05 385.676ZM175.708 384.992C175.708 384.78 175.85 384.639 176.156 384.497L177.076 384.061V384.562C177.076 384.945 176.687 385.352 176.162 385.352C175.885 385.352 175.708 385.228 175.708 384.992ZM178.827 385.617V383.979C178.827 383.489 179.068 383.053 179.664 383.053C180.153 383.053 180.365 383.336 180.365 383.796V385.617H180.754V383.707C180.754 383.059 180.377 382.729 179.817 382.729C179.251 382.729 178.927 383.118 178.827 383.578V382.788H178.437V385.617H178.827ZM184.037 385.676C184.639 385.676 185.016 385.387 185.216 385.04L184.981 384.763C184.857 385.04 184.609 385.352 184.037 385.352C183.477 385.352 183.094 384.998 183.071 384.291H185.228C185.234 384.244 185.246 384.173 185.246 384.102C185.246 383.248 184.763 382.729 183.99 382.729C183.224 382.729 182.699 383.283 182.699 384.203C182.699 385.14 183.248 385.676 184.037 385.676ZM183.99 383.047C184.509 383.047 184.857 383.371 184.892 384.008H183.077C183.13 383.371 183.472 383.047 183.99 383.047ZM186.316 385.617V383.979C186.316 383.489 186.557 383.053 187.058 383.053C187.5 383.053 187.719 383.295 187.719 383.79V385.617H188.102V383.979C188.102 383.489 188.343 383.053 188.85 383.053C189.287 383.053 189.505 383.295 189.505 383.79V385.617H189.894V383.702C189.894 383.053 189.587 382.729 189.045 382.729C188.514 382.729 188.19 383.124 188.096 383.59C188.066 383.018 187.766 382.729 187.253 382.729C186.728 382.729 186.416 383.112 186.316 383.578V382.788H185.927V385.617H186.316ZM191.866 385.676C192.467 385.676 192.845 385.387 193.045 385.04L192.809 384.763C192.686 385.04 192.438 385.352 191.866 385.352C191.306 385.352 190.923 384.998 190.9 384.291H193.057C193.063 384.244 193.075 384.173 193.075 384.102C193.075 383.248 192.591 382.729 191.819 382.729C191.053 382.729 190.528 383.283 190.528 384.203C190.528 385.14 191.076 385.676 191.866 385.676ZM191.819 383.047C192.338 383.047 192.686 383.371 192.721 384.008H190.905C190.958 383.371 191.3 383.047 191.819 383.047ZM194.144 385.617V383.979C194.144 383.489 194.48 383.018 194.905 383.018C195.164 383.018 195.27 383.183 195.27 383.366C195.27 383.537 195.2 383.719 195.123 383.808H195.541C195.594 383.713 195.648 383.537 195.648 383.324C195.648 382.935 195.376 382.723 195.046 382.723C194.563 382.723 194.25 383.112 194.144 383.56V382.788H193.755V385.617H194.144ZM197.126 384.745C197.786 384.745 198.222 384.326 198.222 383.737C198.222 383.389 198.069 383.1 197.803 382.918L198.31 382.31L197.904 382.157L197.674 382.841C197.515 382.77 197.332 382.729 197.126 382.729C196.471 382.729 196.029 383.147 196.029 383.737C196.029 384.097 196.194 384.391 196.465 384.568C196.23 384.751 196.053 384.987 196.053 385.216C196.053 385.387 196.147 385.523 196.342 385.576C196.118 385.664 195.835 385.847 195.835 386.142C195.835 386.531 196.283 386.773 197.002 386.773C197.91 386.773 198.452 386.395 198.452 385.871C198.452 385.458 198.145 385.258 197.65 385.258H196.772C196.465 385.258 196.371 385.163 196.371 385.004C196.371 384.869 196.459 384.721 196.548 384.615C196.713 384.698 196.907 384.745 197.126 384.745ZM197.126 384.444C196.707 384.444 196.406 384.167 196.406 383.737C196.406 383.307 196.707 383.03 197.126 383.03C197.55 383.03 197.851 383.307 197.851 383.737C197.851 384.167 197.55 384.444 197.126 384.444ZM197.002 386.466C196.465 386.466 196.153 386.307 196.153 386.03C196.153 385.847 196.306 385.682 196.448 385.594H197.597C197.933 385.594 198.092 385.694 198.092 385.918C198.092 386.242 197.686 386.466 197.002 386.466ZM200.138 385.676C200.739 385.676 201.117 385.387 201.317 385.04L201.081 384.763C200.958 385.04 200.71 385.352 200.138 385.352C199.578 385.352 199.195 384.998 199.172 384.291H201.329C201.335 384.244 201.347 384.173 201.347 384.102C201.347 383.248 200.863 382.729 200.091 382.729C199.325 382.729 198.8 383.283 198.8 384.203C198.8 385.14 199.348 385.676 200.138 385.676ZM200.091 383.047C200.61 383.047 200.958 383.371 200.993 384.008H199.177C199.23 383.371 199.572 383.047 200.091 383.047ZM202.416 385.617V383.979C202.416 383.489 202.658 383.053 203.253 383.053C203.743 383.053 203.955 383.336 203.955 383.796V385.617H204.344V383.707C204.344 383.059 203.967 382.729 203.407 382.729C202.841 382.729 202.517 383.118 202.416 383.578V382.788H202.027V385.617H202.416ZM206.291 385.676C206.999 385.676 207.441 385.264 207.553 384.692L207.181 384.533C207.122 385.01 206.839 385.352 206.297 385.352C205.737 385.352 205.366 384.951 205.366 384.203C205.366 383.448 205.737 383.047 206.297 383.047C206.839 383.047 207.122 383.395 207.181 383.873L207.553 383.713C207.441 383.142 206.999 382.729 206.297 382.729C205.495 382.729 204.971 383.283 204.971 384.203C204.971 385.122 205.495 385.676 206.291 385.676ZM208.384 386.613C208.767 386.613 209.044 386.407 209.209 385.953L210.406 382.788H209.999L209.292 384.727L209.086 385.311L208.885 384.727L208.172 382.788H207.759L208.797 385.523L209.015 385.517L208.909 385.8C208.785 386.148 208.62 386.272 208.39 386.272C208.131 386.272 207.972 386.112 207.854 385.883L207.636 386.166C207.742 386.378 208.001 386.613 208.384 386.613ZM212.725 385.617V383.089H213.668V382.788H212.725V382.428C212.725 382.086 212.896 381.933 213.173 381.933C213.432 381.933 213.645 382.086 213.762 382.299L213.969 382.016C213.851 381.821 213.58 381.609 213.179 381.609C212.695 381.609 212.342 381.886 212.342 382.458V382.788H211.876V383.089H212.342V385.617H212.725ZM215.081 385.676C215.665 385.676 215.983 385.281 216.083 384.81V385.617H216.466V382.788H216.083V384.421C216.083 384.916 215.847 385.346 215.234 385.346C214.751 385.346 214.539 385.063 214.539 384.609V382.788H214.156V384.692C214.156 385.346 214.527 385.676 215.081 385.676ZM217.682 385.617V383.979C217.682 383.489 217.924 383.053 218.519 383.053C219.009 383.053 219.221 383.336 219.221 383.796V385.617H219.61V383.707C219.61 383.059 219.233 382.729 218.673 382.729C218.107 382.729 217.783 383.118 217.682 383.578V382.788H217.293V385.617H217.682ZM221.416 385.682C221.976 385.682 222.276 385.293 222.365 384.845V385.617H222.748V381.668H222.365V383.566C222.276 383.118 221.976 382.729 221.416 382.729C220.679 382.729 220.237 383.313 220.237 384.203C220.237 385.099 220.679 385.682 221.416 385.682ZM220.632 384.203C220.632 383.413 221.021 383.053 221.534 383.053C222.105 383.053 222.365 383.466 222.365 383.937V384.468C222.365 384.939 222.105 385.358 221.534 385.358C221.021 385.358 220.632 384.998 220.632 384.203ZM223.927 385.617V384.922H223.462V385.617H223.927ZM227.213 385.617L228.044 382.835L228.262 381.998L228.48 382.835L229.311 385.617H229.765L230.909 381.668H230.473L229.718 384.421L229.547 385.252L229.341 384.432L228.516 381.668H228.026L227.189 384.432L226.977 385.252L226.806 384.421L226.069 381.668H225.621L226.759 385.617H227.213ZM232.328 385.676C232.929 385.676 233.307 385.387 233.507 385.04L233.271 384.763C233.148 385.04 232.9 385.352 232.328 385.352C231.768 385.352 231.385 384.998 231.361 384.291H233.519C233.525 384.244 233.537 384.173 233.537 384.102C233.537 383.248 233.053 382.729 232.281 382.729C231.515 382.729 230.99 383.283 230.99 384.203C230.99 385.14 231.538 385.676 232.328 385.676ZM232.281 383.047C232.8 383.047 233.148 383.371 233.183 384.008H231.367C231.42 383.371 231.762 383.047 232.281 383.047ZM235.913 385.617V383.979C235.913 383.489 236.155 383.053 236.656 383.053C237.098 383.053 237.316 383.295 237.316 383.79V385.617H237.699V383.979C237.699 383.489 237.941 383.053 238.448 383.053C238.884 383.053 239.102 383.295 239.102 383.79V385.617H239.491V383.702C239.491 383.053 239.185 382.729 238.642 382.729C238.112 382.729 237.788 383.124 237.693 383.59C237.664 383.018 237.363 382.729 236.85 382.729C236.326 382.729 236.013 383.112 235.913 383.578V382.788H235.524V385.617H235.913ZM240.862 385.676C241.428 385.676 241.793 385.24 241.887 384.833V385.134C241.887 385.494 242.076 385.617 242.359 385.617H242.624V385.27H242.459C242.324 385.27 242.259 385.216 242.259 385.069V383.743C242.259 383.112 241.917 382.729 241.257 382.729C240.655 382.729 240.243 383.065 240.066 383.36L240.337 383.631C240.484 383.318 240.791 383.077 241.215 383.077C241.675 383.077 241.876 383.324 241.876 383.749V383.772L240.803 384.262C240.408 384.438 240.131 384.674 240.131 385.046C240.131 385.423 240.396 385.676 240.862 385.676ZM240.52 384.992C240.52 384.78 240.661 384.639 240.968 384.497L241.887 384.061V384.562C241.887 384.945 241.498 385.352 240.974 385.352C240.697 385.352 240.52 385.228 240.52 384.992ZM243.638 385.617V384.58L244.169 384.079L245.13 385.617H245.601L244.434 383.849L245.577 382.788H245.088L243.992 383.802L243.62 384.167L243.638 383.814V381.668H243.249V385.617H243.638ZM247.168 385.676C247.77 385.676 248.147 385.387 248.347 385.04L248.111 384.763C247.988 385.04 247.74 385.352 247.168 385.352C246.608 385.352 246.225 384.998 246.202 384.291H248.359C248.365 384.244 248.377 384.173 248.377 384.102C248.377 383.248 247.893 382.729 247.121 382.729C246.355 382.729 245.83 383.283 245.83 384.203C245.83 385.14 246.378 385.676 247.168 385.676ZM247.121 383.047C247.64 383.047 247.988 383.371 248.023 384.008H246.207C246.26 383.371 246.602 383.047 247.121 383.047ZM250.753 382.281V381.668H250.364V382.281H250.753ZM250.753 385.617V382.788H250.364V385.617H250.753ZM252.504 385.682C252.87 385.682 253.147 385.511 253.27 385.305L253.135 384.928C253.041 385.128 252.834 385.311 252.581 385.311C252.333 385.311 252.121 385.199 252.121 384.792V383.089H253.07V382.788H252.121V382.092L251.738 382.381V382.788H251.278V383.089H251.738V384.898C251.738 385.411 252.074 385.682 252.504 385.682ZM256.4 385.617C257.644 385.617 258.257 384.892 258.257 383.643C258.257 382.393 257.644 381.668 256.4 381.668H255.097V385.617H256.4ZM256.347 382.01C257.325 382.01 257.862 382.499 257.862 383.643C257.862 384.786 257.325 385.275 256.347 385.275H255.486V382.01H256.347ZM259.383 385.617V381.668H258.994V385.617H259.383ZM262.013 385.617C262.868 385.617 263.346 385.228 263.346 384.562C263.346 384.067 263.057 383.649 262.22 383.56C262.927 383.483 263.169 383.083 263.169 382.67C263.169 382.069 262.774 381.668 261.972 381.668H260.422V385.617H262.013ZM261.848 382.01C262.385 382.01 262.774 382.175 262.774 382.717C262.774 383.254 262.385 383.419 261.831 383.419H260.811V382.01H261.848ZM261.89 383.761C262.497 383.761 262.951 383.985 262.951 384.515C262.951 385.051 262.615 385.275 261.949 385.275H260.811V383.761H261.89ZM264.442 382.281V381.668H264.053V382.281H264.442ZM264.442 385.617V382.788H264.053V385.617H264.442ZM265.657 385.617V384.875C265.751 385.311 266.057 385.682 266.6 385.682C267.342 385.682 267.784 385.099 267.784 384.203C267.784 383.313 267.342 382.729 266.6 382.729C266.057 382.729 265.751 383.1 265.657 383.537V381.668H265.267V385.617H265.657ZM265.657 384.468V383.937C265.657 383.466 265.91 383.053 266.482 383.053C267 383.053 267.39 383.413 267.39 384.203C267.39 384.998 267 385.358 266.482 385.358C265.91 385.358 265.657 384.939 265.657 384.468ZM268.834 385.617V381.668H268.445V385.617H268.834ZM270.844 385.676C271.446 385.676 271.823 385.387 272.023 385.04L271.788 384.763C271.664 385.04 271.416 385.352 270.844 385.352C270.284 385.352 269.901 384.998 269.878 384.291H272.035C272.041 384.244 272.053 384.173 272.053 384.102C272.053 383.248 271.569 382.729 270.797 382.729C270.031 382.729 269.506 383.283 269.506 384.203C269.506 385.14 270.055 385.676 270.844 385.676ZM270.797 383.047C271.316 383.047 271.664 383.371 271.699 384.008H269.884C269.937 383.371 270.279 383.047 270.797 383.047ZM134.949 395.676C135.515 395.676 135.88 395.24 135.975 394.833V395.134C135.975 395.494 136.163 395.617 136.446 395.617H136.712V395.27H136.547C136.411 395.27 136.346 395.216 136.346 395.069V393.743C136.346 393.112 136.004 392.729 135.344 392.729C134.743 392.729 134.33 393.065 134.153 393.36L134.425 393.631C134.572 393.318 134.878 393.077 135.303 393.077C135.763 393.077 135.963 393.324 135.963 393.749V393.772L134.89 394.262C134.495 394.438 134.218 394.674 134.218 395.046C134.218 395.423 134.483 395.676 134.949 395.676ZM134.607 394.992C134.607 394.78 134.749 394.639 135.055 394.497L135.975 394.061V394.562C135.975 394.945 135.586 395.352 135.061 395.352C134.784 395.352 134.607 395.228 134.607 394.992ZM137.726 395.617V393.979C137.726 393.489 137.967 393.053 138.563 393.053C139.052 393.053 139.264 393.336 139.264 393.796V395.617H139.653V393.707C139.653 393.059 139.276 392.729 138.716 392.729C138.15 392.729 137.826 393.118 137.726 393.578V392.788H137.337V395.617H137.726ZM141.459 395.682C142.019 395.682 142.32 395.293 142.408 394.845V395.617H142.791V391.668H142.408V393.566C142.32 393.118 142.019 392.729 141.459 392.729C140.722 392.729 140.28 393.313 140.28 394.203C140.28 395.099 140.722 395.682 141.459 395.682ZM140.675 394.203C140.675 393.413 141.064 393.053 141.577 393.053C142.149 393.053 142.408 393.466 142.408 393.937V394.468C142.408 394.939 142.149 395.358 141.577 395.358C141.064 395.358 140.675 394.998 140.675 394.203ZM145.466 395.676C146.032 395.676 146.397 395.24 146.492 394.833V395.134C146.492 395.494 146.68 395.617 146.963 395.617H147.229V395.27H147.064C146.928 395.27 146.863 395.216 146.863 395.069V393.743C146.863 393.112 146.521 392.729 145.861 392.729C145.26 392.729 144.847 393.065 144.67 393.36L144.942 393.631C145.089 393.318 145.395 393.077 145.82 393.077C146.28 393.077 146.48 393.324 146.48 393.749V393.772L145.407 394.262C145.012 394.438 144.735 394.674 144.735 395.046C144.735 395.423 145 395.676 145.466 395.676ZM145.124 394.992C145.124 394.78 145.266 394.639 145.572 394.497L146.492 394.061V394.562C146.492 394.945 146.103 395.352 145.578 395.352C145.301 395.352 145.124 395.228 145.124 394.992ZM148.761 395.676C149.345 395.676 149.663 395.281 149.763 394.81V395.617H150.147V392.788H149.763V394.421C149.763 394.916 149.528 395.346 148.915 395.346C148.431 395.346 148.219 395.063 148.219 394.609V392.788H147.836V394.692C147.836 395.346 148.207 395.676 148.761 395.676ZM151.813 395.682C152.178 395.682 152.455 395.511 152.579 395.305L152.443 394.928C152.349 395.128 152.143 395.311 151.889 395.311C151.642 395.311 151.43 395.199 151.43 394.792V393.089H152.379V392.788H151.43V392.092L151.046 392.381V392.788H150.587V393.089H151.046V394.898C151.046 395.411 151.382 395.682 151.813 395.682ZM154.016 395.676C154.795 395.676 155.343 395.099 155.343 394.203C155.343 393.307 154.795 392.729 154.016 392.729C153.238 392.729 152.696 393.307 152.696 394.203C152.696 395.099 153.238 395.676 154.016 395.676ZM154.016 395.346C153.462 395.346 153.085 394.951 153.085 394.203C153.085 393.448 153.462 393.047 154.016 393.047C154.576 393.047 154.954 393.448 154.954 394.203C154.954 394.951 154.576 395.346 154.016 395.346ZM156.411 395.617V393.979C156.411 393.489 156.653 393.053 157.154 393.053C157.596 393.053 157.814 393.295 157.814 393.79V395.617H158.197V393.979C158.197 393.489 158.439 393.053 158.946 393.053C159.382 393.053 159.6 393.295 159.6 393.79V395.617H159.989V393.702C159.989 393.053 159.682 392.729 159.14 392.729C158.61 392.729 158.285 393.124 158.191 393.59C158.162 393.018 157.861 392.729 157.348 392.729C156.824 392.729 156.511 393.112 156.411 393.578V392.788H156.022V395.617H156.411ZM161.36 395.676C161.926 395.676 162.291 395.24 162.385 394.833V395.134C162.385 395.494 162.574 395.617 162.857 395.617H163.122V395.27H162.957C162.821 395.27 162.757 395.216 162.757 395.069V393.743C162.757 393.112 162.415 392.729 161.755 392.729C161.153 392.729 160.741 393.065 160.564 393.36L160.835 393.631C160.982 393.318 161.289 393.077 161.713 393.077C162.173 393.077 162.374 393.324 162.374 393.749V393.772L161.301 394.262C160.906 394.438 160.629 394.674 160.629 395.046C160.629 395.423 160.894 395.676 161.36 395.676ZM161.018 394.992C161.018 394.78 161.159 394.639 161.466 394.497L162.385 394.061V394.562C162.385 394.945 161.996 395.352 161.472 395.352C161.195 395.352 161.018 395.228 161.018 394.992ZM164.586 395.682C164.952 395.682 165.229 395.511 165.352 395.305L165.217 394.928C165.123 395.128 164.916 395.311 164.663 395.311C164.415 395.311 164.203 395.199 164.203 394.792V393.089H165.152V392.788H164.203V392.092L163.82 392.381V392.788H163.36V393.089H163.82V394.898C163.82 395.411 164.156 395.682 164.586 395.682ZM166.266 392.281V391.668H165.877V392.281H166.266ZM166.266 395.617V392.788H165.877V395.617H166.266ZM168.247 395.676C168.954 395.676 169.396 395.264 169.508 394.692L169.137 394.533C169.078 395.01 168.795 395.352 168.253 395.352C167.693 395.352 167.321 394.951 167.321 394.203C167.321 393.448 167.693 393.047 168.253 393.047C168.795 393.047 169.078 393.395 169.137 393.873L169.508 393.713C169.396 393.142 168.954 392.729 168.253 392.729C167.451 392.729 166.927 393.283 166.927 394.203C166.927 395.122 167.451 395.676 168.247 395.676ZM170.508 395.617V394.922H170.042V395.617H170.508Z" fill="#3D0072"/>
<rect x="133.984" y="403.462" width="65.5783" height="22.147" rx="11.0735" fill="#FBBF24"/>
<path d="M148.539 417.642C148.171 417.642 147.841 417.585 147.549 417.472C147.257 417.359 147.009 417.194 146.806 416.977C146.603 416.755 146.448 416.486 146.339 416.17C146.231 415.854 146.177 415.491 146.177 415.081C146.177 414.671 146.238 414.308 146.361 413.992C146.488 413.676 146.66 413.409 146.877 413.192C147.094 412.971 147.348 412.803 147.641 412.69C147.933 412.577 148.247 412.52 148.582 412.52C148.784 412.52 148.968 412.537 149.133 412.57C149.298 412.598 149.442 412.631 149.565 412.669C149.687 412.707 149.789 412.747 149.869 412.789C149.949 412.832 150.006 412.862 150.039 412.881L149.777 413.61C149.664 413.539 149.501 413.473 149.289 413.412C149.081 413.346 148.855 413.313 148.61 413.313C148.398 413.313 148.2 413.35 148.016 413.426C147.832 413.496 147.671 413.605 147.535 413.751C147.403 413.897 147.299 414.081 147.224 414.303C147.148 414.524 147.11 414.781 147.11 415.074C147.11 415.333 147.139 415.571 147.195 415.788C147.257 416.005 147.348 416.194 147.471 416.354C147.594 416.51 147.749 416.632 147.938 416.722C148.127 416.807 148.353 416.849 148.617 416.849C148.933 416.849 149.19 416.819 149.388 416.757C149.586 416.691 149.739 416.63 149.848 416.573L150.088 417.302C150.032 417.34 149.954 417.377 149.855 417.415C149.761 417.453 149.647 417.491 149.515 417.528C149.383 417.561 149.235 417.587 149.07 417.606C148.905 417.63 148.728 417.642 148.539 417.642ZM152.937 414.607C152.866 414.583 152.767 414.56 152.64 414.536C152.517 414.508 152.373 414.494 152.208 414.494C152.114 414.494 152.012 414.503 151.904 414.522C151.8 414.541 151.727 414.557 151.685 414.572V417.535H150.829V414.013C150.994 413.951 151.199 413.895 151.444 413.843C151.694 413.786 151.97 413.758 152.272 413.758C152.328 413.758 152.394 413.763 152.47 413.772C152.545 413.777 152.621 413.786 152.696 413.801C152.772 413.81 152.845 413.824 152.916 413.843C152.986 413.857 153.043 413.871 153.085 413.885L152.937 414.607ZM153.477 415.703C153.477 415.378 153.524 415.093 153.618 414.847C153.717 414.602 153.847 414.399 154.007 414.239C154.167 414.074 154.351 413.951 154.559 413.871C154.766 413.786 154.979 413.744 155.195 413.744C155.705 413.744 156.101 413.902 156.384 414.218C156.671 414.534 156.815 415.005 156.815 415.633C156.815 415.68 156.813 415.734 156.808 415.795C156.808 415.852 156.806 415.904 156.801 415.951H154.361C154.384 416.248 154.488 416.479 154.672 416.644C154.861 416.804 155.132 416.885 155.485 416.885C155.693 416.885 155.882 416.866 156.051 416.828C156.226 416.79 156.363 416.75 156.462 416.708L156.575 417.408C156.528 417.432 156.462 417.458 156.377 417.486C156.297 417.509 156.202 417.531 156.094 417.55C155.99 417.573 155.877 417.592 155.754 417.606C155.632 417.62 155.507 417.627 155.379 417.627C155.054 417.627 154.771 417.58 154.531 417.486C154.29 417.387 154.092 417.252 153.936 417.083C153.781 416.908 153.665 416.705 153.59 416.474C153.514 416.239 153.477 415.982 153.477 415.703ZM155.959 415.321C155.959 415.204 155.943 415.093 155.91 414.989C155.877 414.88 155.827 414.789 155.761 414.713C155.7 414.633 155.622 414.572 155.528 414.529C155.438 414.482 155.33 414.458 155.203 414.458C155.07 414.458 154.955 414.484 154.856 414.536C154.757 414.583 154.672 414.647 154.601 414.727C154.535 414.807 154.483 414.899 154.446 415.003C154.408 415.107 154.382 415.213 154.368 415.321H155.959ZM159.024 416.934C159.288 416.934 159.489 416.92 159.626 416.892V415.944C159.578 415.93 159.51 415.916 159.42 415.901C159.331 415.887 159.232 415.88 159.123 415.88C159.029 415.88 158.932 415.887 158.833 415.901C158.739 415.916 158.652 415.942 158.572 415.979C158.496 416.017 158.435 416.071 158.388 416.142C158.34 416.208 158.317 416.293 158.317 416.397C158.317 416.599 158.381 416.741 158.508 416.821C158.635 416.896 158.807 416.934 159.024 416.934ZM158.954 413.744C159.236 413.744 159.475 413.779 159.668 413.85C159.861 413.921 160.015 414.02 160.128 414.147C160.246 414.275 160.328 414.43 160.375 414.614C160.427 414.793 160.453 414.991 160.453 415.208V417.451C160.321 417.479 160.121 417.512 159.852 417.55C159.588 417.592 159.288 417.613 158.954 417.613C158.732 417.613 158.529 417.592 158.345 417.55C158.161 417.507 158.003 417.439 157.871 417.344C157.744 417.25 157.643 417.127 157.567 416.977C157.496 416.826 157.461 416.639 157.461 416.418C157.461 416.206 157.501 416.026 157.581 415.88C157.666 415.734 157.779 415.616 157.921 415.527C158.062 415.432 158.225 415.366 158.409 415.328C158.597 415.286 158.793 415.265 158.996 415.265C159.09 415.265 159.189 415.272 159.293 415.286C159.397 415.295 159.508 415.314 159.626 415.343V415.201C159.626 415.102 159.614 415.008 159.59 414.918C159.567 414.829 159.524 414.751 159.463 414.685C159.406 414.614 159.328 414.56 159.229 414.522C159.135 414.484 159.015 414.466 158.869 414.466C158.671 414.466 158.489 414.48 158.324 414.508C158.159 414.536 158.025 414.569 157.921 414.607L157.815 413.914C157.923 413.876 158.081 413.838 158.289 413.801C158.496 413.763 158.718 413.744 158.954 413.744ZM161.459 412.86L162.315 412.718V413.836H163.63V414.55H162.315V416.057C162.315 416.354 162.362 416.566 162.456 416.694C162.55 416.821 162.711 416.885 162.937 416.885C163.093 416.885 163.23 416.868 163.347 416.835C163.47 416.802 163.567 416.771 163.637 416.743L163.779 417.422C163.68 417.465 163.55 417.507 163.39 417.55C163.23 417.597 163.041 417.62 162.824 417.62C162.56 417.62 162.338 417.585 162.159 417.514C161.985 417.443 161.845 417.342 161.742 417.21C161.638 417.073 161.565 416.911 161.522 416.722C161.48 416.529 161.459 416.309 161.459 416.064V412.86ZM164.19 415.703C164.19 415.378 164.238 415.093 164.332 414.847C164.431 414.602 164.561 414.399 164.721 414.239C164.881 414.074 165.065 413.951 165.273 413.871C165.48 413.786 165.692 413.744 165.909 413.744C166.419 413.744 166.815 413.902 167.098 414.218C167.385 414.534 167.529 415.005 167.529 415.633C167.529 415.68 167.527 415.734 167.522 415.795C167.522 415.852 167.52 415.904 167.515 415.951H165.075C165.098 416.248 165.202 416.479 165.386 416.644C165.575 416.804 165.846 416.885 166.199 416.885C166.407 416.885 166.595 416.866 166.765 416.828C166.94 416.79 167.076 416.75 167.175 416.708L167.289 417.408C167.241 417.432 167.175 417.458 167.091 417.486C167.01 417.509 166.916 417.531 166.808 417.55C166.704 417.573 166.591 417.592 166.468 417.606C166.346 417.62 166.221 417.627 166.093 417.627C165.768 417.627 165.485 417.58 165.244 417.486C165.004 417.387 164.806 417.252 164.65 417.083C164.495 416.908 164.379 416.705 164.304 416.474C164.228 416.239 164.19 415.982 164.19 415.703ZM166.673 415.321C166.673 415.204 166.657 415.093 166.624 414.989C166.591 414.88 166.541 414.789 166.475 414.713C166.414 414.633 166.336 414.572 166.242 414.529C166.152 414.482 166.044 414.458 165.916 414.458C165.784 414.458 165.669 414.484 165.57 414.536C165.471 414.583 165.386 414.647 165.315 414.727C165.249 414.807 165.197 414.899 165.16 415.003C165.122 415.107 165.096 415.213 165.082 415.321H166.673ZM171.389 416.934C171.653 416.934 171.854 416.92 171.99 416.892V415.944C171.943 415.93 171.875 415.916 171.785 415.901C171.696 415.887 171.597 415.88 171.488 415.88C171.394 415.88 171.297 415.887 171.198 415.901C171.104 415.916 171.017 415.942 170.936 415.979C170.861 416.017 170.8 416.071 170.752 416.142C170.705 416.208 170.682 416.293 170.682 416.397C170.682 416.599 170.745 416.741 170.873 416.821C171 416.896 171.172 416.934 171.389 416.934ZM171.318 413.744C171.601 413.744 171.839 413.779 172.033 413.85C172.226 413.921 172.379 414.02 172.493 414.147C172.61 414.275 172.693 414.43 172.74 414.614C172.792 414.793 172.818 414.991 172.818 415.208V417.451C172.686 417.479 172.485 417.512 172.217 417.55C171.953 417.592 171.653 417.613 171.318 417.613C171.097 417.613 170.894 417.592 170.71 417.55C170.526 417.507 170.368 417.439 170.236 417.344C170.109 417.25 170.007 417.127 169.932 416.977C169.861 416.826 169.826 416.639 169.826 416.418C169.826 416.206 169.866 416.026 169.946 415.88C170.031 415.734 170.144 415.616 170.286 415.527C170.427 415.432 170.59 415.366 170.774 415.328C170.962 415.286 171.158 415.265 171.361 415.265C171.455 415.265 171.554 415.272 171.658 415.286C171.762 415.295 171.872 415.314 171.99 415.343V415.201C171.99 415.102 171.979 415.008 171.955 414.918C171.931 414.829 171.889 414.751 171.828 414.685C171.771 414.614 171.693 414.56 171.594 414.522C171.5 414.484 171.38 414.466 171.233 414.466C171.035 414.466 170.854 414.48 170.689 414.508C170.524 414.536 170.389 414.569 170.286 414.607L170.18 413.914C170.288 413.876 170.446 413.838 170.653 413.801C170.861 413.763 171.083 413.744 171.318 413.744ZM176.451 416.8C176.503 416.804 176.571 416.809 176.656 416.814C176.741 416.814 176.856 416.814 177.002 416.814C177.601 416.814 178.047 416.663 178.339 416.361C178.636 416.055 178.785 415.628 178.785 415.081C178.785 414.524 178.641 414.098 178.353 413.801C178.066 413.504 177.62 413.355 177.017 413.355C176.753 413.355 176.564 413.362 176.451 413.376V416.8ZM179.719 415.081C179.719 415.505 179.653 415.875 179.521 416.191C179.389 416.503 179.2 416.764 178.955 416.977C178.714 417.184 178.422 417.34 178.078 417.443C177.738 417.542 177.361 417.592 176.946 417.592C176.748 417.592 176.524 417.583 176.274 417.564C176.024 417.55 175.786 417.517 175.559 417.465V412.704C175.786 412.652 176.026 412.619 176.281 412.605C176.536 412.591 176.762 412.584 176.96 412.584C177.37 412.584 177.745 412.633 178.085 412.732C178.424 412.827 178.714 412.978 178.955 413.185C179.2 413.388 179.389 413.647 179.521 413.963C179.653 414.275 179.719 414.647 179.719 415.081ZM180.692 412.633H181.583V417.535H180.692V412.633ZM184.236 417.592C183.976 417.592 183.715 417.583 183.45 417.564C183.186 417.55 182.955 417.517 182.757 417.465V412.704C182.861 412.685 182.972 412.669 183.09 412.655C183.208 412.636 183.328 412.622 183.45 412.612C183.573 412.603 183.693 412.596 183.811 412.591C183.934 412.586 184.049 412.584 184.158 412.584C184.455 412.584 184.731 412.608 184.985 412.655C185.24 412.697 185.459 412.77 185.643 412.874C185.832 412.978 185.978 413.114 186.082 413.284C186.186 413.454 186.237 413.664 186.237 413.914C186.237 414.145 186.181 414.343 186.068 414.508C185.959 414.673 185.806 414.805 185.608 414.904C185.905 415.003 186.124 415.149 186.266 415.343C186.407 415.536 186.478 415.781 186.478 416.078C186.478 416.583 186.294 416.962 185.926 417.217C185.558 417.467 184.995 417.592 184.236 417.592ZM183.634 415.328V416.821C183.733 416.83 183.84 416.837 183.953 416.842C184.066 416.847 184.17 416.849 184.264 416.849C184.448 416.849 184.618 416.837 184.773 416.814C184.934 416.79 185.07 416.75 185.184 416.694C185.301 416.632 185.393 416.552 185.459 416.453C185.53 416.354 185.565 416.227 185.565 416.071C185.565 415.793 185.464 415.6 185.261 415.491C185.059 415.383 184.778 415.328 184.42 415.328H183.634ZM183.634 414.628H184.264C184.603 414.628 184.87 414.581 185.063 414.487C185.257 414.388 185.353 414.213 185.353 413.963C185.353 413.727 185.252 413.56 185.049 413.461C184.851 413.362 184.592 413.313 184.271 413.313C184.134 413.313 184.012 413.315 183.903 413.32C183.799 413.324 183.71 413.331 183.634 413.341V414.628Z" fill="white"/>
<path d="M136.992 374.06C138.953 374.06 140 372.852 140 370.9C140 368.948 138.944 367.741 136.992 367.741H134.605V374.06H136.992ZM136.859 368.684C138.17 368.684 138.887 369.316 138.887 370.9C138.887 372.485 138.17 373.117 136.869 373.117H135.671V368.684H136.859ZM142.063 374.06V367.741H140.997V374.06H142.063ZM146.295 374.06C147.653 374.06 148.492 373.503 148.492 372.381C148.492 371.532 147.983 370.891 146.55 370.778C147.568 370.693 148.228 370.193 148.228 369.353C148.228 368.42 147.625 367.741 146.342 367.741H143.475V374.06H146.295ZM146.021 368.684C146.682 368.684 147.125 368.891 147.125 369.533C147.125 370.174 146.691 370.372 146.059 370.372H144.541V368.684H146.021ZM146.163 371.268C146.898 371.268 147.398 371.551 147.398 372.192C147.398 372.834 147.002 373.117 146.135 373.117H144.541V371.268H146.163Z" fill="#3D0072"/>
<rect x="157.825" y="366.483" width="23.1539" height="9.15394" rx="4.57697" fill="#FEEAB9"/>
<path d="M163.509 372.06V368.993H163.175C163.029 369.195 162.809 369.268 162.562 369.268V369.542H163.111V372.06H163.509ZM166.178 372.06V371.707H164.91L164.535 371.735L164.864 371.456L165.34 371.007C165.62 370.742 166.1 370.284 166.1 369.78C166.1 369.309 165.83 368.947 165.23 368.947C164.526 368.947 164.045 369.433 164.109 370.037L164.48 370.27C164.402 369.661 164.69 369.332 165.203 369.332C165.551 369.332 165.688 369.561 165.688 369.808C165.688 370.147 165.427 370.43 165.093 370.76L164.091 371.748V372.06H166.178ZM167.176 370.334C167.556 370.334 167.84 370.064 167.84 369.643C167.84 369.222 167.556 368.952 167.176 368.952C166.792 368.952 166.508 369.222 166.508 369.643C166.508 370.064 166.792 370.334 167.176 370.334ZM167.08 372.06L169.24 368.993H168.824L166.663 372.06H167.08ZM167.176 370.041C166.961 370.041 166.833 369.886 166.833 369.643C166.833 369.396 166.961 369.24 167.176 369.24C167.391 369.24 167.524 369.396 167.524 369.643C167.524 369.886 167.391 370.041 167.176 370.041ZM168.741 372.06C169.121 372.06 169.405 371.79 169.405 371.369C169.405 370.947 169.121 370.677 168.741 370.677C168.357 370.677 168.073 370.947 168.073 371.369C168.073 371.79 168.357 372.06 168.741 372.06ZM168.741 371.767C168.526 371.767 168.398 371.611 168.398 371.369C168.398 371.121 168.526 370.966 168.741 370.966C168.957 370.966 169.089 371.121 169.089 371.369C169.089 371.611 168.957 371.767 168.741 371.767ZM171.228 372.911V371.488C171.306 371.822 171.516 372.105 171.942 372.105C172.5 372.105 172.848 371.648 172.848 370.947C172.848 370.247 172.5 369.794 171.942 369.794C171.516 369.794 171.306 370.078 171.228 370.412V369.844H170.83V372.911H171.228ZM171.228 371.108V370.792C171.228 370.426 171.384 370.128 171.805 370.128C172.157 370.128 172.446 370.385 172.446 370.947C172.446 371.515 172.157 371.771 171.805 371.771C171.384 371.771 171.228 371.474 171.228 371.108ZM173.718 372.06V371.465H173.238V372.06H173.718ZM174.729 372.105C175.187 372.105 175.425 371.776 175.498 371.483V371.639C175.498 371.95 175.663 372.06 175.892 372.06H176.148V371.698H176.006C175.924 371.698 175.883 371.666 175.883 371.561V370.65C175.883 370.124 175.59 369.799 175.045 369.799C174.551 369.799 174.221 370.078 174.088 370.307L174.358 370.586C174.473 370.343 174.683 370.16 174.999 370.16C175.347 370.16 175.471 370.352 175.484 370.613L174.683 370.97C174.368 371.112 174.143 371.3 174.143 371.597C174.143 371.89 174.354 372.105 174.729 372.105ZM174.546 371.533C174.546 371.396 174.642 371.304 174.853 371.204L175.498 370.902V371.208C175.498 371.529 175.233 371.776 174.857 371.776C174.651 371.776 174.546 371.684 174.546 371.533Z" fill="black"/>
</g>
<g clip-path="url(#clip3_1_7963)">
<g filter="url(#filter1_d_1_7963)">
<rect x="72.6807" y="453.886" width="216.921" height="90.7766" rx="4.21366" fill="#FCEFF3"/>
</g>
</g>
<path opacity="0.35" fill-rule="evenodd" clip-rule="evenodd" d="M283.569 126.049C282.891 126.049 282.622 126.094 282.346 126.224C282.112 126.333 281.93 126.492 281.805 126.697C281.657 126.94 281.605 127.175 281.605 127.769V130.42C281.605 131.014 281.657 131.249 281.805 131.491C281.93 131.696 282.112 131.855 282.346 131.965C282.622 132.095 282.891 132.14 283.569 132.14H293.77C294.448 132.14 294.717 132.095 294.994 131.965C295.227 131.855 295.409 131.696 295.534 131.491C295.682 131.249 295.734 131.014 295.734 130.42V127.769C295.734 127.175 295.682 126.94 295.534 126.697C295.409 126.492 295.227 126.333 294.994 126.224C294.717 126.094 294.448 126.049 293.77 126.049H283.569Z" stroke="black" stroke-width="0.589458"/>
<path opacity="0.4" d="M296.745 127.915V130.273C297.286 130.074 297.638 129.609 297.638 129.094C297.638 128.58 297.286 128.115 296.745 127.915Z" fill="black"/>
<path d="M283.762 126.933H293.572C293.972 126.933 294.117 126.969 294.263 127.038C294.409 127.106 294.524 127.207 294.602 127.335C294.68 127.463 294.722 127.59 294.722 127.941V130.248C294.722 130.598 294.68 130.726 294.602 130.854C294.524 130.982 294.409 131.082 294.263 131.151C294.117 131.219 293.972 131.256 293.572 131.256H283.762C283.362 131.256 283.217 131.219 283.071 131.151C282.925 131.082 282.81 130.982 282.732 130.854C282.653 130.726 282.612 130.598 282.612 130.248V127.941C282.612 127.59 282.653 127.463 282.732 127.335C282.81 127.207 282.925 127.106 283.071 127.038C283.217 126.969 283.362 126.933 283.762 126.933Z" fill="black"/>
<path d="M272.743 127.099C274.24 127.099 275.679 127.602 276.764 128.505C276.846 128.575 276.976 128.574 277.057 128.503L277.838 127.813C277.878 127.778 277.901 127.729 277.901 127.678C277.9 127.628 277.877 127.579 277.836 127.544C274.989 125.155 270.497 125.155 267.65 127.544C267.609 127.579 267.585 127.628 267.585 127.678C267.585 127.729 267.607 127.777 267.648 127.813L268.429 128.503C268.509 128.574 268.64 128.575 268.722 128.505C269.807 127.602 271.246 127.099 272.743 127.099ZM272.743 129.343C273.565 129.343 274.358 129.611 274.968 130.094C275.051 130.163 275.18 130.161 275.261 130.091L276.041 129.401C276.082 129.365 276.105 129.316 276.104 129.265C276.103 129.214 276.079 129.165 276.038 129.129C274.181 127.618 271.307 127.618 269.45 129.129C269.408 129.165 269.384 129.214 269.384 129.265C269.383 129.316 269.406 129.365 269.447 129.401L270.227 130.091C270.307 130.161 270.437 130.163 270.52 130.094C271.129 129.611 271.921 129.344 272.743 129.343ZM274.242 130.99C274.284 130.954 274.307 130.905 274.305 130.853C274.304 130.802 274.279 130.754 274.236 130.72C273.374 130.082 272.112 130.082 271.251 130.72C271.207 130.754 271.182 130.802 271.181 130.853C271.179 130.905 271.202 130.954 271.244 130.99L272.593 132.182C272.633 132.217 272.687 132.236 272.743 132.236C272.799 132.236 272.853 132.217 272.893 132.182L274.242 130.99Z" fill="black"/>
<path d="M253.454 129.88H254.127C254.498 129.88 254.8 130.144 254.8 130.47V131.649C254.8 131.974 254.498 132.238 254.127 132.238H253.454C253.082 132.238 252.781 131.974 252.781 131.649V130.47C252.781 130.144 253.082 129.88 253.454 129.88ZM256.594 128.701H257.266C257.638 128.701 257.939 128.965 257.939 129.291V131.649C257.939 131.974 257.638 132.238 257.266 132.238H256.594C256.222 132.238 255.921 131.974 255.921 131.649V129.291C255.921 128.965 256.222 128.701 256.594 128.701ZM259.733 127.326H260.406C260.778 127.326 261.079 127.59 261.079 127.915V131.649C261.079 131.974 260.778 132.238 260.406 132.238H259.733C259.362 132.238 259.06 131.974 259.06 131.649V127.915C259.06 127.59 259.362 127.326 259.733 127.326ZM262.873 125.95H263.546C263.917 125.95 264.218 126.214 264.218 126.54V131.649C264.218 131.974 263.917 132.238 263.546 132.238H262.873C262.501 132.238 262.2 131.974 262.2 131.649V126.54C262.2 126.214 262.501 125.95 262.873 125.95Z" fill="black"/>
<path d="M77.4207 126.346C77.5916 126.275 77.7685 126.195 77.9512 126.107C78.1398 126.012 78.3226 125.912 78.4994 125.806C78.6762 125.694 78.8442 125.579 79.0034 125.461C79.1684 125.338 79.3158 125.208 79.4455 125.072H80.365V131.2H79.0476V126.788C78.8708 126.906 78.6733 127.015 78.4552 127.115C78.2371 127.209 78.0249 127.292 77.8186 127.362L77.4207 126.346ZM86.2127 126.682C86.2127 126.906 86.1685 127.121 86.0801 127.327C85.9916 127.533 85.8767 127.734 85.7352 127.928C85.5938 128.117 85.4346 128.3 85.2578 128.476C85.0809 128.653 84.907 128.821 84.7361 128.98C84.6477 129.063 84.5504 129.157 84.4443 129.263C84.3441 129.364 84.2468 129.467 84.1525 129.573C84.0582 129.679 83.9728 129.779 83.8961 129.873C83.8254 129.962 83.7812 130.036 83.7635 130.094H86.3984V131.2H82.3134C82.3016 131.135 82.2957 131.052 82.2957 130.952C82.2957 130.852 82.2957 130.781 82.2957 130.74C82.2957 130.457 82.34 130.198 82.4284 129.962C82.5227 129.726 82.6435 129.508 82.7909 129.308C82.9383 129.101 83.1033 128.91 83.286 128.733C83.4747 128.556 83.6603 128.379 83.8431 128.202C83.9845 128.067 84.1172 127.94 84.241 127.822C84.3647 127.698 84.4738 127.58 84.5681 127.468C84.6624 127.351 84.7361 127.236 84.7892 127.124C84.8422 127.006 84.8687 126.888 84.8687 126.77C84.8687 126.511 84.795 126.328 84.6477 126.222C84.5003 126.116 84.3176 126.063 84.0995 126.063C83.9403 126.063 83.79 126.089 83.6485 126.142C83.513 126.189 83.3862 126.248 83.2683 126.319C83.1564 126.384 83.0591 126.452 82.9766 126.522C82.894 126.587 82.8321 126.64 82.7909 126.682L82.1366 125.762C82.3959 125.52 82.6966 125.323 83.0385 125.17C83.3862 125.01 83.7576 124.931 84.1525 124.931C84.5121 124.931 84.8216 124.972 85.0809 125.055C85.3403 125.137 85.5525 125.255 85.7175 125.408C85.8885 125.556 86.0123 125.738 86.0889 125.956C86.1714 126.169 86.2127 126.41 86.2127 126.682ZM88.7623 127.362C88.7623 127.628 88.6769 127.831 88.5059 127.972C88.3409 128.108 88.1522 128.176 87.94 128.176C87.7278 128.176 87.5363 128.108 87.3653 127.972C87.2003 127.831 87.1177 127.628 87.1177 127.362C87.1177 127.097 87.2003 126.897 87.3653 126.761C87.5363 126.62 87.7278 126.549 87.94 126.549C88.1522 126.549 88.3409 126.62 88.5059 126.761C88.6769 126.897 88.7623 127.097 88.7623 127.362ZM88.7623 130.501C88.7623 130.766 88.6769 130.97 88.5059 131.111C88.3409 131.247 88.1522 131.315 87.94 131.315C87.7278 131.315 87.5363 131.247 87.3653 131.111C87.2003 130.97 87.1177 130.766 87.1177 130.501C87.1177 130.236 87.2003 130.036 87.3653 129.9C87.5363 129.758 87.7278 129.688 87.94 129.688C88.1522 129.688 88.3409 129.758 88.5059 129.9C88.6769 130.036 88.7623 130.236 88.7623 130.501ZM93.75 128.123C93.75 129.154 93.5525 129.947 93.1576 130.501C92.7685 131.049 92.2292 131.323 91.5395 131.323C90.8498 131.323 90.3075 131.049 89.9126 130.501C89.5236 129.947 89.329 129.154 89.329 128.123C89.329 127.61 89.3791 127.156 89.4794 126.761C89.5855 126.366 89.7358 126.033 89.9303 125.762C90.1248 125.491 90.3576 125.284 90.6288 125.143C90.8999 125.002 91.2035 124.931 91.5395 124.931C92.2292 124.931 92.7685 125.208 93.1576 125.762C93.5525 126.31 93.75 127.097 93.75 128.123ZM92.406 128.123C92.406 127.816 92.3913 127.539 92.3618 127.292C92.3323 127.038 92.2852 126.82 92.2203 126.637C92.1555 126.455 92.0671 126.313 91.9551 126.213C91.8431 126.113 91.7046 126.063 91.5395 126.063C91.3745 126.063 91.2359 126.113 91.1239 126.213C91.0178 126.313 90.9294 126.455 90.8587 126.637C90.7938 126.82 90.7467 127.038 90.7172 127.292C90.6877 127.539 90.673 127.816 90.673 128.123C90.673 128.429 90.6877 128.709 90.7172 128.963C90.7467 129.216 90.7938 129.434 90.8587 129.617C90.9294 129.8 91.0178 129.941 91.1239 130.041C91.2359 130.142 91.3745 130.192 91.5395 130.192C91.7046 130.192 91.8431 130.142 91.9551 130.041C92.0671 129.941 92.1555 129.8 92.2203 129.617C92.2852 129.434 92.3323 129.216 92.3618 128.963C92.3913 128.709 92.406 128.429 92.406 128.123ZM98.7753 128.123C98.7753 129.154 98.5779 129.947 98.1829 130.501C97.7939 131.049 97.2545 131.323 96.5649 131.323C95.8752 131.323 95.3329 131.049 94.938 130.501C94.5489 129.947 94.3544 129.154 94.3544 128.123C94.3544 127.61 94.4045 127.156 94.5047 126.761C94.6108 126.366 94.7611 126.033 94.9557 125.762C95.1502 125.491 95.383 125.284 95.6542 125.143C95.9253 125.002 96.2289 124.931 96.5649 124.931C97.2545 124.931 97.7939 125.208 98.1829 125.762C98.5779 126.31 98.7753 127.097 98.7753 128.123ZM97.4314 128.123C97.4314 127.816 97.4166 127.539 97.3872 127.292C97.3577 127.038 97.3105 126.82 97.2457 126.637C97.1809 126.455 97.0924 126.313 96.9804 126.213C96.8684 126.113 96.7299 126.063 96.5649 126.063C96.3998 126.063 96.2613 126.113 96.1493 126.213C96.0432 126.313 95.9548 126.455 95.884 126.637C95.8192 126.82 95.7721 127.038 95.7426 127.292C95.7131 127.539 95.6984 127.816 95.6984 128.123C95.6984 128.429 95.7131 128.709 95.7426 128.963C95.7721 129.216 95.8192 129.434 95.884 129.617C95.9548 129.8 96.0432 129.941 96.1493 130.041C96.2613 130.142 96.3998 130.192 96.5649 130.192C96.7299 130.192 96.8684 130.142 96.9804 130.041C97.0924 129.941 97.1809 129.8 97.2457 129.617C97.3105 129.434 97.3577 129.216 97.3872 128.963C97.4166 128.709 97.4314 128.429 97.4314 128.123Z" fill="black"/>
</g>
<rect x="52.5" y="114.5" width="258" height="564" rx="25.5" stroke="#E8356D" stroke-width="5"/>
<rect x="55" y="40" width="22" height="32" rx="11" fill="#E8356D"/>
<path d="M62.12 53.216C62.4293 53.088 62.7493 52.944 63.08 52.784C63.4213 52.6133 63.752 52.432 64.072 52.24C64.392 52.0373 64.696 51.8293 64.984 51.616C65.2827 51.392 65.5493 51.1573 65.784 50.912H67.448V62H65.064V54.016C64.744 54.2293 64.3867 54.4267 63.992 54.608C63.5973 54.7787 63.2133 54.928 62.84 55.056L62.12 53.216Z" fill="white"/>
<path d="M98.474 61.21C97.746 61.21 97.0927 61.098 96.514 60.874C95.9353 60.65 95.4453 60.3233 95.044 59.894C94.6427 59.4553 94.3347 58.9233 94.12 58.298C93.9053 57.6727 93.798 56.954 93.798 56.142C93.798 55.33 93.9193 54.6113 94.162 53.986C94.414 53.3607 94.7547 52.8333 95.184 52.404C95.6133 51.9653 96.1173 51.634 96.696 51.41C97.2747 51.186 97.8953 51.074 98.558 51.074C98.9593 51.074 99.3233 51.1067 99.65 51.172C99.9767 51.228 100.261 51.2933 100.504 51.368C100.747 51.4427 100.947 51.522 101.106 51.606C101.265 51.69 101.377 51.7507 101.442 51.788L100.924 53.23C100.7 53.09 100.378 52.9593 99.958 52.838C99.5473 52.7073 99.0993 52.642 98.614 52.642C98.194 52.642 97.802 52.7167 97.438 52.866C97.074 53.006 96.7567 53.2207 96.486 53.51C96.2247 53.7993 96.0193 54.1633 95.87 54.602C95.7207 55.0407 95.646 55.5493 95.646 56.128C95.646 56.6413 95.702 57.1127 95.814 57.542C95.9353 57.9713 96.1173 58.3447 96.36 58.662C96.6027 58.97 96.9107 59.2127 97.284 59.39C97.6573 59.558 98.1053 59.642 98.628 59.642C99.2533 59.642 99.762 59.5813 100.154 59.46C100.546 59.3293 100.849 59.208 101.064 59.096L101.54 60.538C101.428 60.6127 101.274 60.6873 101.078 60.762C100.891 60.8367 100.667 60.9113 100.406 60.986C100.145 61.0513 99.8507 61.1027 99.524 61.14C99.1973 61.1867 98.8473 61.21 98.474 61.21ZM105.764 51.2C107.164 51.2 108.232 51.4567 108.97 51.97C109.716 52.4833 110.09 53.2673 110.09 54.322C110.09 55.638 109.441 56.5293 108.144 56.996C108.321 57.2107 108.522 57.472 108.746 57.78C108.97 58.088 109.198 58.424 109.432 58.788C109.665 59.1427 109.889 59.5113 110.104 59.894C110.318 60.2673 110.51 60.636 110.678 61H108.704C108.526 60.664 108.335 60.328 108.13 59.992C107.924 59.6467 107.714 59.3153 107.5 58.998C107.294 58.6713 107.089 58.368 106.884 58.088C106.678 57.7987 106.487 57.542 106.31 57.318C106.179 57.3273 106.067 57.332 105.974 57.332C105.88 57.332 105.792 57.332 105.708 57.332H104.854V61H103.09V51.438C103.519 51.3447 103.976 51.284 104.462 51.256C104.947 51.2187 105.381 51.2 105.764 51.2ZM105.89 52.726C105.516 52.726 105.171 52.74 104.854 52.768V55.904H105.624C106.053 55.904 106.431 55.8807 106.758 55.834C107.084 55.7873 107.355 55.7033 107.57 55.582C107.794 55.4607 107.962 55.2973 108.074 55.092C108.186 54.8867 108.242 54.6253 108.242 54.308C108.242 54.0093 108.186 53.7573 108.074 53.552C107.962 53.3467 107.798 53.1833 107.584 53.062C107.378 52.9407 107.131 52.8567 106.842 52.81C106.552 52.754 106.235 52.726 105.89 52.726ZM112.045 61V51.298H118.275V52.796H113.809V55.19H117.785V56.66H113.809V59.502H118.611V61H112.045ZM126.893 61C126.762 60.6173 126.627 60.2393 126.487 59.866C126.347 59.4927 126.212 59.11 126.081 58.718H121.993C121.862 59.11 121.727 59.4973 121.587 59.88C121.456 60.2533 121.326 60.6267 121.195 61H119.361C119.725 59.964 120.07 59.0073 120.397 58.13C120.724 57.2527 121.041 56.422 121.349 55.638C121.666 54.854 121.979 54.1073 122.287 53.398C122.595 52.6887 122.912 51.9887 123.239 51.298H124.905C125.232 51.9887 125.549 52.6887 125.857 53.398C126.165 54.1073 126.473 54.854 126.781 55.638C127.098 56.422 127.42 57.2527 127.747 58.13C128.083 59.0073 128.433 59.964 128.797 61H126.893ZM124.037 53.174C123.822 53.6687 123.575 54.2707 123.295 54.98C123.024 55.6893 122.74 56.4593 122.441 57.29H125.633C125.334 56.4593 125.045 55.6847 124.765 54.966C124.485 54.2473 124.242 53.65 124.037 53.174ZM135.992 51.298V52.824H133.01V61H131.232V52.824H128.25V51.298H135.992ZM137.338 61V51.298H143.568V52.796H139.102V55.19H143.078V56.66H139.102V59.502H143.904V61H137.338ZM155.248 61C155.118 60.6173 154.982 60.2393 154.842 59.866C154.702 59.4927 154.567 59.11 154.436 58.718H150.348C150.218 59.11 150.082 59.4973 149.942 59.88C149.812 60.2533 149.681 60.6267 149.55 61H147.716C148.08 59.964 148.426 59.0073 148.752 58.13C149.079 57.2527 149.396 56.422 149.704 55.638C150.022 54.854 150.334 54.1073 150.642 53.398C150.95 52.6887 151.268 51.9887 151.594 51.298H153.26C153.587 51.9887 153.904 52.6887 154.212 53.398C154.52 54.1073 154.828 54.854 155.136 55.638C155.454 56.422 155.776 57.2527 156.102 58.13C156.438 59.0073 156.788 59.964 157.152 61H155.248ZM152.392 53.174C152.178 53.6687 151.93 54.2707 151.65 54.98C151.38 55.6893 151.095 56.4593 150.796 57.29H153.988C153.69 56.4593 153.4 55.6847 153.12 54.966C152.84 54.2473 152.598 53.65 152.392 53.174ZM164.39 51.2C165.8 51.2 166.878 51.4567 167.624 51.97C168.38 52.4833 168.758 53.286 168.758 54.378C168.758 54.9473 168.656 55.4373 168.45 55.848C168.254 56.2493 167.965 56.5807 167.582 56.842C167.2 57.094 166.733 57.2807 166.182 57.402C165.632 57.5233 165.002 57.584 164.292 57.584H163.41V61H161.646V51.438C162.057 51.3447 162.51 51.284 163.004 51.256C163.508 51.2187 163.97 51.2 164.39 51.2ZM164.516 52.726C164.068 52.726 163.7 52.74 163.41 52.768V56.072H164.264C165.114 56.072 165.767 55.9553 166.224 55.722C166.682 55.4793 166.91 55.0267 166.91 54.364C166.91 54.0467 166.85 53.7807 166.728 53.566C166.607 53.3513 166.439 53.1833 166.224 53.062C166.01 52.9407 165.753 52.8567 165.454 52.81C165.165 52.754 164.852 52.726 164.516 52.726ZM176.501 59.474V61H170.369V51.298H172.133V59.474H176.501ZM184.643 61C184.512 60.6173 184.377 60.2393 184.237 59.866C184.097 59.4927 183.962 59.11 183.831 58.718H179.743C179.612 59.11 179.477 59.4973 179.337 59.88C179.206 60.2533 179.076 60.6267 178.945 61H177.111C177.475 59.964 177.82 59.0073 178.147 58.13C178.474 57.2527 178.791 56.422 179.099 55.638C179.416 54.854 179.729 54.1073 180.037 53.398C180.345 52.6887 180.662 51.9887 180.989 51.298H182.655C182.982 51.9887 183.299 52.6887 183.607 53.398C183.915 54.1073 184.223 54.854 184.531 55.638C184.848 56.422 185.17 57.2527 185.497 58.13C185.833 59.0073 186.183 59.964 186.547 61H184.643ZM181.787 53.174C181.572 53.6687 181.325 54.2707 181.045 54.98C180.774 55.6893 180.49 56.4593 180.191 57.29H183.383C183.084 56.4593 182.795 55.6847 182.515 54.966C182.235 54.2473 181.992 53.65 181.787 53.174ZM194.311 61C193.994 60.468 193.639 59.8987 193.247 59.292C192.855 58.676 192.449 58.06 192.029 57.444C191.609 56.8187 191.18 56.2167 190.741 55.638C190.312 55.05 189.901 54.5227 189.509 54.056V61H187.773V51.298H189.215C189.589 51.69 189.99 52.1567 190.419 52.698C190.849 53.23 191.278 53.7853 191.707 54.364C192.146 54.9427 192.566 55.526 192.967 56.114C193.378 56.6927 193.742 57.234 194.059 57.738V51.298H195.809V61H194.311Z" fill="black"/>
</g>
<defs>
<filter id="filter0_d_1_7963" x="64.2533" y="344.749" width="233.776" height="107.631" filterUnits="userSpaceOnUse" color-interpolation-filters="sRGB">
<feFlood flood-opacity="0" result="BackgroundImageFix"/>
<feColorMatrix in="SourceAlpha" type="matrix" values="0 0 0 0 0 0 0 0 0 0 0 0 0 0 0 0 0 0 127 0" result="hardAlpha"/>
<feOffset dy="4.21366"/>
<feGaussianBlur stdDeviation="4.21366"/>
<feComposite in2="hardAlpha" operator="out"/>
<feColorMatrix type="matrix" values="0 0 0 0 0.398122 0 0 0 0 0.113021 0 0 0 0 0.645833 0 0 0 0.12 0"/>
<feBlend mode="normal" in2="BackgroundImageFix" result="effect1_dropShadow_1_7963"/>
<feBlend mode="normal" in="SourceGraphic" in2="effect1_dropShadow_1_7963" result="shape"/>
</filter>
<filter id="filter1_d_1_7963" x="64.2533" y="449.672" width="233.776" height="107.631" filterUnits="userSpaceOnUse" color-interpolation-filters="sRGB">
<feFlood flood-opacity="0" result="BackgroundImageFix"/>
<feColorMatrix in="SourceAlpha" type="matrix" values="0 0 0 0 0 0 0 0 0 0 0 0 0 0 0 0 0 0 127 0" result="hardAlpha"/>
<feOffset dy="4.21366"/>
<feGaussianBlur stdDeviation="4.21366"/>
<feComposite in2="hardAlpha" operator="out"/>
<feColorMatrix type="matrix" values="0 0 0 0 0.398122 0 0 0 0 0.113021 0 0 0 0 0.645833 0 0 0 0.12 0"/>
<feBlend mode="normal" in2="BackgroundImageFix" result="effect1_dropShadow_1_7963"/>
<feBlend mode="normal" in="SourceGraphic" in2="effect1_dropShadow_1_7963" result="shape"/>
</filter>
<clipPath id="clip0_1_7963">
<rect width="364" height="458" rx="16" fill="white"/>
</clipPath>
<clipPath id="clip1_1_7963">
<rect width="252.288" height="539.944" fill="white" transform="translate(55 112)"/>
</clipPath>
<clipPath id="clip2_1_7963">
<rect x="72.6802" y="348.962" width="216.921" height="90.7766" rx="4.21366" fill="white"/>
</clipPath>
<clipPath id="clip3_1_7963">
<rect x="72.6802" y="453.886" width="216.921" height="90.7766" rx="4.21366" fill="white"/>
</clipPath>
</defs>
</svg>
