<svg width="364" height="458" viewBox="0 0 364 458" fill="none" xmlns="http://www.w3.org/2000/svg">
<g clip-path="url(#clip0_1_8099)">
<rect width="364" height="458" rx="16" fill="#FAF5FF"/>
<g clip-path="url(#clip1_1_8099)">
<rect x="55" y="117" width="253" height="359" rx="20" fill="white"/>
<path d="M83.0393 251.236C86.255 251.236 88.6667 249.581 88.6667 246.72C88.6667 243.694 86.3968 242.701 83.8668 242.086L82.0935 241.66C80.3674 241.235 79.2797 240.738 79.2797 239.343C79.2797 238.137 80.3674 237.428 81.8807 237.428C83.8195 237.428 85.522 238.279 86.3968 240.242L88.4066 238.326C87.2717 236.151 84.9545 234.945 82.0462 234.945C79.0669 234.945 76.4896 236.553 76.4896 239.532C76.4896 242.535 78.8778 243.552 81.124 244.025L82.6136 244.356C84.6707 244.805 85.9476 245.231 85.9476 246.768C85.9476 248.21 84.6707 248.777 83.0865 248.777C81.1477 248.777 78.7595 247.879 77.9083 245.562L76.0167 247.477C77.2463 250.149 80.0127 251.236 83.0393 251.236ZM96.188 251.236C98.7417 251.236 100.302 250.078 101.177 248.754L99.5456 247.051C99.12 248.021 98.2215 249.061 96.2117 249.061C94.391 249.061 93.1851 247.95 93.0432 245.893H101.272C101.319 245.656 101.366 245.16 101.366 244.734C101.366 241.542 99.451 239.249 95.9989 239.249C92.7595 239.249 90.5132 241.637 90.5132 245.254C90.5132 248.848 92.7595 251.236 96.188 251.236ZM95.9989 241.377C97.7486 241.377 98.7889 242.37 98.9781 244.19H93.0669C93.2797 242.322 94.3674 241.377 95.9989 241.377ZM107.642 251.26C109.321 251.26 110.456 250.48 110.952 249.747L110.125 247.382C109.794 248.044 109.132 248.777 108.233 248.777C107.453 248.777 106.862 248.47 106.862 247.217V241.542H110.385V239.485H106.862V236.411L104.213 238.09V239.485H102.416V241.542H104.213V247.855C104.213 249.889 105.467 251.26 107.642 251.26ZM162.234 251.236C164.646 251.236 165.757 249.439 166.112 247.926V248.777C166.112 250.433 167.081 251 168.311 251H169.942V248.73H169.209C168.784 248.73 168.594 248.565 168.594 248.044V243.717C168.594 240.88 166.987 239.249 164.126 239.249C161.572 239.249 159.775 240.573 158.876 241.802L160.461 243.694C161.123 242.488 162.329 241.589 163.866 241.589C165.45 241.589 165.97 242.37 166.064 243.528L162.21 245.16C160.342 245.893 159.207 246.886 159.207 248.517C159.207 250.172 160.342 251.236 162.234 251.236ZM161.761 248.115C161.761 247.524 162.163 247.122 163.156 246.673L166.112 245.349V246.578C166.112 248.139 164.93 249.179 163.18 249.179C162.21 249.179 161.761 248.777 161.761 248.115ZM174.616 251V244.545C174.616 242.653 175.278 241.4 176.838 241.4C178.399 241.4 179.061 242.204 179.061 243.788V251H181.709V244.545C181.709 242.653 182.371 241.4 183.932 241.4C185.492 241.4 186.154 242.204 186.154 243.788V251H188.803V242.984C188.803 240.596 187.644 239.249 185.445 239.249C183.246 239.249 182.111 240.833 181.709 242.653C181.591 240.478 180.456 239.249 178.351 239.249C176.176 239.249 175.041 240.809 174.616 242.63V239.485H171.967V251H174.616ZM196.326 251.236C199.684 251.236 201.954 248.825 201.954 245.254C201.954 241.66 199.684 239.249 196.326 239.249C193.016 239.249 190.746 241.66 190.746 245.254C190.746 248.825 193.016 251.236 196.326 251.236ZM196.35 249.037C194.647 249.037 193.465 247.903 193.465 245.254C193.465 242.582 194.647 241.447 196.35 241.447C198.076 241.447 199.258 242.582 199.258 245.254C199.258 247.903 198.076 249.037 196.35 249.037ZM207.748 251.236C210.042 251.236 211.224 249.676 211.65 247.855V251H214.321V239.485H211.65V245.94C211.65 247.832 210.988 249.085 209.049 249.085C207.275 249.085 206.802 248.115 206.802 246.697V239.485H204.154V247.501C204.154 249.889 205.526 251.236 207.748 251.236ZM219.758 251V244.545C219.758 242.653 220.42 241.4 222.359 241.4C224.132 241.4 224.605 242.37 224.605 243.788V251H227.277V242.984C227.277 240.596 225.906 239.249 223.659 239.249C221.366 239.249 220.183 240.809 219.758 242.63V239.485H217.11V251H219.758ZM233.856 251.26C235.534 251.26 236.669 250.48 237.166 249.747L236.338 247.382C236.007 248.044 235.345 248.777 234.447 248.777C233.666 248.777 233.075 248.47 233.075 247.217V241.542H236.598V239.485H233.075V236.411L230.427 238.09V239.485H228.63V241.542H230.427V247.855C230.427 249.889 231.68 251.26 233.856 251.26Z" fill="#3D0072"/>
<path d="M123.667 251C128.585 251 131.21 247.973 131.21 243.079C131.21 238.184 128.562 235.158 123.667 235.158H117.685V251H123.667ZM123.336 237.522C126.623 237.522 128.42 239.107 128.42 243.079C128.42 247.051 126.623 248.636 123.36 248.636H120.357V237.522H123.336ZM136.382 251V235.158H133.71V251H136.382ZM146.991 251C150.396 251 152.5 249.605 152.5 246.791C152.5 244.663 151.224 243.055 147.63 242.772C150.183 242.559 151.838 241.306 151.838 239.201C151.838 236.86 150.325 235.158 147.109 235.158H139.921V251H146.991ZM146.306 237.522C147.961 237.522 149.072 238.043 149.072 239.65C149.072 241.258 147.984 241.755 146.4 241.755H142.593V237.522H146.306ZM146.66 244.001C148.504 244.001 149.758 244.71 149.758 246.318C149.758 247.926 148.765 248.636 146.589 248.636H142.593V244.001H146.66Z" fill="#8807F7"/>
<path d="M78.0142 269.893C78.8866 269.893 79.5747 269.439 79.5747 268.609C79.5747 267.737 78.915 267.453 78.1844 267.283L77.624 267.148C77.0069 266.999 76.6593 266.786 76.6593 266.268C76.6593 265.751 77.1204 265.453 77.6949 265.453C78.383 265.453 78.8937 265.765 79.1136 266.432L79.5038 266.119C79.2271 265.403 78.5745 265.013 77.702 265.013C76.9005 265.013 76.1699 265.46 76.1699 266.304C76.1699 267.134 76.8083 267.425 77.4751 267.581L77.9929 267.694C78.7164 267.864 79.1065 268.063 79.1065 268.623C79.1065 269.226 78.5958 269.46 78.0142 269.46C77.3899 269.46 76.6167 269.163 76.3898 268.347L76.028 268.659C76.333 269.539 77.1558 269.893 78.0142 269.893ZM81.8562 269.9C82.5797 269.9 83.0337 269.553 83.2749 269.134L82.9912 268.801C82.8422 269.134 82.5443 269.51 81.8562 269.51C81.1823 269.51 80.7213 269.085 80.6929 268.233H83.2891C83.2962 268.177 83.3104 268.091 83.3104 268.006C83.3104 266.978 82.7287 266.354 81.7995 266.354C80.8773 266.354 80.246 267.02 80.246 268.127C80.246 269.255 80.9057 269.9 81.8562 269.9ZM81.7995 266.737C82.4237 266.737 82.8422 267.127 82.8848 267.893H80.7C80.7638 267.127 81.1752 266.737 81.7995 266.737ZM85.1947 269.907C85.6345 269.907 85.9679 269.702 86.1169 269.453L85.9537 268.999C85.8402 269.241 85.592 269.46 85.2869 269.46C84.989 269.46 84.7337 269.326 84.7337 268.836V266.786H85.8757V266.424H84.7337V265.587L84.2726 265.935V266.424H83.7193V266.786H84.2726V268.964C84.2726 269.581 84.6769 269.907 85.1947 269.907ZM88.7125 269.829V267.857C88.7125 267.269 89.0104 266.744 89.741 266.744C90.3227 266.744 90.5639 267.084 90.5639 267.637V269.829H91.032V267.531C91.032 266.751 90.5922 266.354 89.9325 266.354C89.2374 266.354 88.8331 266.822 88.7125 267.375V265.077H88.2443V269.829H88.7125ZM93.3469 269.9C94.2833 269.9 94.943 269.205 94.943 268.127C94.943 267.049 94.2833 266.354 93.3469 266.354C92.4106 266.354 91.758 267.049 91.758 268.127C91.758 269.205 92.4106 269.9 93.3469 269.9ZM93.3469 269.503C92.6802 269.503 92.2262 269.028 92.2262 268.127C92.2262 267.219 92.6802 266.737 93.3469 266.737C94.0208 266.737 94.4748 267.219 94.4748 268.127C94.4748 269.028 94.0208 269.503 93.3469 269.503ZM96.7711 269.829L97.4946 267.559L97.6932 266.815L97.8848 267.559L98.6083 269.829H99.2112L100.14 266.424H99.6156L99.0623 268.723L98.9062 269.482L98.7005 268.723L97.977 266.424H97.4024L96.6789 268.723L96.4732 269.482L96.3171 268.723L95.7567 266.424H95.2389L96.1681 269.829H96.7711ZM102.782 269.829V267.857C102.782 267.269 103.072 266.744 103.675 266.744C104.207 266.744 104.47 267.035 104.47 267.63V269.829H104.931V267.857C104.931 267.269 105.222 266.744 105.832 266.744C106.357 266.744 106.619 267.035 106.619 267.63V269.829H107.087V267.524C107.087 266.744 106.718 266.354 106.066 266.354C105.427 266.354 105.037 266.829 104.924 267.389C104.888 266.701 104.527 266.354 103.909 266.354C103.278 266.354 102.902 266.815 102.782 267.375V266.424H102.313V269.829H102.782ZM109.142 269.9C109.844 269.9 110.227 269.425 110.347 268.858V269.829H110.809V266.424H110.347V268.389C110.347 268.985 110.064 269.503 109.326 269.503C108.744 269.503 108.489 269.163 108.489 268.616V266.424H108.028V268.716C108.028 269.503 108.475 269.9 109.142 269.9ZM113.18 269.9C114.031 269.9 114.563 269.404 114.698 268.716L114.251 268.524C114.18 269.099 113.84 269.51 113.187 269.51C112.513 269.51 112.067 269.028 112.067 268.127C112.067 267.219 112.513 266.737 113.187 266.737C113.84 266.737 114.18 267.155 114.251 267.73L114.698 267.538C114.563 266.85 114.031 266.354 113.187 266.354C112.223 266.354 111.591 267.02 111.591 268.127C111.591 269.233 112.223 269.9 113.18 269.9ZM115.943 269.829V267.857C115.943 267.269 116.241 266.744 116.972 266.744C117.554 266.744 117.795 267.084 117.795 267.637V269.829H118.263V267.531C118.263 266.751 117.823 266.354 117.163 266.354C116.468 266.354 116.064 266.822 115.943 267.375V265.077H115.475V269.829H115.943ZM121.945 269.829L122.668 267.559L122.867 266.815L123.058 267.559L123.782 269.829H124.385L125.314 266.424H124.789L124.236 268.723L124.08 269.482L123.874 268.723L123.15 266.424H122.576L121.852 268.723L121.647 269.482L121.491 268.723L120.93 266.424H120.412L121.342 269.829H121.945ZM126.396 265.814V265.077H125.928V265.814H126.396ZM126.396 269.829V266.424H125.928V269.829H126.396ZM127.858 269.829V265.077H127.39V269.829H127.858ZM129.32 269.829V265.077H128.852V269.829H129.32ZM132.34 269.829V268.936C132.454 269.46 132.822 269.907 133.475 269.907C134.369 269.907 134.901 269.205 134.901 268.127C134.901 267.056 134.369 266.354 133.475 266.354C132.822 266.354 132.454 266.8 132.34 267.325V265.077H131.872V269.829H132.34ZM132.34 268.446V267.808C132.34 267.24 132.645 266.744 133.333 266.744C133.957 266.744 134.425 267.176 134.425 268.127C134.425 269.085 133.957 269.517 133.333 269.517C132.645 269.517 132.34 269.014 132.34 268.446ZM137.177 269.9C137.9 269.9 138.354 269.553 138.596 269.134L138.312 268.801C138.163 269.134 137.865 269.51 137.177 269.51C136.503 269.51 136.042 269.085 136.014 268.233H138.61C138.617 268.177 138.631 268.091 138.631 268.006C138.631 266.978 138.049 266.354 137.12 266.354C136.198 266.354 135.567 267.02 135.567 268.127C135.567 269.255 136.226 269.9 137.177 269.9ZM137.12 266.737C137.744 266.737 138.163 267.127 138.205 267.893H136.021C136.084 267.127 136.496 266.737 137.12 266.737ZM141.406 271.028C141.867 271.028 142.2 270.78 142.399 270.234L143.839 266.424H143.349L142.498 268.758L142.25 269.46L142.009 268.758L141.15 266.424H140.654L141.902 269.716L142.165 269.709L142.037 270.049C141.888 270.468 141.689 270.617 141.413 270.617C141.101 270.617 140.909 270.425 140.767 270.149L140.505 270.489C140.633 270.744 140.945 271.028 141.406 271.028ZM145.633 269.9C146.57 269.9 147.23 269.205 147.23 268.127C147.23 267.049 146.57 266.354 145.633 266.354C144.697 266.354 144.045 267.049 144.045 268.127C144.045 269.205 144.697 269.9 145.633 269.9ZM145.633 269.503C144.967 269.503 144.513 269.028 144.513 268.127C144.513 267.219 144.967 266.737 145.633 266.737C146.307 266.737 146.761 267.219 146.761 268.127C146.761 269.028 146.307 269.503 145.633 269.503ZM149.139 269.9C149.842 269.9 150.225 269.425 150.345 268.858V269.829H150.806V266.424H150.345V268.389C150.345 268.985 150.061 269.503 149.324 269.503C148.742 269.503 148.487 269.163 148.487 268.616V266.424H148.026V268.716C148.026 269.503 148.472 269.9 149.139 269.9ZM152.27 269.829V267.857C152.27 267.269 152.674 266.701 153.185 266.701C153.497 266.701 153.624 266.9 153.624 267.12C153.624 267.325 153.539 267.545 153.447 267.652H153.951C154.015 267.538 154.078 267.325 154.078 267.07C154.078 266.602 153.752 266.346 153.355 266.346C152.773 266.346 152.397 266.815 152.27 267.354V266.424H151.801V269.829H152.27ZM157.39 269.907C157.83 269.907 158.163 269.702 158.312 269.453L158.149 268.999C158.036 269.241 157.787 269.46 157.482 269.46C157.184 269.46 156.929 269.326 156.929 268.836V266.786H158.071V266.424H156.929V265.587L156.468 265.935V266.424H155.915V266.786H156.468V268.964C156.468 269.581 156.872 269.907 157.39 269.907ZM160.042 269.9C160.978 269.9 161.638 269.205 161.638 268.127C161.638 267.049 160.978 266.354 160.042 266.354C159.106 266.354 158.453 267.049 158.453 268.127C158.453 269.205 159.106 269.9 160.042 269.9ZM160.042 269.503C159.375 269.503 158.921 269.028 158.921 268.127C158.921 267.219 159.375 266.737 160.042 266.737C160.716 266.737 161.17 267.219 161.17 268.127C161.17 269.028 160.716 269.503 160.042 269.503ZM163.521 269.907C163.96 269.907 164.294 269.702 164.443 269.453L164.28 268.999C164.166 269.241 163.918 269.46 163.613 269.46C163.315 269.46 163.06 269.326 163.06 268.836V266.786H164.202V266.424H163.06V265.587L162.598 265.935V266.424H162.045V266.786H162.598V268.964C162.598 269.581 163.003 269.907 163.521 269.907ZM165.63 269.9C166.311 269.9 166.751 269.375 166.864 268.886V269.248C166.864 269.68 167.091 269.829 167.432 269.829H167.751V269.411H167.552C167.389 269.411 167.311 269.347 167.311 269.17V267.574C167.311 266.815 166.9 266.354 166.105 266.354C165.382 266.354 164.885 266.758 164.672 267.113L164.999 267.439C165.176 267.063 165.545 266.772 166.055 266.772C166.609 266.772 166.85 267.07 166.85 267.581V267.609L165.559 268.198C165.084 268.411 164.75 268.694 164.75 269.141C164.75 269.595 165.069 269.9 165.63 269.9ZM165.218 269.077C165.218 268.822 165.389 268.652 165.758 268.482L166.864 267.957V268.56C166.864 269.021 166.396 269.51 165.765 269.51C165.431 269.51 165.218 269.361 165.218 269.077ZM168.971 269.829V265.077H168.503V269.829H168.971ZM172.828 269.9C173.46 269.9 174.013 269.609 174.013 268.957C174.013 268.474 173.729 268.184 173.02 268.006L172.566 267.893C172.069 267.772 171.814 267.645 171.814 267.29C171.814 266.935 172.105 266.744 172.516 266.744C173.048 266.744 173.403 266.999 173.559 267.46L173.914 267.198C173.743 266.715 173.268 266.354 172.545 266.354C171.842 266.354 171.374 266.722 171.374 267.311C171.374 267.921 171.878 268.148 172.367 268.269L172.828 268.375C173.289 268.482 173.594 268.609 173.594 268.964C173.594 269.319 173.297 269.503 172.843 269.503C172.154 269.503 171.729 269.12 171.622 268.659L171.275 268.921C171.481 269.588 172.133 269.9 172.828 269.9ZM175.494 269.9C176.175 269.9 176.615 269.375 176.728 268.886V269.248C176.728 269.68 176.955 269.829 177.296 269.829H177.615V269.411H177.417C177.253 269.411 177.175 269.347 177.175 269.17V267.574C177.175 266.815 176.764 266.354 175.969 266.354C175.246 266.354 174.749 266.758 174.537 267.113L174.863 267.439C175.04 267.063 175.409 266.772 175.92 266.772C176.473 266.772 176.714 267.07 176.714 267.581V267.609L175.423 268.198C174.948 268.411 174.615 268.694 174.615 269.141C174.615 269.595 174.934 269.9 175.494 269.9ZM175.083 269.077C175.083 268.822 175.253 268.652 175.622 268.482L176.728 267.957V268.56C176.728 269.021 176.26 269.51 175.629 269.51C175.296 269.51 175.083 269.361 175.083 269.077ZM179.655 269.829L180.939 266.424H180.442L179.704 268.496L179.378 269.475L179.038 268.496L178.3 266.424H177.789L179.073 269.829H179.655ZM181.973 265.814V265.077H181.505V265.814H181.973ZM181.973 269.829V266.424H181.505V269.829H181.973ZM183.435 269.829V267.857C183.435 267.269 183.726 266.744 184.442 266.744C185.031 266.744 185.286 267.084 185.286 267.637V269.829H185.755V267.531C185.755 266.751 185.301 266.354 184.627 266.354C183.946 266.354 183.556 266.822 183.435 267.375V266.424H182.967V269.829H183.435ZM188.006 268.78C188.801 268.78 189.326 268.276 189.326 267.567C189.326 267.148 189.141 266.8 188.822 266.581L189.432 265.85L188.943 265.665L188.666 266.488C188.474 266.403 188.254 266.354 188.006 266.354C187.219 266.354 186.687 266.857 186.687 267.567C186.687 267.999 186.885 268.354 187.212 268.567C186.928 268.787 186.715 269.07 186.715 269.347C186.715 269.553 186.829 269.716 187.063 269.78C186.793 269.886 186.453 270.106 186.453 270.461C186.453 270.929 186.992 271.22 187.857 271.22C188.95 271.22 189.602 270.766 189.602 270.134C189.602 269.638 189.233 269.397 188.638 269.397H187.581C187.212 269.397 187.098 269.283 187.098 269.092C187.098 268.928 187.205 268.751 187.311 268.623C187.51 268.723 187.744 268.78 188.006 268.78ZM188.006 268.418C187.503 268.418 187.141 268.084 187.141 267.567C187.141 267.049 187.503 266.715 188.006 266.715C188.517 266.715 188.879 267.049 188.879 267.567C188.879 268.084 188.517 268.418 188.006 268.418ZM187.857 270.851C187.212 270.851 186.836 270.659 186.836 270.326C186.836 270.106 187.02 269.907 187.19 269.801H188.574C188.978 269.801 189.17 269.922 189.17 270.191C189.17 270.581 188.68 270.851 187.857 270.851ZM191.483 269.9C192.115 269.9 192.668 269.609 192.668 268.957C192.668 268.474 192.384 268.184 191.675 268.006L191.221 267.893C190.724 267.772 190.469 267.645 190.469 267.29C190.469 266.935 190.76 266.744 191.171 266.744C191.703 266.744 192.058 266.999 192.214 267.46L192.569 267.198C192.398 266.715 191.923 266.354 191.2 266.354C190.497 266.354 190.029 266.722 190.029 267.311C190.029 267.921 190.533 268.148 191.022 268.269L191.483 268.375C191.944 268.482 192.249 268.609 192.249 268.964C192.249 269.319 191.951 269.503 191.498 269.503C190.809 269.503 190.384 269.12 190.277 268.659L189.93 268.921C190.136 269.588 190.788 269.9 191.483 269.9Z" fill="#6B7280"/>
<rect x="75.1016" y="371.596" width="212.22" height="33.8154" rx="16.9077" fill="#8807F7"/>
<path d="M166.071 391.077C164.18 391.077 163.116 389.691 163.116 387.92C163.116 386.149 164.18 384.763 166.071 384.763C167.429 384.763 168.365 385.461 168.796 386.663L167.897 387.324C167.704 386.397 167.135 385.745 166.08 385.745C164.813 385.745 164.217 386.644 164.217 387.92C164.217 389.186 164.813 390.095 166.08 390.095C167.135 390.095 167.704 389.434 167.897 388.517L168.796 389.177C168.365 390.37 167.429 391.077 166.071 391.077ZM171.497 391.095C170.213 391.095 169.332 390.159 169.332 388.773C169.332 387.379 170.213 386.443 171.497 386.443C172.8 386.443 173.681 387.379 173.681 388.773C173.681 390.159 172.8 391.095 171.497 391.095ZM171.507 390.242C172.176 390.242 172.635 389.801 172.635 388.773C172.635 387.736 172.176 387.296 171.507 387.296C170.846 387.296 170.387 387.736 170.387 388.773C170.387 389.801 170.846 390.242 171.507 390.242ZM175.591 391.003H174.563V386.534H175.591V387.755C175.756 387.048 176.215 386.443 177.105 386.443C177.977 386.443 178.509 386.966 178.509 387.892V391.003H177.472V388.205C177.472 387.654 177.288 387.278 176.6 387.278C175.848 387.278 175.591 387.764 175.591 388.498V391.003ZM181.062 391.104C180.218 391.104 179.732 390.572 179.732 389.783V387.333H179.034V386.534H179.732V385.993L180.759 385.341V386.534H182.127V387.333H180.759V389.535C180.759 390.022 180.989 390.141 181.292 390.141C181.64 390.141 181.897 389.856 182.026 389.599L182.347 390.517C182.154 390.802 181.714 391.104 181.062 391.104ZM184.069 385.901H183.041V384.855H184.069V385.901ZM184.069 391.003H183.041V386.534H184.069V391.003ZM186.184 391.003H185.156V386.534H186.184V387.755C186.349 387.048 186.808 386.443 187.698 386.443C188.569 386.443 189.102 386.966 189.102 387.892V391.003H188.065V388.205C188.065 387.654 187.881 387.278 187.193 387.278C186.44 387.278 186.184 387.764 186.184 388.498V391.003ZM191.524 391.095C190.661 391.095 190.129 390.572 190.129 389.645V386.534H191.157V389.333C191.157 389.884 191.34 390.26 192.028 390.26C192.781 390.26 193.038 389.774 193.038 389.04V386.534H194.075V391.003H193.038V389.783C192.873 390.49 192.414 391.095 191.524 391.095ZM197.121 391.095C195.791 391.095 194.919 390.168 194.919 388.773C194.919 387.369 195.791 386.443 197.048 386.443C198.388 386.443 199.131 387.333 199.131 388.572C199.131 388.737 199.113 388.929 199.094 389.021H195.901C195.956 389.82 196.424 390.251 197.13 390.251C197.91 390.251 198.259 389.847 198.424 389.471L199.058 390.132C198.718 390.646 198.112 391.095 197.121 391.095ZM197.048 387.268C196.415 387.268 195.992 387.636 195.91 388.361H198.204C198.131 387.654 197.727 387.268 197.048 387.268Z" fill="white"/>
<rect width="211.621" height="3.6236" rx="1.8118" transform="matrix(1 0 0 -1 75.0938 203.908)" fill="#E7CDFE"/>
<rect width="125.909" height="4.13785" rx="2.06893" transform="matrix(1 0 0 -1 75.0938 204.161)" fill="#8807F7"/>
<g opacity="0.5">
<g filter="url(#filter0_d_1_8099)">
<circle cx="6.79426" cy="6.79426" r="6.79426" transform="matrix(0 1 1 0 273.719 195.302)" fill="white"/>
</g>
<g clip-path="url(#clip2_1_8099)">
<path d="M279.826 199.732C279.706 199.79 279.601 199.876 279.521 199.982C279.46 200.06 279.414 200.147 279.383 200.241L279.246 200.662C279.237 200.69 279.22 200.716 279.197 200.735C279.174 200.755 279.147 200.768 279.117 200.773C279.083 200.779 279.048 200.774 279.017 200.759C278.986 200.744 278.96 200.72 278.943 200.69L278.945 200.688C278.94 200.679 278.936 200.67 278.932 200.661L278.795 200.24C278.753 200.112 278.681 199.996 278.585 199.901C278.49 199.805 278.374 199.734 278.246 199.691L277.825 199.554C277.793 199.543 277.765 199.522 277.745 199.494C277.725 199.466 277.714 199.432 277.714 199.398C277.714 199.363 277.725 199.33 277.745 199.302C277.765 199.274 277.793 199.252 277.825 199.241L277.833 199.239L278.254 199.102C278.382 199.06 278.499 198.988 278.594 198.893C278.689 198.797 278.761 198.681 278.804 198.553L278.94 198.132C278.952 198.1 278.973 198.072 279.001 198.052C279.029 198.032 279.063 198.021 279.097 198.021C279.132 198.021 279.165 198.032 279.193 198.052C279.221 198.072 279.243 198.1 279.254 198.132L279.391 198.553L279.394 198.564C279.424 198.65 279.467 198.731 279.522 198.803L279.523 198.803C279.627 198.94 279.77 199.044 279.933 199.1L280.353 199.238C280.384 199.248 280.411 199.266 280.431 199.291C280.451 199.316 280.463 199.347 280.466 199.379C280.469 199.41 280.463 199.443 280.448 199.471C280.433 199.499 280.411 199.523 280.383 199.539C280.373 199.544 280.363 199.549 280.353 199.552L279.932 199.689C279.896 199.701 279.86 199.716 279.826 199.732ZM278.529 201.003C278.524 200.991 278.516 200.98 278.506 200.972C278.496 200.963 278.485 200.956 278.472 200.952L278.22 200.87C278.144 200.844 278.075 200.8 278.019 200.743C277.963 200.686 277.92 200.617 277.895 200.541L277.813 200.288C277.806 200.269 277.793 200.252 277.776 200.24C277.76 200.228 277.739 200.222 277.719 200.222C277.698 200.222 277.678 200.228 277.661 200.24C277.644 200.252 277.632 200.269 277.625 200.288L277.543 200.541C277.517 200.617 277.474 200.687 277.417 200.744C277.36 200.801 277.29 200.844 277.213 200.87L276.961 200.952L276.955 200.953C276.936 200.96 276.919 200.973 276.907 200.989C276.895 201.006 276.889 201.026 276.889 201.047C276.889 201.068 276.895 201.088 276.907 201.105C276.919 201.122 276.936 201.134 276.955 201.141L277.208 201.223C277.314 201.259 277.406 201.327 277.47 201.418V201.419C277.499 201.461 277.521 201.506 277.537 201.554L277.62 201.806C277.627 201.826 277.64 201.842 277.656 201.854C277.673 201.866 277.693 201.873 277.714 201.873C277.735 201.873 277.755 201.866 277.771 201.854C277.788 201.842 277.801 201.826 277.808 201.806L277.89 201.554C277.916 201.477 277.959 201.407 278.016 201.35C278.074 201.292 278.144 201.249 278.22 201.224L278.473 201.141C278.487 201.137 278.499 201.129 278.509 201.119C278.519 201.11 278.527 201.098 278.532 201.085C278.538 201.072 278.54 201.058 278.54 201.044C278.539 201.03 278.536 201.016 278.529 201.003V201.003ZM280.739 205.172C278.97 205.172 277.526 203.78 277.443 202.032C277.487 202.078 277.543 202.113 277.605 202.131C277.667 202.15 277.733 202.152 277.796 202.138C277.859 202.124 277.917 202.094 277.965 202.05C278.013 202.007 278.049 201.952 278.069 201.891L278.151 201.639C278.163 201.603 278.184 201.571 278.21 201.544C278.237 201.517 278.269 201.497 278.305 201.484L278.564 201.4C278.637 201.374 278.701 201.326 278.745 201.263C278.79 201.2 278.814 201.124 278.814 201.047C278.813 201.009 278.807 200.972 278.796 200.936C278.85 200.985 278.916 201.018 278.987 201.035C279.058 201.052 279.132 201.05 279.202 201.031C279.273 201.012 279.337 200.976 279.39 200.926C279.443 200.876 279.482 200.813 279.505 200.744L279.643 200.324C279.671 200.237 279.72 200.157 279.785 200.092C279.85 200.027 279.929 199.978 280.015 199.949L280.443 199.812C280.508 199.789 280.566 199.752 280.614 199.703C280.661 199.654 280.697 199.595 280.718 199.529C280.738 199.464 280.744 199.395 280.733 199.328C280.722 199.26 280.696 199.196 280.656 199.141C280.602 199.064 280.525 199.007 280.436 198.977L280.02 198.842C279.938 198.814 279.863 198.767 279.8 198.707C280.105 198.617 280.421 198.571 280.739 198.572C282.561 198.572 284.039 200.049 284.039 201.872C284.039 203.694 282.561 205.172 280.739 205.172ZM279.776 201.597C279.886 201.597 279.991 201.553 280.068 201.476C280.146 201.398 280.189 201.294 280.189 201.184C280.189 201.075 280.146 200.97 280.068 200.892C279.991 200.815 279.886 200.772 279.776 200.772C279.667 200.772 279.562 200.815 279.485 200.892C279.407 200.97 279.364 201.075 279.364 201.184C279.364 201.294 279.407 201.398 279.485 201.476C279.562 201.553 279.667 201.597 279.776 201.597ZM281.289 201.184C281.289 201.294 281.332 201.398 281.41 201.476C281.487 201.553 281.592 201.597 281.702 201.597C281.811 201.597 281.916 201.553 281.993 201.476C282.071 201.398 282.114 201.294 282.114 201.184C282.114 201.075 282.071 200.97 281.993 200.892C281.916 200.815 281.811 200.772 281.702 200.772C281.592 200.772 281.487 200.815 281.41 200.892C281.332 200.97 281.289 201.075 281.289 201.184ZM282.299 202.732C282.254 202.702 282.198 202.69 282.145 202.7C282.091 202.71 282.044 202.741 282.013 202.786L282.01 202.789L281.998 202.806C281.987 202.82 281.968 202.843 281.942 202.871C281.891 202.927 281.813 203.003 281.706 203.079C281.495 203.231 281.176 203.384 280.739 203.384C280.302 203.384 279.983 203.231 279.772 203.079C279.665 203.003 279.587 202.927 279.536 202.871C279.512 202.845 279.489 202.818 279.467 202.789L279.465 202.787C279.435 202.741 279.387 202.71 279.333 202.7C279.28 202.69 279.224 202.701 279.179 202.732C279.134 202.763 279.102 202.811 279.092 202.864C279.082 202.918 279.094 202.974 279.124 203.019L279.125 203.019V203.02L279.126 203.021L279.128 203.023L279.13 203.027L279.134 203.032C279.164 203.073 279.197 203.112 279.231 203.15C279.322 203.248 279.422 203.336 279.531 203.414C279.797 203.606 280.199 203.797 280.739 203.797C281.279 203.797 281.681 203.606 281.947 203.414C282.056 203.336 282.156 203.248 282.247 203.15C282.283 203.11 282.318 203.067 282.35 203.024L282.352 203.021L282.353 203.02L282.353 203.019L282.353 203.019C282.384 202.974 282.396 202.918 282.385 202.864C282.375 202.811 282.344 202.763 282.299 202.732Z" fill="#8807F7"/>
</g>
</g>
<g filter="url(#filter1_d_1_8099)">
<circle cx="6.79426" cy="6.79426" r="6.79426" transform="matrix(0 1 1 0 108.953 195.302)" fill="white"/>
</g>
<g clip-path="url(#clip3_1_8099)">
<path d="M115.517 205.947C114.496 205.947 113.517 205.541 112.795 204.819C112.073 204.097 111.667 203.118 111.667 202.097C111.667 201.076 112.073 200.096 112.795 199.374C113.517 198.652 114.496 198.247 115.517 198.247C116.538 198.247 117.517 198.652 118.24 199.374C118.962 200.096 119.367 201.076 119.367 202.097C119.367 203.118 118.962 204.097 118.24 204.819C117.517 205.541 116.538 205.947 115.517 205.947ZM115.998 201.375C115.998 201.773 116.214 202.097 116.48 202.097C116.745 202.097 116.961 201.773 116.961 201.375C116.961 200.976 116.745 200.653 116.48 200.653C116.214 200.653 115.998 200.976 115.998 201.375ZM117.305 204.23C117.36 204.198 117.401 204.146 117.417 204.084C117.434 204.022 117.425 203.957 117.393 203.901C117.203 203.572 116.93 203.299 116.6 203.108C116.271 202.918 115.897 202.818 115.517 202.819C115.137 202.818 114.763 202.919 114.434 203.109C114.105 203.299 113.831 203.572 113.641 203.901C113.61 203.957 113.601 204.022 113.618 204.083C113.635 204.145 113.675 204.197 113.73 204.229C113.785 204.26 113.85 204.269 113.912 204.253C113.973 204.237 114.026 204.197 114.058 204.142C114.206 203.886 114.418 203.673 114.675 203.525C114.931 203.377 115.221 203.3 115.517 203.3C115.813 203.3 116.103 203.377 116.36 203.525C116.616 203.673 116.828 203.886 116.976 204.142C117.008 204.197 117.061 204.238 117.122 204.254C117.184 204.271 117.25 204.262 117.305 204.23ZM114.555 202.097C114.82 202.097 115.036 201.773 115.036 201.375C115.036 200.976 114.82 200.653 114.555 200.653C114.289 200.653 114.073 200.976 114.073 201.375C114.073 201.773 114.289 202.097 114.555 202.097Z" fill="#8807F7"/>
</g>
<g opacity="0.5">
<g filter="url(#filter2_d_1_8099)">
<circle cx="6.79426" cy="6.79426" r="6.79426" transform="matrix(0 1 1 0 218.734 194.849)" fill="white"/>
<circle cx="6.79426" cy="6.79426" r="6.79426" transform="matrix(0 1 1 0 218.734 194.849)" stroke="#8807F7" stroke-width="0.886682"/>
</g>
<path d="M225.9 198.02C223.773 198.02 222.049 199.743 222.049 201.87C222.049 203.996 223.773 205.72 225.9 205.72C228.026 205.72 229.75 203.996 229.75 201.87C229.75 199.743 228.026 198.02 225.9 198.02ZM227.262 202.941C227.31 202.883 227.378 202.846 227.453 202.838C227.529 202.83 227.604 202.852 227.663 202.898C227.722 202.945 227.761 203.013 227.771 203.088C227.78 203.163 227.76 203.238 227.715 203.299C227.499 203.574 227.223 203.796 226.909 203.949C226.594 204.101 226.249 204.18 225.9 204.18C225.183 204.18 224.521 203.852 224.086 203.301C224.062 203.271 224.045 203.237 224.034 203.201C224.024 203.164 224.021 203.126 224.025 203.088C224.03 203.051 224.042 203.014 224.06 202.981C224.079 202.948 224.103 202.919 224.133 202.895C224.163 202.872 224.197 202.854 224.233 202.844C224.27 202.834 224.308 202.831 224.346 202.835C224.383 202.84 224.42 202.851 224.453 202.87C224.486 202.888 224.515 202.913 224.539 202.943C224.701 203.149 224.907 203.315 225.143 203.43C225.379 203.544 225.638 203.603 225.9 203.603C226.438 203.603 226.935 203.356 227.262 202.941ZM227.054 200.619C227.119 200.617 227.183 200.628 227.243 200.651C227.303 200.675 227.357 200.71 227.403 200.755C227.45 200.8 227.486 200.853 227.511 200.913C227.536 200.972 227.549 201.036 227.549 201.1C227.549 201.164 227.536 201.228 227.511 201.287C227.486 201.346 227.45 201.4 227.403 201.445C227.357 201.49 227.303 201.525 227.243 201.548C227.183 201.572 227.119 201.583 227.054 201.581C226.929 201.577 226.81 201.525 226.723 201.435C226.636 201.345 226.587 201.225 226.587 201.1C226.587 200.975 226.636 200.854 226.723 200.764C226.81 200.675 226.929 200.622 227.054 200.619ZM224.745 200.619C224.809 200.617 224.873 200.628 224.933 200.651C224.993 200.675 225.048 200.71 225.094 200.755C225.14 200.8 225.176 200.853 225.202 200.913C225.227 200.972 225.239 201.036 225.239 201.1C225.239 201.164 225.227 201.228 225.202 201.287C225.176 201.346 225.14 201.4 225.094 201.445C225.048 201.49 224.993 201.525 224.933 201.548C224.873 201.572 224.809 201.583 224.745 201.581C224.619 201.577 224.501 201.525 224.413 201.435C224.326 201.345 224.277 201.225 224.277 201.1C224.277 200.975 224.326 200.854 224.413 200.764C224.501 200.675 224.619 200.622 224.745 200.619Z" fill="#8807F7"/>
</g>
<g clip-path="url(#clip4_1_8099)" filter="url(#filter3_f_1_8099)">
<path d="M170.266 208.299C168.855 208.299 167.502 208.081 166.504 207.693C165.506 207.305 164.946 206.779 164.946 206.231C164.946 205.682 165.506 205.156 166.504 204.768C167.502 204.38 168.855 204.162 170.266 204.162C171.677 204.162 173.03 204.38 174.028 204.768C175.025 205.156 175.586 205.682 175.586 206.231C175.586 206.779 175.025 207.305 174.028 207.693C173.03 208.081 171.677 208.299 170.266 208.299ZM170.931 205.843C170.931 206.057 171.229 206.231 171.596 206.231C171.963 206.231 172.261 206.057 172.261 205.843C172.261 205.628 171.963 205.455 171.596 205.455C171.229 205.455 170.931 205.628 170.931 205.843ZM172.736 207.377C172.813 207.36 172.868 207.332 172.891 207.298C172.914 207.265 172.902 207.23 172.858 207.2C172.595 207.023 172.218 206.876 171.763 206.774C171.307 206.672 170.791 206.618 170.266 206.618C169.74 206.618 169.224 206.672 168.769 206.774C168.314 206.876 167.936 207.023 167.674 207.2C167.63 207.23 167.619 207.265 167.642 207.298C167.665 207.331 167.72 207.359 167.796 207.376C167.872 207.393 167.963 207.398 168.048 207.389C168.133 207.381 168.205 207.359 168.25 207.33C168.454 207.192 168.748 207.078 169.102 206.998C169.456 206.919 169.857 206.877 170.266 206.877C170.675 206.877 171.076 206.919 171.43 206.998C171.784 207.078 172.078 207.192 172.282 207.33C172.326 207.359 172.399 207.381 172.484 207.39C172.569 207.399 172.66 207.394 172.736 207.377ZM168.936 206.231C169.303 206.231 169.601 206.057 169.601 205.843C169.601 205.628 169.303 205.455 168.936 205.455C168.569 205.455 168.271 205.628 168.271 205.843C168.271 206.057 168.569 206.231 168.936 206.231Z" fill="#8807F7"/>
</g>
<g filter="url(#filter4_d_1_8099)">
<circle cx="6.79426" cy="6.79426" r="6.79426" transform="matrix(0 1 1 0 163.766 195.302)" fill="white"/>
<circle cx="6.79426" cy="6.79426" r="6.79426" transform="matrix(0 1 1 0 163.766 195.302)" stroke="#8807F7" stroke-width="0.886682"/>
</g>
<g clip-path="url(#clip5_1_8099)">
<path d="M170.33 206.174C169.309 206.174 168.329 205.768 167.607 205.046C166.885 204.324 166.48 203.345 166.48 202.323C166.48 201.302 166.885 200.323 167.607 199.601C168.329 198.879 169.309 198.473 170.33 198.473C171.351 198.473 172.33 198.879 173.052 199.601C173.774 200.323 174.18 201.302 174.18 202.323C174.18 203.345 173.774 204.324 173.052 205.046C172.33 205.768 171.351 206.174 170.33 206.174ZM172.014 201.361H171.051C170.988 201.361 170.926 201.386 170.881 201.431C170.836 201.477 170.811 201.538 170.811 201.602C170.811 201.665 170.836 201.727 170.881 201.772C170.926 201.817 170.988 201.842 171.051 201.842H172.014C172.078 201.842 172.139 201.817 172.184 201.772C172.229 201.727 172.255 201.665 172.255 201.602C172.255 201.538 172.229 201.477 172.184 201.431C172.139 201.386 172.078 201.361 172.014 201.361ZM169.608 201.361H168.645C168.581 201.361 168.52 201.386 168.475 201.431C168.43 201.477 168.405 201.538 168.405 201.602C168.405 201.665 168.43 201.727 168.475 201.772C168.52 201.817 168.581 201.842 168.645 201.842H169.608C169.672 201.842 169.733 201.817 169.778 201.772C169.823 201.727 169.848 201.665 169.848 201.602C169.848 201.538 169.823 201.477 169.778 201.431C169.733 201.386 169.672 201.361 169.608 201.361ZM172.014 203.286H168.645C168.581 203.286 168.52 203.311 168.475 203.356C168.43 203.402 168.405 203.463 168.405 203.527C168.405 203.59 168.43 203.652 168.475 203.697C168.52 203.742 168.581 203.767 168.645 203.767H172.014C172.078 203.767 172.139 203.742 172.184 203.697C172.229 203.652 172.255 203.59 172.255 203.527C172.255 203.463 172.229 203.402 172.184 203.356C172.139 203.311 172.078 203.286 172.014 203.286Z" fill="#8807F7"/>
</g>
<rect x="75.6875" y="300.612" width="211.03" height="39.014" rx="4.72897" fill="#F3F4F6"/>
<path d="M89.4297 322.119H88.6435C88.6435 319.363 89.827 318.13 90.7373 317.253H87.758V316.574H91.3911V317.394C90.1663 318.56 89.4297 319.76 89.4297 322.119ZM93.9807 322.202C92.4579 322.202 91.7462 320.952 91.7462 319.338C91.7462 317.741 92.4579 316.492 93.9807 316.492C95.4951 316.492 96.2068 317.741 96.2068 319.338C96.2068 320.952 95.4951 322.202 93.9807 322.202ZM93.9889 321.515C95.0813 321.515 95.4537 320.613 95.4537 319.338C95.4537 318.08 95.0813 317.17 93.9889 317.17C92.8883 317.17 92.5076 318.08 92.5076 319.338C92.5076 320.613 92.8883 321.515 93.9889 321.515ZM97.1008 322.963L96.9435 322.566C97.2249 322.525 97.3573 322.467 97.3573 322.235V322.119H96.9518V321.043H97.8208V322.119C97.8208 322.607 97.6635 322.897 97.1008 322.963ZM100.794 322.202C99.2708 322.202 98.5591 320.952 98.5591 319.338C98.5591 317.741 99.2708 316.492 100.794 316.492C102.308 316.492 103.02 317.741 103.02 319.338C103.02 320.952 102.308 322.202 100.794 322.202ZM100.802 321.515C101.894 321.515 102.267 320.613 102.267 319.338C102.267 318.08 101.894 317.17 100.802 317.17C99.7012 317.17 99.3205 318.08 99.3205 319.338C99.3205 320.613 99.7012 321.515 100.802 321.515ZM106.063 322.202C104.54 322.202 103.828 320.952 103.828 319.338C103.828 317.741 104.54 316.492 106.063 316.492C107.577 316.492 108.289 317.741 108.289 319.338C108.289 320.952 107.577 322.202 106.063 322.202ZM106.071 321.515C107.164 321.515 107.536 320.613 107.536 319.338C107.536 318.08 107.164 317.17 106.071 317.17C104.97 317.17 104.59 318.08 104.59 319.338C104.59 320.613 104.97 321.515 106.071 321.515ZM111.332 322.202C109.809 322.202 109.098 320.952 109.098 319.338C109.098 317.741 109.809 316.492 111.332 316.492C112.847 316.492 113.558 317.741 113.558 319.338C113.558 320.952 112.847 322.202 111.332 322.202ZM111.34 321.515C112.433 321.515 112.805 320.613 112.805 319.338C112.805 318.08 112.433 317.17 111.34 317.17C110.24 317.17 109.859 318.08 109.859 319.338C109.859 320.613 110.24 321.515 111.34 321.515Z" fill="#8807F7"/>
<path d="M84.0334 173.482L79.0532 168.516C78.9941 168.457 78.9523 168.393 78.9279 168.324C78.903 168.255 78.8906 168.182 78.8906 168.103C78.8906 168.024 78.903 167.95 78.9279 167.881C78.9523 167.812 78.9941 167.748 79.0532 167.689L84.0334 162.709C84.1713 162.571 84.3437 162.502 84.5506 162.502C84.7575 162.502 84.9348 162.576 85.0826 162.724C85.2304 162.871 85.3043 163.044 85.3043 163.241C85.3043 163.438 85.2304 163.61 85.0826 163.758L80.7379 168.103L85.0826 172.447C85.2206 172.585 85.2895 172.755 85.2895 172.957C85.2895 173.159 85.2156 173.334 85.0678 173.482C84.9201 173.63 84.7477 173.704 84.5506 173.704C84.3536 173.704 84.1812 173.63 84.0334 173.482Z" fill="#3D0072"/>
<path opacity="0.35" fill-rule="evenodd" clip-rule="evenodd" d="M284.219 131.355C283.539 131.355 283.27 131.4 282.992 131.53C282.758 131.64 282.576 131.8 282.45 132.005C282.302 132.248 282.25 132.484 282.25 133.08V135.738C282.25 136.334 282.302 136.569 282.45 136.813C282.576 137.018 282.758 137.178 282.992 137.287C283.27 137.417 283.539 137.463 284.219 137.463H294.449C295.129 137.463 295.398 137.417 295.676 137.287C295.91 137.178 296.092 137.018 296.218 136.813C296.366 136.569 296.418 136.334 296.418 135.738V133.08C296.418 132.484 296.366 132.248 296.218 132.005C296.092 131.8 295.91 131.64 295.676 131.53C295.398 131.4 295.129 131.355 294.449 131.355H284.219Z" stroke="black" stroke-width="0.591121"/>
<path opacity="0.4" d="M297.43 133.227V135.591C297.973 135.391 298.326 134.925 298.326 134.409C298.326 133.893 297.973 133.427 297.43 133.227Z" fill="black"/>
<path d="M284.411 132.241H294.249C294.65 132.241 294.795 132.278 294.942 132.347C295.088 132.415 295.203 132.516 295.282 132.645C295.36 132.773 295.402 132.901 295.402 133.252V135.566C295.402 135.917 295.36 136.045 295.282 136.173C295.203 136.302 295.088 136.402 294.942 136.471C294.795 136.54 294.65 136.576 294.249 136.576H284.411C284.01 136.576 283.865 136.54 283.718 136.471C283.571 136.402 283.456 136.302 283.378 136.173C283.3 136.045 283.258 135.917 283.258 135.566V133.252C283.258 132.901 283.3 132.773 283.378 132.645C283.456 132.516 283.571 132.415 283.718 132.347C283.865 132.278 284.01 132.241 284.411 132.241Z" fill="black"/>
<path d="M273.368 132.408C274.869 132.408 276.313 132.913 277.4 133.818C277.482 133.888 277.613 133.887 277.694 133.816L278.477 133.124C278.518 133.088 278.541 133.04 278.54 132.989C278.54 132.938 278.516 132.889 278.475 132.854C275.62 130.459 271.116 130.459 268.261 132.854C268.219 132.889 268.196 132.938 268.195 132.989C268.195 133.039 268.218 133.088 268.259 133.124L269.042 133.816C269.122 133.887 269.253 133.888 269.335 133.818C270.423 132.913 271.867 132.408 273.368 132.408ZM273.368 134.659C274.193 134.658 274.988 134.927 275.599 135.411C275.682 135.48 275.812 135.479 275.893 135.408L276.675 134.716C276.716 134.68 276.739 134.631 276.738 134.58C276.738 134.528 276.714 134.48 276.672 134.444C274.81 132.928 271.927 132.928 270.066 134.444C270.024 134.48 270 134.528 269.999 134.58C269.999 134.631 270.022 134.68 270.063 134.716L270.845 135.408C270.925 135.479 271.056 135.48 271.138 135.411C271.749 134.927 272.544 134.659 273.368 134.659ZM274.871 136.31C274.913 136.274 274.936 136.224 274.935 136.173C274.934 136.122 274.908 136.073 274.865 136.039C274.001 135.399 272.735 135.399 271.871 136.039C271.828 136.073 271.802 136.122 271.801 136.173C271.8 136.224 271.823 136.274 271.865 136.31L273.218 137.505C273.258 137.54 273.312 137.56 273.368 137.56C273.424 137.56 273.479 137.54 273.518 137.505L274.871 136.31Z" fill="black"/>
<path d="M254.034 135.197H254.709C255.081 135.197 255.383 135.462 255.383 135.788V136.97C255.383 137.297 255.081 137.561 254.709 137.561H254.034C253.661 137.561 253.359 137.297 253.359 136.97V135.788C253.359 135.462 253.661 135.197 254.034 135.197ZM257.182 134.015H257.857C258.23 134.015 258.532 134.279 258.532 134.606V136.97C258.532 137.297 258.23 137.561 257.857 137.561H257.182C256.81 137.561 256.508 137.297 256.508 136.97V134.606C256.508 134.279 256.81 134.015 257.182 134.015ZM260.331 132.635H261.006C261.378 132.635 261.68 132.9 261.68 133.227V136.97C261.68 137.297 261.378 137.561 261.006 137.561H260.331C259.958 137.561 259.656 137.297 259.656 136.97V133.227C259.656 132.9 259.958 132.635 260.331 132.635ZM263.479 131.256H264.154C264.527 131.256 264.829 131.521 264.829 131.847V136.97C264.829 137.297 264.527 137.561 264.154 137.561H263.479C263.107 137.561 262.805 137.297 262.805 136.97V131.847C262.805 131.521 263.107 131.256 263.479 131.256Z" fill="black"/>
<path d="M77.5035 131.63C77.6749 131.559 77.8523 131.479 78.0355 131.39C78.2247 131.296 78.4079 131.195 78.5852 131.089C78.7626 130.976 78.931 130.861 79.0907 130.743C79.2562 130.619 79.4039 130.489 79.534 130.353H80.4561V136.498H79.135V132.073C78.9576 132.191 78.7596 132.301 78.5409 132.401C78.3222 132.496 78.1094 132.578 77.9025 132.649L77.5035 131.63ZM86.3203 131.967C86.3203 132.191 86.276 132.407 86.1873 132.614C86.0986 132.821 85.9834 133.022 85.8415 133.217C85.6996 133.406 85.54 133.589 85.3627 133.767C85.1853 133.944 85.011 134.112 84.8395 134.272C84.7509 134.355 84.6533 134.449 84.5469 134.556C84.4464 134.656 84.3489 134.76 84.2543 134.866C84.1597 134.972 84.074 135.073 83.9972 135.168C83.9263 135.256 83.8819 135.33 83.8642 135.389H86.5065V136.498H82.41C82.3982 136.433 82.3923 136.35 82.3923 136.249C82.3923 136.149 82.3923 136.078 82.3923 136.036C82.3923 135.753 82.4366 135.493 82.5253 135.256C82.6199 135.02 82.7411 134.801 82.8888 134.6C83.0366 134.393 83.2021 134.201 83.3854 134.024C83.5745 133.846 83.7607 133.669 83.944 133.492C84.0859 133.356 84.2189 133.229 84.343 133.11C84.4671 132.986 84.5765 132.868 84.6711 132.756C84.7656 132.638 84.8395 132.522 84.8927 132.41C84.9459 132.292 84.9725 132.174 84.9725 132.055C84.9725 131.795 84.8987 131.612 84.7509 131.506C84.6031 131.399 84.4198 131.346 84.2011 131.346C84.0415 131.346 83.8908 131.373 83.7489 131.426C83.613 131.473 83.4859 131.532 83.3676 131.603C83.2553 131.668 83.1578 131.736 83.075 131.807C82.9923 131.872 82.9302 131.925 82.8888 131.967L82.2327 131.044C82.4928 130.802 82.7943 130.604 83.1371 130.45C83.4859 130.291 83.8583 130.211 84.2543 130.211C84.6149 130.211 84.9253 130.252 85.1853 130.335C85.4454 130.418 85.6582 130.536 85.8238 130.69C85.9952 130.838 86.1193 131.021 86.1962 131.24C86.2789 131.452 86.3203 131.695 86.3203 131.967ZM88.8771 132.649C88.8771 132.915 88.7914 133.119 88.62 133.261C88.4545 133.397 88.2653 133.465 88.0525 133.465C87.8397 133.465 87.6476 133.397 87.4762 133.261C87.3107 133.119 87.2279 132.915 87.2279 132.649C87.2279 132.383 87.3107 132.182 87.4762 132.046C87.6476 131.905 87.8397 131.834 88.0525 131.834C88.2653 131.834 88.4545 131.905 88.62 132.046C88.7914 132.182 88.8771 132.383 88.8771 132.649ZM88.8771 135.797C88.8771 136.063 88.7914 136.267 88.62 136.409C88.4545 136.545 88.2653 136.613 88.0525 136.613C87.8397 136.613 87.6476 136.545 87.4762 136.409C87.3107 136.267 87.2279 136.063 87.2279 135.797C87.2279 135.531 87.3107 135.33 87.4762 135.194C87.6476 135.052 87.8397 134.981 88.0525 134.981C88.2653 134.981 88.4545 135.052 88.62 135.194C88.7914 135.33 88.8771 135.531 88.8771 135.797ZM93.8788 133.412C93.8788 134.446 93.6808 135.241 93.2848 135.797C92.8946 136.347 92.3538 136.622 91.6621 136.622C90.9705 136.622 90.4267 136.347 90.0306 135.797C89.6405 135.241 89.4454 134.446 89.4454 133.412C89.4454 132.898 89.4957 132.442 89.5962 132.046C89.7026 131.65 89.8533 131.316 90.0484 131.044C90.2435 130.773 90.4769 130.566 90.7489 130.424C91.0208 130.282 91.3252 130.211 91.6621 130.211C92.3538 130.211 92.8946 130.489 93.2848 131.044C93.6808 131.594 93.8788 132.383 93.8788 133.412ZM92.5311 133.412C92.5311 133.105 92.5163 132.827 92.4868 132.578C92.4572 132.324 92.4099 132.106 92.3449 131.922C92.2799 131.739 92.1912 131.597 92.0789 131.497C91.9666 131.396 91.8277 131.346 91.6621 131.346C91.4966 131.346 91.3577 131.396 91.2454 131.497C91.139 131.597 91.0503 131.739 90.9794 131.922C90.9144 132.106 90.8671 132.324 90.8375 132.578C90.808 132.827 90.7932 133.105 90.7932 133.412C90.7932 133.719 90.808 134 90.8375 134.254C90.8671 134.508 90.9144 134.727 90.9794 134.91C91.0503 135.094 91.139 135.236 91.2454 135.336C91.3577 135.436 91.4966 135.487 91.6621 135.487C91.8277 135.487 91.9666 135.436 92.0789 135.336C92.1912 135.236 92.2799 135.094 92.3449 134.91C92.4099 134.727 92.4572 134.508 92.4868 134.254C92.5163 134 92.5311 133.719 92.5311 133.412ZM98.9184 133.412C98.9184 134.446 98.7204 135.241 98.3243 135.797C97.9342 136.347 97.3933 136.622 96.7017 136.622C96.0101 136.622 95.4662 136.347 95.0702 135.797C94.68 135.241 94.485 134.446 94.485 133.412C94.485 132.898 94.5352 132.442 94.6357 132.046C94.7421 131.65 94.8929 131.316 95.0879 131.044C95.283 130.773 95.5165 130.566 95.7884 130.424C96.0603 130.282 96.3647 130.211 96.7017 130.211C97.3933 130.211 97.9342 130.489 98.3243 131.044C98.7204 131.594 98.9184 132.383 98.9184 133.412ZM97.5706 133.412C97.5706 133.105 97.5559 132.827 97.5263 132.578C97.4967 132.324 97.4495 132.106 97.3844 131.922C97.3194 131.739 97.2307 131.597 97.1184 131.497C97.0061 131.396 96.8672 131.346 96.7017 131.346C96.5362 131.346 96.3973 131.396 96.2849 131.497C96.1785 131.597 96.0899 131.739 96.0189 131.922C95.9539 132.106 95.9066 132.324 95.8771 132.578C95.8475 132.827 95.8327 133.105 95.8327 133.412C95.8327 133.719 95.8475 134 95.8771 134.254C95.9066 134.508 95.9539 134.727 96.0189 134.91C96.0899 135.094 96.1785 135.236 96.2849 135.336C96.3973 135.436 96.5362 135.487 96.7017 135.487C96.8672 135.487 97.0061 135.436 97.1184 135.336C97.2307 135.236 97.3194 135.094 97.3844 134.91C97.4495 134.727 97.4967 134.508 97.5263 134.254C97.5559 134 97.5706 133.719 97.5706 133.412Z" fill="black"/>
</g>
<rect x="54.5" y="116.5" width="254" height="360" rx="20.5" stroke="#8807F7"/>
<rect x="52.5" y="114.5" width="258" height="564" rx="25.5" stroke="#8807F7" stroke-width="5"/>
<rect x="55" y="40" width="22" height="32" rx="11" fill="#8807F7"/>
<path d="M68.936 53.824C68.936 54.2293 68.856 54.6187 68.696 54.992C68.536 55.3653 68.328 55.728 68.072 56.08C67.816 56.4213 67.528 56.752 67.208 57.072C66.888 57.392 66.5733 57.696 66.264 57.984C66.104 58.1333 65.928 58.304 65.736 58.496C65.5547 58.6773 65.3787 58.864 65.208 59.056C65.0373 59.248 64.8827 59.4293 64.744 59.6C64.616 59.76 64.536 59.8933 64.504 60H69.272V62H61.88C61.8587 61.8827 61.848 61.7333 61.848 61.552C61.848 61.3707 61.848 61.2427 61.848 61.168C61.848 60.656 61.928 60.1867 62.088 59.76C62.2587 59.3333 62.4773 58.9387 62.744 58.576C63.0107 58.2027 63.3093 57.856 63.64 57.536C63.9813 57.216 64.3173 56.896 64.648 56.576C64.904 56.3307 65.144 56.1013 65.368 55.888C65.592 55.664 65.7893 55.4507 65.96 55.248C66.1307 55.0347 66.264 54.8267 66.36 54.624C66.456 54.4107 66.504 54.1973 66.504 53.984C66.504 53.5147 66.3707 53.184 66.104 52.992C65.8373 52.8 65.5067 52.704 65.112 52.704C64.824 52.704 64.552 52.752 64.296 52.848C64.0507 52.9333 63.8213 53.04 63.608 53.168C63.4053 53.2853 63.2293 53.408 63.08 53.536C62.9307 53.6533 62.8187 53.7493 62.744 53.824L61.56 52.16C62.0293 51.7227 62.5733 51.3653 63.192 51.088C63.8213 50.8 64.4933 50.656 65.208 50.656C65.8587 50.656 66.4187 50.7307 66.888 50.88C67.3573 51.0293 67.7413 51.2427 68.04 51.52C68.3493 51.7867 68.5733 52.1173 68.712 52.512C68.8613 52.896 68.936 53.3333 68.936 53.824Z" fill="white"/>
<path d="M96.514 59.684C97.1487 59.684 97.6107 59.5767 97.9 59.362C98.1893 59.1473 98.334 58.844 98.334 58.452C98.334 58.2187 98.2827 58.018 98.18 57.85C98.0867 57.682 97.9467 57.5327 97.76 57.402C97.5827 57.262 97.3633 57.136 97.102 57.024C96.8407 56.9027 96.542 56.786 96.206 56.674C95.87 56.5527 95.5433 56.422 95.226 56.282C94.918 56.1327 94.6427 55.9507 94.4 55.736C94.1667 55.5213 93.9753 55.2647 93.826 54.966C93.686 54.6673 93.616 54.308 93.616 53.888C93.616 53.0107 93.9193 52.3247 94.526 51.83C95.1327 51.326 95.9587 51.074 97.004 51.074C97.6107 51.074 98.1473 51.144 98.614 51.284C99.09 51.4147 99.4633 51.5593 99.734 51.718L99.188 53.146C98.8707 52.9687 98.5207 52.8333 98.138 52.74C97.7647 52.6467 97.3773 52.6 96.976 52.6C96.5 52.6 96.1267 52.698 95.856 52.894C95.5947 53.09 95.464 53.3653 95.464 53.72C95.464 53.9347 95.506 54.1213 95.59 54.28C95.6833 54.4293 95.8093 54.5647 95.968 54.686C96.136 54.8073 96.3273 54.9193 96.542 55.022C96.766 55.1247 97.0087 55.2227 97.27 55.316C97.7273 55.484 98.1333 55.6567 98.488 55.834C98.852 56.002 99.1553 56.2073 99.398 56.45C99.65 56.6833 99.8413 56.9633 99.972 57.29C100.103 57.6073 100.168 57.9947 100.168 58.452C100.168 59.3293 99.8553 60.0107 99.23 60.496C98.614 60.972 97.7087 61.21 96.514 61.21C96.1127 61.21 95.744 61.182 95.408 61.126C95.0813 61.0793 94.7873 61.0187 94.526 60.944C94.274 60.8693 94.0547 60.7947 93.868 60.72C93.6813 60.636 93.532 60.5613 93.42 60.496L93.938 59.054C94.19 59.194 94.5307 59.334 94.96 59.474C95.3893 59.614 95.9073 59.684 96.514 59.684ZM101.723 61V51.298H107.953V52.796H103.487V55.19H107.463V56.66H103.487V59.502H108.289V61H101.723ZM116.688 51.298V52.824H113.706V61H111.928V52.824H108.946V51.298H116.688ZM124.563 55.596C124.983 54.896 125.393 54.1867 125.795 53.468C126.196 52.7493 126.56 52.026 126.887 51.298H128.847C128.324 52.2873 127.778 53.272 127.209 54.252C126.649 55.2227 126.047 56.2027 125.403 57.192V61H123.639V57.22C122.995 56.2213 122.388 55.232 121.819 54.252C121.249 53.272 120.703 52.2873 120.181 51.298H122.253C122.579 52.026 122.939 52.7493 123.331 53.468C123.723 54.1867 124.133 54.896 124.563 55.596ZM130.987 56.142C130.987 56.674 131.052 57.1593 131.183 57.598C131.313 58.0273 131.5 58.396 131.743 58.704C131.995 59.0027 132.298 59.236 132.653 59.404C133.007 59.572 133.409 59.656 133.857 59.656C134.295 59.656 134.692 59.572 135.047 59.404C135.401 59.236 135.7 59.0027 135.943 58.704C136.195 58.396 136.386 58.0273 136.517 57.598C136.647 57.1593 136.713 56.674 136.713 56.142C136.713 55.61 136.647 55.1293 136.517 54.7C136.386 54.2613 136.195 53.8927 135.943 53.594C135.7 53.286 135.401 53.048 135.047 52.88C134.692 52.712 134.295 52.628 133.857 52.628C133.409 52.628 133.007 52.712 132.653 52.88C132.298 53.048 131.995 53.286 131.743 53.594C131.5 53.902 131.313 54.2707 131.183 54.7C131.052 55.1293 130.987 55.61 130.987 56.142ZM138.561 56.142C138.561 56.9727 138.435 57.7053 138.183 58.34C137.94 58.9747 137.604 59.5067 137.175 59.936C136.755 60.356 136.26 60.6733 135.691 60.888C135.121 61.1027 134.515 61.21 133.871 61.21C133.227 61.21 132.615 61.1027 132.037 60.888C131.467 60.6733 130.968 60.356 130.539 59.936C130.119 59.5067 129.783 58.9747 129.531 58.34C129.279 57.7053 129.153 56.9727 129.153 56.142C129.153 55.3113 129.279 54.5833 129.531 53.958C129.783 53.3233 130.123 52.7913 130.553 52.362C130.991 51.9327 131.495 51.6107 132.065 51.396C132.634 51.1813 133.236 51.074 133.871 51.074C134.505 51.074 135.107 51.1813 135.677 51.396C136.246 51.6107 136.741 51.9327 137.161 52.362C137.59 52.7913 137.931 53.3233 138.183 53.958C138.435 54.5833 138.561 55.3113 138.561 56.142ZM144.234 61.21C143.571 61.21 143.002 61.1167 142.526 60.93C142.05 60.734 141.653 60.4633 141.336 60.118C141.028 59.7727 140.799 59.3667 140.65 58.9C140.501 58.4333 140.426 57.92 140.426 57.36V51.298H142.204V57.192C142.204 57.6307 142.251 58.0087 142.344 58.326C142.447 58.634 142.587 58.886 142.764 59.082C142.951 59.278 143.165 59.4227 143.408 59.516C143.66 59.6093 143.94 59.656 144.248 59.656C144.556 59.656 144.836 59.6093 145.088 59.516C145.34 59.4227 145.555 59.278 145.732 59.082C145.919 58.886 146.059 58.634 146.152 58.326C146.255 58.0087 146.306 57.6307 146.306 57.192V51.298H148.084V57.36C148.084 57.92 148.005 58.4333 147.846 58.9C147.697 59.3667 147.463 59.7727 147.146 60.118C146.838 60.4633 146.441 60.734 145.956 60.93C145.471 61.1167 144.897 61.21 144.234 61.21ZM153.014 51.2C154.414 51.2 155.482 51.4567 156.22 51.97C156.966 52.4833 157.34 53.2673 157.34 54.322C157.34 55.638 156.691 56.5293 155.394 56.996C155.571 57.2107 155.772 57.472 155.996 57.78C156.22 58.088 156.448 58.424 156.682 58.788C156.915 59.1427 157.139 59.5113 157.354 59.894C157.568 60.2673 157.76 60.636 157.928 61H155.954C155.776 60.664 155.585 60.328 155.38 59.992C155.174 59.6467 154.964 59.3153 154.75 58.998C154.544 58.6713 154.339 58.368 154.134 58.088C153.928 57.7987 153.737 57.542 153.56 57.318C153.429 57.3273 153.317 57.332 153.224 57.332C153.13 57.332 153.042 57.332 152.958 57.332H152.104V61H150.34V51.438C150.769 51.3447 151.226 51.284 151.712 51.256C152.197 51.2187 152.631 51.2 153.014 51.2ZM153.14 52.726C152.766 52.726 152.421 52.74 152.104 52.768V55.904H152.874C153.303 55.904 153.681 55.8807 154.008 55.834C154.334 55.7873 154.605 55.7033 154.82 55.582C155.044 55.4607 155.212 55.2973 155.324 55.092C155.436 54.8867 155.492 54.6253 155.492 54.308C155.492 54.0093 155.436 53.7573 155.324 53.552C155.212 53.3467 155.048 53.1833 154.834 53.062C154.628 52.9407 154.381 52.8567 154.092 52.81C153.802 52.754 153.485 52.726 153.14 52.726ZM169.324 51.298V52.824H166.342V61H164.564V52.824H161.582V51.298H169.324ZM176.317 61C176.186 60.6173 176.051 60.2393 175.911 59.866C175.771 59.4927 175.636 59.11 175.505 58.718H171.417C171.286 59.11 171.151 59.4973 171.011 59.88C170.88 60.2533 170.75 60.6267 170.619 61H168.785C169.149 59.964 169.494 59.0073 169.821 58.13C170.148 57.2527 170.465 56.422 170.773 55.638C171.09 54.854 171.403 54.1073 171.711 53.398C172.019 52.6887 172.336 51.9887 172.663 51.298H174.329C174.656 51.9887 174.973 52.6887 175.281 53.398C175.589 54.1073 175.897 54.854 176.205 55.638C176.522 56.422 176.844 57.2527 177.171 58.13C177.507 59.0073 177.857 59.964 178.221 61H176.317ZM173.461 53.174C173.246 53.6687 172.999 54.2707 172.719 54.98C172.448 55.6893 172.164 56.4593 171.865 57.29H175.057C174.758 56.4593 174.469 55.6847 174.189 54.966C173.909 54.2473 173.666 53.65 173.461 53.174ZM182.121 51.2C183.521 51.2 184.59 51.4567 185.327 51.97C186.074 52.4833 186.447 53.2673 186.447 54.322C186.447 55.638 185.798 56.5293 184.501 56.996C184.678 57.2107 184.879 57.472 185.103 57.78C185.327 58.088 185.556 58.424 185.789 58.788C186.022 59.1427 186.246 59.5113 186.461 59.894C186.676 60.2673 186.867 60.636 187.035 61H185.061C184.884 60.664 184.692 60.328 184.487 59.992C184.282 59.6467 184.072 59.3153 183.857 58.998C183.652 58.6713 183.446 58.368 183.241 58.088C183.036 57.7987 182.844 57.542 182.667 57.318C182.536 57.3273 182.424 57.332 182.331 57.332C182.238 57.332 182.149 57.332 182.065 57.332H181.211V61H179.447V51.438C179.876 51.3447 180.334 51.284 180.819 51.256C181.304 51.2187 181.738 51.2 182.121 51.2ZM182.247 52.726C181.874 52.726 181.528 52.74 181.211 52.768V55.904H181.981C182.41 55.904 182.788 55.8807 183.115 55.834C183.442 55.7873 183.712 55.7033 183.927 55.582C184.151 55.4607 184.319 55.2973 184.431 55.092C184.543 54.8867 184.599 54.6253 184.599 54.308C184.599 54.0093 184.543 53.7573 184.431 53.552C184.319 53.3467 184.156 53.1833 183.941 53.062C183.736 52.9407 183.488 52.8567 183.199 52.81C182.91 52.754 182.592 52.726 182.247 52.726ZM192.815 52.628C191.817 52.628 191.051 52.9407 190.519 53.566C189.997 54.182 189.735 55.0407 189.735 56.142C189.735 56.6647 189.796 57.1453 189.917 57.584C190.048 58.0133 190.235 58.382 190.477 58.69C190.729 58.998 191.037 59.2407 191.401 59.418C191.775 59.586 192.209 59.67 192.703 59.67C193.011 59.67 193.277 59.6607 193.501 59.642C193.725 59.614 193.903 59.5813 194.033 59.544V56.058H195.797V60.72C195.555 60.8133 195.144 60.916 194.565 61.028C193.987 61.14 193.319 61.196 192.563 61.196C191.863 61.196 191.224 61.084 190.645 60.86C190.067 60.636 189.572 60.3093 189.161 59.88C188.76 59.4507 188.447 58.9233 188.223 58.298C187.999 57.6727 187.887 56.954 187.887 56.142C187.887 55.33 188.009 54.6113 188.251 53.986C188.503 53.3607 188.844 52.8333 189.273 52.404C189.703 51.9653 190.207 51.634 190.785 51.41C191.364 51.186 191.98 51.074 192.633 51.074C193.081 51.074 193.478 51.1067 193.823 51.172C194.178 51.228 194.481 51.2933 194.733 51.368C194.985 51.4427 195.191 51.522 195.349 51.606C195.517 51.69 195.634 51.7507 195.699 51.788L195.167 53.23C194.887 53.062 194.537 52.922 194.117 52.81C193.707 52.6887 193.273 52.628 192.815 52.628ZM197.836 61V51.298H204.066V52.796H199.6V55.19H203.576V56.66H199.6V59.502H204.402V61H197.836ZM212.801 51.298V52.824H209.819V61H208.041V52.824H205.059V51.298H212.801ZM223.854 61C223.723 60.6173 223.588 60.2393 223.448 59.866C223.308 59.4927 223.173 59.11 223.042 58.718H218.954C218.823 59.11 218.688 59.4973 218.548 59.88C218.417 60.2533 218.287 60.6267 218.156 61H216.322C216.686 59.964 217.031 59.0073 217.358 58.13C217.685 57.2527 218.002 56.422 218.31 55.638C218.627 54.854 218.94 54.1073 219.248 53.398C219.556 52.6887 219.873 51.9887 220.2 51.298H221.866C222.193 51.9887 222.51 52.6887 222.818 53.398C223.126 54.1073 223.434 54.854 223.742 55.638C224.059 56.422 224.381 57.2527 224.708 58.13C225.044 59.0073 225.394 59.964 225.758 61H223.854ZM220.998 53.174C220.783 53.6687 220.536 54.2707 220.256 54.98C219.985 55.6893 219.701 56.4593 219.402 57.29H222.594C222.295 56.4593 222.006 55.6847 221.726 54.966C221.446 54.2473 221.203 53.65 220.998 53.174ZM229.098 51.298C229.304 51.6527 229.532 52.0867 229.784 52.6C230.036 53.1133 230.293 53.6547 230.554 54.224C230.816 54.784 231.072 55.358 231.324 55.946C231.586 56.5247 231.824 57.0613 232.038 57.556C232.253 57.0613 232.486 56.5247 232.738 55.946C232.99 55.358 233.247 54.784 233.508 54.224C233.77 53.6547 234.026 53.1133 234.278 52.6C234.53 52.0867 234.759 51.6527 234.964 51.298H236.56C236.644 52.0073 236.724 52.7633 236.798 53.566C236.873 54.3593 236.938 55.176 236.994 56.016C237.06 56.8467 237.116 57.6867 237.162 58.536C237.218 59.376 237.265 60.1973 237.302 61H235.566C235.529 59.8707 235.482 58.7087 235.426 57.514C235.38 56.3193 235.305 55.162 235.202 54.042C235.1 54.2567 234.978 54.5133 234.838 54.812C234.698 55.1107 234.549 55.4373 234.39 55.792C234.232 56.1373 234.068 56.4967 233.9 56.87C233.742 57.2433 233.583 57.6073 233.424 57.962C233.275 58.3073 233.135 58.634 233.004 58.942C232.874 59.2407 232.762 59.4973 232.668 59.712H231.352C231.259 59.4973 231.147 59.236 231.016 58.928C230.886 58.62 230.741 58.2933 230.582 57.948C230.433 57.5933 230.274 57.2293 230.106 56.856C229.948 56.4827 229.789 56.1233 229.63 55.778C229.472 55.4327 229.322 55.1107 229.182 54.812C229.042 54.504 228.921 54.2473 228.818 54.042C228.716 55.162 228.636 56.3193 228.58 57.514C228.534 58.7087 228.492 59.8707 228.454 61H226.718C226.756 60.1973 226.798 59.3667 226.844 58.508C226.9 57.6493 226.956 56.8 227.012 55.96C227.078 55.1107 227.148 54.2893 227.222 53.496C227.297 52.7027 227.376 51.97 227.46 51.298H229.098ZM240.799 56.142C240.799 56.674 240.865 57.1593 240.995 57.598C241.126 58.0273 241.313 58.396 241.555 58.704C241.807 59.0027 242.111 59.236 242.465 59.404C242.82 59.572 243.221 59.656 243.669 59.656C244.108 59.656 244.505 59.572 244.859 59.404C245.214 59.236 245.513 59.0027 245.755 58.704C246.007 58.396 246.199 58.0273 246.329 57.598C246.46 57.1593 246.525 56.674 246.525 56.142C246.525 55.61 246.46 55.1293 246.329 54.7C246.199 54.2613 246.007 53.8927 245.755 53.594C245.513 53.286 245.214 53.048 244.859 52.88C244.505 52.712 244.108 52.628 243.669 52.628C243.221 52.628 242.82 52.712 242.465 52.88C242.111 53.048 241.807 53.286 241.555 53.594C241.313 53.902 241.126 54.2707 240.995 54.7C240.865 55.1293 240.799 55.61 240.799 56.142ZM248.373 56.142C248.373 56.9727 248.247 57.7053 247.995 58.34C247.753 58.9747 247.417 59.5067 246.987 59.936C246.567 60.356 246.073 60.6733 245.503 60.888C244.934 61.1027 244.327 61.21 243.683 61.21C243.039 61.21 242.428 61.1027 241.849 60.888C241.28 60.6733 240.781 60.356 240.351 59.936C239.931 59.5067 239.595 58.9747 239.343 58.34C239.091 57.7053 238.965 56.9727 238.965 56.142C238.965 55.3113 239.091 54.5833 239.343 53.958C239.595 53.3233 239.936 52.7913 240.365 52.362C240.804 51.9327 241.308 51.6107 241.877 51.396C242.447 51.1813 243.049 51.074 243.683 51.074C244.318 51.074 244.92 51.1813 245.489 51.396C246.059 51.6107 246.553 51.9327 246.973 52.362C247.403 52.7913 247.743 53.3233 247.995 53.958C248.247 54.5833 248.373 55.3113 248.373 56.142ZM254.046 61.21C253.384 61.21 252.814 61.1167 252.338 60.93C251.862 60.734 251.466 60.4633 251.148 60.118C250.84 59.7727 250.612 59.3667 250.462 58.9C250.313 58.4333 250.238 57.92 250.238 57.36V51.298H252.016V57.192C252.016 57.6307 252.063 58.0087 252.156 58.326C252.259 58.634 252.399 58.886 252.576 59.082C252.763 59.278 252.978 59.4227 253.22 59.516C253.472 59.6093 253.752 59.656 254.06 59.656C254.368 59.656 254.648 59.6093 254.9 59.516C255.152 59.4227 255.367 59.278 255.544 59.082C255.731 58.886 255.871 58.634 255.964 58.326C256.067 58.0087 256.118 57.6307 256.118 57.192V51.298H257.896V57.36C257.896 57.92 257.817 58.4333 257.658 58.9C257.509 59.3667 257.276 59.7727 256.958 60.118C256.65 60.4633 256.254 60.734 255.768 60.93C255.283 61.1167 254.709 61.21 254.046 61.21ZM266.69 61C266.373 60.468 266.018 59.8987 265.626 59.292C265.234 58.676 264.828 58.06 264.408 57.444C263.988 56.8187 263.559 56.2167 263.12 55.638C262.691 55.05 262.28 54.5227 261.888 54.056V61H260.152V51.298H261.594C261.968 51.69 262.369 52.1567 262.798 52.698C263.228 53.23 263.657 53.7853 264.086 54.364C264.525 54.9427 264.945 55.526 265.346 56.114C265.757 56.6927 266.121 57.234 266.438 57.738V51.298H268.188V61H266.69ZM277.278 51.298V52.824H274.296V61H272.518V52.824H269.536V51.298H277.278Z" fill="black"/>
</g>
<defs>
<filter id="filter0_d_1_8099" x="269.189" y="192.584" width="22.6474" height="22.6475" filterUnits="userSpaceOnUse" color-interpolation-filters="sRGB">
<feFlood flood-opacity="0" result="BackgroundImageFix"/>
<feColorMatrix in="SourceAlpha" type="matrix" values="0 0 0 0 0 0 0 0 0 0 0 0 0 0 0 0 0 0 127 0" result="hardAlpha"/>
<feOffset dy="1.8118"/>
<feGaussianBlur stdDeviation="2.26475"/>
<feComposite in2="hardAlpha" operator="out"/>
<feColorMatrix type="matrix" values="0 0 0 0 0.533333 0 0 0 0 0.027451 0 0 0 0 0.968627 0 0 0 0.07 0"/>
<feBlend mode="normal" in2="BackgroundImageFix" result="effect1_dropShadow_1_8099"/>
<feBlend mode="normal" in="SourceGraphic" in2="effect1_dropShadow_1_8099" result="shape"/>
</filter>
<filter id="filter1_d_1_8099" x="104.224" y="192.937" width="23.0463" height="23.0464" filterUnits="userSpaceOnUse" color-interpolation-filters="sRGB">
<feFlood flood-opacity="0" result="BackgroundImageFix"/>
<feColorMatrix in="SourceAlpha" type="matrix" values="0 0 0 0 0 0 0 0 0 0 0 0 0 0 0 0 0 0 127 0" result="hardAlpha"/>
<feOffset dy="2.36449"/>
<feGaussianBlur stdDeviation="2.36449"/>
<feComposite in2="hardAlpha" operator="out"/>
<feColorMatrix type="matrix" values="0 0 0 0 0.412084 0 0 0 0 0 0 0 0 0 0.766667 0 0 0 0.12 0"/>
<feBlend mode="normal" in2="BackgroundImageFix" result="effect1_dropShadow_1_8099"/>
<feBlend mode="normal" in="SourceGraphic" in2="effect1_dropShadow_1_8099" result="shape"/>
</filter>
<filter id="filter2_d_1_8099" x="213.762" y="191.688" width="23.5341" height="23.5342" filterUnits="userSpaceOnUse" color-interpolation-filters="sRGB">
<feFlood flood-opacity="0" result="BackgroundImageFix"/>
<feColorMatrix in="SourceAlpha" type="matrix" values="0 0 0 0 0 0 0 0 0 0 0 0 0 0 0 0 0 0 127 0" result="hardAlpha"/>
<feOffset dy="1.8118"/>
<feGaussianBlur stdDeviation="2.26475"/>
<feComposite in2="hardAlpha" operator="out"/>
<feColorMatrix type="matrix" values="0 0 0 0 0.533333 0 0 0 0 0.027451 0 0 0 0 0.968627 0 0 0 0.07 0"/>
<feBlend mode="normal" in2="BackgroundImageFix" result="effect1_dropShadow_1_8099"/>
<feBlend mode="normal" in="SourceGraphic" in2="effect1_dropShadow_1_8099" result="shape"/>
</filter>
<filter id="filter3_f_1_8099" x="147.212" y="186.428" width="46.1074" height="39.6051" filterUnits="userSpaceOnUse" color-interpolation-filters="sRGB">
<feFlood flood-opacity="0" result="BackgroundImageFix"/>
<feBlend mode="normal" in="SourceGraphic" in2="BackgroundImageFix" result="shape"/>
<feGaussianBlur stdDeviation="8.86682" result="effect1_foregroundBlur_1_8099"/>
</filter>
<filter id="filter4_d_1_8099" x="158.793" y="192.141" width="23.5341" height="23.5342" filterUnits="userSpaceOnUse" color-interpolation-filters="sRGB">
<feFlood flood-opacity="0" result="BackgroundImageFix"/>
<feColorMatrix in="SourceAlpha" type="matrix" values="0 0 0 0 0 0 0 0 0 0 0 0 0 0 0 0 0 0 127 0" result="hardAlpha"/>
<feOffset dy="1.8118"/>
<feGaussianBlur stdDeviation="2.26475"/>
<feComposite in2="hardAlpha" operator="out"/>
<feColorMatrix type="matrix" values="0 0 0 0 0.533333 0 0 0 0 0.027451 0 0 0 0 0.968627 0 0 0 0.07 0"/>
<feBlend mode="normal" in2="BackgroundImageFix" result="effect1_dropShadow_1_8099"/>
<feBlend mode="normal" in="SourceGraphic" in2="effect1_dropShadow_1_8099" result="shape"/>
</filter>
<clipPath id="clip0_1_8099">
<rect width="364" height="458" rx="16" fill="white"/>
</clipPath>
<clipPath id="clip1_1_8099">
<rect x="55" y="117" width="253" height="359" rx="20" fill="white"/>
</clipPath>
<clipPath id="clip2_1_8099">
<rect width="7.70016" height="7.70016" fill="white" transform="matrix(-1 0 0 1 284.594 198.019)"/>
</clipPath>
<clipPath id="clip3_1_8099">
<rect width="7.70016" height="7.70016" fill="white" transform="matrix(-1 0 0 1 119.367 198.246)"/>
</clipPath>
<clipPath id="clip4_1_8099">
<rect width="10.6402" height="4.13785" fill="white" transform="matrix(-1 0 0 1 175.586 204.161)"/>
</clipPath>
<clipPath id="clip5_1_8099">
<rect width="7.70016" height="7.70016" fill="white" transform="matrix(-1 0 0 1 174.18 198.472)"/>
</clipPath>
</defs>
</svg>
