<svg width="561" height="307" viewBox="0 0 561 307" fill="none" xmlns="http://www.w3.org/2000/svg">
<g clip-path="url(#clip0_9_1868)">
<rect x="-2" y="-1" width="563" height="308" rx="16" fill="#B2D6FF"/>
<path opacity="0.5" d="M172.378 -50L-49 19.9752L102.991 326L668 227.102L593.106 19.9752L278.111 93.6824L172.378 -50Z" fill="#CCE4FF"/>
<path d="M58.208 78C64.864 78 68.416 73.904 68.416 67.28C68.416 60.656 64.832 56.56 58.208 56.56H50.112V78H58.208ZM57.76 59.76C62.208 59.76 64.64 61.904 64.64 67.28C64.64 72.656 62.208 74.8 57.792 74.8H53.728V59.76H57.76ZM78.7375 78.32C82.1935 78.32 84.3055 76.752 85.4895 74.96L83.2815 72.656C82.7055 73.968 81.4895 75.376 78.7695 75.376C76.3055 75.376 74.6735 73.872 74.4815 71.088H85.6175C85.6815 70.768 85.7455 70.096 85.7455 69.52C85.7455 65.2 83.1535 62.096 78.4815 62.096C74.0975 62.096 71.0575 65.328 71.0575 70.224C71.0575 75.088 74.0975 78.32 78.7375 78.32ZM78.4815 64.976C80.8495 64.976 82.2575 66.32 82.5135 68.784H74.5135C74.8015 66.256 76.2735 64.976 78.4815 64.976ZM95.0388 78.32C98.3348 78.32 100.927 76.784 100.927 73.712C100.927 71.472 99.6468 70.064 96.1588 69.168L94.2708 68.688C92.1588 68.144 91.3268 67.728 91.3268 66.608C91.3268 65.552 92.2548 64.976 93.6308 64.976C95.6468 64.976 97.3108 66 98.3988 67.728L100.511 65.488C99.5508 63.728 97.2148 62.128 93.8868 62.128C90.3028 62.128 87.9668 63.888 87.9668 66.8C87.9668 69.648 90.2388 70.736 92.7028 71.312L94.7828 71.824C96.5108 72.24 97.6948 72.624 97.6948 73.776C97.6948 74.896 96.7028 75.44 95.1667 75.44C92.3828 75.44 90.4628 73.84 89.5988 72.272L87.4868 74.512C88.6708 76.976 91.7108 78.32 95.0388 78.32ZM107.347 60.208V56.56H103.763V60.208H107.347ZM107.347 78V62.416H103.763V78H107.347ZM117.57 73.328C121.41 73.328 124.002 71.024 124.002 67.728C124.002 65.776 123.106 64.176 121.57 63.184L124.482 59.984L121.026 58.8L120.258 62.544C119.458 62.256 118.562 62.096 117.57 62.096C113.73 62.096 111.106 64.432 111.106 67.728C111.106 69.712 112.066 71.344 113.634 72.304C112.194 73.296 110.978 74.672 110.978 76.08C110.978 77.264 111.714 78 112.834 78.32C111.33 78.672 109.922 79.472 109.922 80.944C109.922 82.896 112.45 84.272 116.802 84.272C122.466 84.272 125.346 82.032 125.346 79.088C125.346 76.752 123.65 75.504 120.546 75.504H115.522C114.082 75.504 113.666 75.088 113.666 74.288C113.666 73.744 114.018 73.136 114.306 72.656C115.234 73.104 116.354 73.328 117.57 73.328ZM117.57 70.768C115.874 70.768 114.53 69.68 114.53 67.728C114.53 65.776 115.874 64.688 117.57 64.688C119.266 64.688 120.61 65.776 120.61 67.728C120.61 69.68 119.266 70.768 117.57 70.768ZM116.962 81.584C114.114 81.584 112.834 80.912 112.834 79.76C112.834 79.216 113.218 78.704 113.57 78.352H120.066C121.442 78.352 122.114 78.704 122.114 79.536C122.114 80.848 120.322 81.584 116.962 81.584ZM131.066 78V69.264C131.066 66.704 131.962 65.008 134.586 65.008C136.986 65.008 137.626 66.32 137.626 68.24V78H141.242V67.152C141.242 63.92 139.386 62.096 136.346 62.096C133.242 62.096 131.642 64.208 131.066 66.672V62.416H127.482V78H131.066Z" fill="black"/>
<path d="M53.152 149.14C55.812 149.14 57.604 147.026 57.604 144.296C57.604 141.594 55.812 139.48 53.152 139.48C50.492 139.48 48.7 141.594 48.7 144.296C48.7 147.026 50.492 149.14 53.152 149.14ZM53.166 148.272C50.94 148.272 49.666 146.592 49.666 144.296C49.666 142.028 50.94 140.334 53.166 140.334C55.378 140.334 56.652 142.028 56.652 144.296C56.652 146.592 55.378 148.272 53.166 148.272ZM60.2126 149V145.108C60.2126 143.946 60.8006 142.91 62.2426 142.91C63.3906 142.91 63.8666 143.582 63.8666 144.674V149H64.7906V144.464C64.7906 142.924 63.9226 142.14 62.6206 142.14C61.2486 142.14 60.4506 143.064 60.2126 144.156V139.62H59.2886V149H60.2126ZM70.6989 149V145.108C70.6989 143.946 71.2729 142.91 72.6869 142.91C73.8489 142.91 74.3529 143.582 74.3529 144.674V149H75.2769V144.464C75.2769 142.924 74.3809 142.14 73.0509 142.14C71.7069 142.14 70.9369 143.064 70.6989 144.156V142.28H69.7749V149H70.6989ZM79.8457 149.14C81.6937 149.14 82.9957 147.768 82.9957 145.64C82.9957 143.512 81.6937 142.14 79.8457 142.14C77.9977 142.14 76.7097 143.512 76.7097 145.64C76.7097 147.768 77.9977 149.14 79.8457 149.14ZM79.8457 148.356C78.5297 148.356 77.6337 147.418 77.6337 145.64C77.6337 143.848 78.5297 142.896 79.8457 142.896C81.1757 142.896 82.0717 143.848 82.0717 145.64C82.0717 147.418 81.1757 148.356 79.8457 148.356ZM85.3532 149V147.348H84.2472V149H85.3532ZM87.8825 149V147.348H86.7765V149H87.8825ZM90.4118 149V147.348H89.3058V149H90.4118ZM93.1651 149V145.738H95.8251C97.6591 145.738 99.1151 144.73 99.1151 142.742C99.1151 140.628 97.6591 139.62 95.8251 139.62H92.2411V149H93.1651ZM95.6851 140.432C97.0011 140.432 98.1771 141.006 98.1771 142.742C98.1771 144.352 97.0011 144.926 95.6851 144.926H93.1651V140.432H95.6851ZM103.02 149.14C104.868 149.14 106.17 147.768 106.17 145.64C106.17 143.512 104.868 142.14 103.02 142.14C101.172 142.14 99.8836 143.512 99.8836 145.64C99.8836 147.768 101.172 149.14 103.02 149.14ZM103.02 148.356C101.704 148.356 100.808 147.418 100.808 145.64C100.808 143.848 101.704 142.896 103.02 142.896C104.35 142.896 105.246 143.848 105.246 145.64C105.246 147.418 104.35 148.356 103.02 148.356ZM110.263 149.14C111.509 149.14 112.601 148.566 112.601 147.278C112.601 146.326 112.041 145.752 110.641 145.402L109.745 145.178C108.765 144.94 108.261 144.688 108.261 143.988C108.261 143.288 108.835 142.91 109.647 142.91C110.697 142.91 111.397 143.414 111.705 144.324L112.405 143.806C112.069 142.854 111.131 142.14 109.703 142.14C108.317 142.14 107.393 142.868 107.393 144.03C107.393 145.234 108.387 145.682 109.353 145.92L110.263 146.13C111.173 146.34 111.775 146.592 111.775 147.292C111.775 147.992 111.187 148.356 110.291 148.356C108.933 148.356 108.093 147.6 107.883 146.69L107.197 147.208C107.603 148.524 108.891 149.14 110.263 149.14ZM115.078 141.076V139.62H114.154V141.076H115.078ZM115.078 149V142.28H114.154V149H115.078ZM119.237 149.154C120.105 149.154 120.763 148.748 121.057 148.258L120.735 147.362C120.511 147.838 120.021 148.272 119.419 148.272C118.831 148.272 118.327 148.006 118.327 147.04V142.994H120.581V142.28H118.327V140.628L117.417 141.314V142.28H116.325V142.994H117.417V147.292C117.417 148.51 118.215 149.154 119.237 149.154ZM123.226 141.076V139.62H122.302V141.076H123.226ZM123.226 149V142.28H122.302V149H123.226ZM127.875 149.14C129.723 149.14 131.025 147.768 131.025 145.64C131.025 143.512 129.723 142.14 127.875 142.14C126.027 142.14 124.739 143.512 124.739 145.64C124.739 147.768 126.027 149.14 127.875 149.14ZM127.875 148.356C126.559 148.356 125.663 147.418 125.663 145.64C125.663 143.848 126.559 142.896 127.875 142.896C129.205 142.896 130.101 143.848 130.101 145.64C130.101 147.418 129.205 148.356 127.875 148.356ZM133.562 149V145.108C133.562 143.946 134.136 142.91 135.55 142.91C136.712 142.91 137.216 143.582 137.216 144.674V149H138.14V144.464C138.14 142.924 137.244 142.14 135.914 142.14C134.57 142.14 133.8 143.064 133.562 144.156V142.28H132.638V149H133.562ZM145.869 149.14C147.549 149.14 148.599 148.16 148.865 146.802L147.983 146.424C147.843 147.558 147.171 148.37 145.883 148.37C144.553 148.37 143.671 147.418 143.671 145.64C143.671 143.848 144.553 142.896 145.883 142.896C147.171 142.896 147.843 143.722 147.983 144.856L148.865 144.478C148.599 143.12 147.549 142.14 145.883 142.14C143.979 142.14 142.733 143.456 142.733 145.64C142.733 147.824 143.979 149.14 145.869 149.14ZM152.404 149.14C153.79 149.14 154.546 148.202 154.784 147.082V149H155.694V142.28H154.784V146.158C154.784 147.334 154.224 148.356 152.768 148.356C151.62 148.356 151.116 147.684 151.116 146.606V142.28H150.206V146.802C150.206 148.356 151.088 149.14 152.404 149.14ZM158.582 149V145.108C158.582 143.946 159.38 142.826 160.388 142.826C161.004 142.826 161.256 143.218 161.256 143.652C161.256 144.058 161.088 144.492 160.906 144.702H161.9C162.026 144.478 162.152 144.058 162.152 143.554C162.152 142.63 161.508 142.126 160.724 142.126C159.576 142.126 158.834 143.05 158.582 144.114V142.28H157.658V149H158.582ZM164.256 149V145.108C164.256 143.946 165.054 142.826 166.062 142.826C166.678 142.826 166.93 143.218 166.93 143.652C166.93 144.058 166.762 144.492 166.58 144.702H167.574C167.7 144.478 167.826 144.058 167.826 143.554C167.826 142.63 167.182 142.126 166.398 142.126C165.25 142.126 164.508 143.05 164.256 144.114V142.28H163.332V149H164.256ZM171.683 149.14C173.111 149.14 174.007 148.454 174.483 147.628L173.923 146.97C173.629 147.628 173.041 148.37 171.683 148.37C170.353 148.37 169.443 147.53 169.387 145.85H174.511C174.525 145.738 174.553 145.57 174.553 145.402C174.553 143.372 173.405 142.14 171.571 142.14C169.751 142.14 168.505 143.456 168.505 145.64C168.505 147.866 169.807 149.14 171.683 149.14ZM171.571 142.896C172.803 142.896 173.629 143.666 173.713 145.178H169.401C169.527 143.666 170.339 142.896 171.571 142.896ZM177.093 149V145.108C177.093 143.946 177.667 142.91 179.081 142.91C180.243 142.91 180.747 143.582 180.747 144.674V149H181.671V144.464C181.671 142.924 180.775 142.14 179.445 142.14C178.101 142.14 177.331 143.064 177.093 144.156V142.28H176.169V149H177.093ZM185.573 149.154C186.441 149.154 187.099 148.748 187.393 148.258L187.071 147.362C186.847 147.838 186.357 148.272 185.755 148.272C185.167 148.272 184.663 148.006 184.663 147.04V142.994H186.917V142.28H184.663V140.628L183.753 141.314V142.28H182.661V142.994H183.753V147.292C183.753 148.51 184.551 149.154 185.573 149.154ZM189.562 149V139.62H188.638V149H189.562ZM192.279 151.366C193.189 151.366 193.847 150.876 194.239 149.798L197.081 142.28H196.115L194.435 146.886L193.945 148.272L193.469 146.886L191.775 142.28H190.795L193.259 148.776L193.777 148.762L193.525 149.434C193.231 150.26 192.839 150.554 192.293 150.554C191.677 150.554 191.299 150.176 191.019 149.63L190.501 150.302C190.753 150.806 191.369 151.366 192.279 151.366ZM202.589 149V142.994H205.375V149H206.299V142.28H202.589V141.524C202.589 140.628 203.023 140.25 203.723 140.25C204.423 140.25 205.039 140.642 205.347 141.076L205.851 140.418C205.543 140.026 204.801 139.48 203.765 139.48C202.519 139.48 201.679 140.138 201.679 141.496V142.28H200.573V142.994H201.679V149H202.589ZM209.181 149V139.62H208.257V149H209.181ZM212.066 149V139.62H211.142V149H212.066ZM216.841 149.14C218.269 149.14 219.165 148.454 219.641 147.628L219.081 146.97C218.787 147.628 218.199 148.37 216.841 148.37C215.511 148.37 214.601 147.53 214.545 145.85H219.669C219.683 145.738 219.711 145.57 219.711 145.402C219.711 143.372 218.563 142.14 216.729 142.14C214.909 142.14 213.663 143.456 213.663 145.64C213.663 147.866 214.965 149.14 216.841 149.14ZM216.729 142.896C217.961 142.896 218.787 143.666 218.871 145.178H214.559C214.685 143.666 215.497 142.896 216.729 142.896ZM223.872 149.154C225.202 149.154 225.916 148.23 226.126 147.166V149H227.036V139.62H226.126V144.128C225.916 143.064 225.202 142.14 223.872 142.14C222.122 142.14 221.072 143.526 221.072 145.64C221.072 147.768 222.122 149.154 223.872 149.154ZM222.01 145.64C222.01 143.764 222.934 142.91 224.152 142.91C225.51 142.91 226.126 143.89 226.126 145.01V146.27C226.126 147.39 225.51 148.384 224.152 148.384C222.934 148.384 222.01 147.53 222.01 145.64ZM228.886 150.19C229.614 150.092 229.838 149.742 229.838 149.056V147.348H228.732V149H229.25V149.182C229.25 149.546 229.068 149.63 228.676 149.686L228.886 150.19ZM237.347 149.14C239.027 149.14 240.077 148.16 240.343 146.802L239.461 146.424C239.321 147.558 238.649 148.37 237.361 148.37C236.031 148.37 235.149 147.418 235.149 145.64C235.149 143.848 236.031 142.896 237.361 142.896C238.649 142.896 239.321 143.722 239.461 144.856L240.343 144.478C240.077 143.12 239.027 142.14 237.361 142.14C235.457 142.14 234.211 143.456 234.211 145.64C234.211 147.824 235.457 149.14 237.347 149.14ZM242.8 149V145.108C242.8 143.946 243.388 142.91 244.83 142.91C245.978 142.91 246.454 143.582 246.454 144.674V149H247.378V144.464C247.378 142.924 246.51 142.14 245.208 142.14C243.836 142.14 243.038 143.064 242.8 144.156V139.62H241.876V149H242.8ZM252.073 149.14C253.501 149.14 254.397 148.454 254.873 147.628L254.313 146.97C254.019 147.628 253.431 148.37 252.073 148.37C250.743 148.37 249.833 147.53 249.777 145.85H254.901C254.915 145.738 254.943 145.57 254.943 145.402C254.943 143.372 253.795 142.14 251.961 142.14C250.141 142.14 248.895 143.456 248.895 145.64C248.895 147.866 250.197 149.14 252.073 149.14ZM251.961 142.896C253.193 142.896 254.019 143.666 254.103 145.178H249.791C249.917 143.666 250.729 142.896 251.961 142.896ZM259.441 149.14C261.121 149.14 262.171 148.16 262.437 146.802L261.555 146.424C261.415 147.558 260.743 148.37 259.455 148.37C258.125 148.37 257.243 147.418 257.243 145.64C257.243 143.848 258.125 142.896 259.455 142.896C260.743 142.896 261.415 143.722 261.555 144.856L262.437 144.478C262.171 143.12 261.121 142.14 259.455 142.14C257.551 142.14 256.305 143.456 256.305 145.64C256.305 147.824 257.551 149.14 259.441 149.14ZM264.894 149V146.536L266.154 145.346L268.436 149H269.556L266.784 144.8L269.5 142.28H268.338L265.734 144.688L264.852 145.556L264.894 144.716V139.62H263.97V149H264.894ZM274.779 149V147.236C275.003 148.272 275.731 149.154 277.019 149.154C278.783 149.154 279.833 147.768 279.833 145.64C279.833 143.526 278.783 142.14 277.019 142.14C275.731 142.14 275.003 143.022 274.779 144.058V139.62H273.855V149H274.779ZM274.779 146.27V145.01C274.779 143.89 275.381 142.91 276.739 142.91C277.971 142.91 278.895 143.764 278.895 145.64C278.895 147.53 277.971 148.384 276.739 148.384C275.381 148.384 274.779 147.39 274.779 146.27ZM282.759 149.14C284.103 149.14 284.971 148.104 285.195 147.138V147.852C285.195 148.706 285.643 149 286.315 149H286.945V148.174H286.553C286.231 148.174 286.077 148.048 286.077 147.698V144.548C286.077 143.05 285.265 142.14 283.697 142.14C282.269 142.14 281.289 142.938 280.869 143.638L281.513 144.282C281.863 143.54 282.591 142.966 283.599 142.966C284.691 142.966 285.167 143.554 285.167 144.562V144.618L282.619 145.78C281.681 146.2 281.023 146.76 281.023 147.642C281.023 148.538 281.653 149.14 282.759 149.14ZM281.947 147.516C281.947 147.012 282.283 146.676 283.011 146.34L285.195 145.304V146.494C285.195 147.404 284.271 148.37 283.025 148.37C282.367 148.37 281.947 148.076 281.947 147.516ZM291.146 149.14C292.826 149.14 293.876 148.16 294.142 146.802L293.26 146.424C293.12 147.558 292.448 148.37 291.16 148.37C289.83 148.37 288.948 147.418 288.948 145.64C288.948 143.848 289.83 142.896 291.16 142.896C292.448 142.896 293.12 143.722 293.26 144.856L294.142 144.478C293.876 143.12 292.826 142.14 291.16 142.14C289.256 142.14 288.01 143.456 288.01 145.64C288.01 147.824 289.256 149.14 291.146 149.14ZM296.599 149V146.536L297.859 145.346L300.141 149H301.261L298.489 144.8L301.205 142.28H300.043L297.439 144.688L296.557 145.556L296.599 144.716V139.62H295.675V149H296.599ZM306.484 149V139.62H305.56V149H306.484ZM309.761 149.14C311.105 149.14 311.973 148.104 312.197 147.138V147.852C312.197 148.706 312.645 149 313.317 149H313.947V148.174H313.555C313.233 148.174 313.079 148.048 313.079 147.698V144.548C313.079 143.05 312.267 142.14 310.699 142.14C309.271 142.14 308.291 142.938 307.871 143.638L308.515 144.282C308.865 143.54 309.593 142.966 310.601 142.966C311.693 142.966 312.169 143.554 312.169 144.562V144.618L309.621 145.78C308.683 146.2 308.025 146.76 308.025 147.642C308.025 148.538 308.655 149.14 309.761 149.14ZM308.949 147.516C308.949 147.012 309.285 146.676 310.013 146.34L312.197 145.304V146.494C312.197 147.404 311.273 148.37 310.027 148.37C309.369 148.37 308.949 148.076 308.949 147.516ZM317.424 149.154C318.292 149.154 318.95 148.748 319.244 148.258L318.922 147.362C318.698 147.838 318.208 148.272 317.606 148.272C317.018 148.272 316.514 148.006 316.514 147.04V142.994H318.768V142.28H316.514V140.628L315.604 141.314V142.28H314.512V142.994H315.604V147.292C315.604 148.51 316.402 149.154 317.424 149.154ZM322.784 149.14C324.212 149.14 325.108 148.454 325.584 147.628L325.024 146.97C324.73 147.628 324.142 148.37 322.784 148.37C321.454 148.37 320.544 147.53 320.488 145.85H325.612C325.626 145.738 325.654 145.57 325.654 145.402C325.654 143.372 324.506 142.14 322.672 142.14C320.852 142.14 319.606 143.456 319.606 145.64C319.606 147.866 320.908 149.14 322.784 149.14ZM322.672 142.896C323.904 142.896 324.73 143.666 324.814 145.178H320.502C320.628 143.666 321.44 142.896 322.672 142.896ZM328.195 149V145.108C328.195 143.946 328.993 142.826 330.001 142.826C330.617 142.826 330.869 143.218 330.869 143.652C330.869 144.058 330.701 144.492 330.519 144.702H331.513C331.639 144.478 331.765 144.058 331.765 143.554C331.765 142.63 331.121 142.126 330.337 142.126C329.189 142.126 328.447 143.05 328.195 144.114V142.28H327.271V149H328.195ZM333.881 146.158C333.881 144.296 334.035 142.028 334.035 139.62H332.943C332.943 142.042 333.097 144.31 333.097 146.158H333.881ZM334.035 149V147.348H332.929V149H334.035ZM342.32 149V140.432H345.372V139.62H338.344V140.432H341.396V149H342.32ZM348.061 149.14C349.909 149.14 351.211 147.768 351.211 145.64C351.211 143.512 349.909 142.14 348.061 142.14C346.213 142.14 344.925 143.512 344.925 145.64C344.925 147.768 346.213 149.14 348.061 149.14ZM348.061 148.356C346.745 148.356 345.849 147.418 345.849 145.64C345.849 143.848 346.745 142.896 348.061 142.896C349.391 142.896 350.287 143.848 350.287 145.64C350.287 147.418 349.391 148.356 348.061 148.356ZM356.851 149V145.108C356.851 143.946 357.425 142.91 358.615 142.91C359.665 142.91 360.183 143.484 360.183 144.66V149H361.093V145.108C361.093 143.946 361.667 142.91 362.871 142.91C363.907 142.91 364.425 143.484 364.425 144.66V149H365.349V144.45C365.349 142.91 364.621 142.14 363.333 142.14C362.073 142.14 361.303 143.078 361.079 144.184C361.009 142.826 360.295 142.14 359.077 142.14C357.831 142.14 357.089 143.05 356.851 144.156V142.28H355.927V149H356.851ZM368.605 149.14C369.949 149.14 370.817 148.104 371.041 147.138V147.852C371.041 148.706 371.489 149 372.161 149H372.791V148.174H372.399C372.077 148.174 371.923 148.048 371.923 147.698V144.548C371.923 143.05 371.111 142.14 369.543 142.14C368.115 142.14 367.135 142.938 366.715 143.638L367.359 144.282C367.709 143.54 368.437 142.966 369.445 142.966C370.537 142.966 371.013 143.554 371.013 144.562V144.618L368.465 145.78C367.527 146.2 366.869 146.76 366.869 147.642C366.869 148.538 367.499 149.14 368.605 149.14ZM367.793 147.516C367.793 147.012 368.129 146.676 368.857 146.34L371.041 145.304V146.494C371.041 147.404 370.117 148.37 368.871 148.37C368.213 148.37 367.793 148.076 367.793 147.516ZM375.199 149V146.536L376.459 145.346L378.741 149H379.861L377.089 144.8L379.805 142.28H378.643L376.039 144.688L375.157 145.556L375.199 144.716V139.62H374.275V149H375.199ZM383.583 149.14C385.011 149.14 385.907 148.454 386.383 147.628L385.823 146.97C385.529 147.628 384.941 148.37 383.583 148.37C382.253 148.37 381.343 147.53 381.287 145.85H386.411C386.425 145.738 386.453 145.57 386.453 145.402C386.453 143.372 385.305 142.14 383.471 142.14C381.651 142.14 380.405 143.456 380.405 145.64C380.405 147.866 381.707 149.14 383.583 149.14ZM383.471 142.896C384.703 142.896 385.529 143.666 385.613 145.178H381.301C381.427 143.666 382.239 142.896 383.471 142.896ZM393.749 149.14C394.995 149.14 396.087 148.566 396.087 147.278C396.087 146.326 395.527 145.752 394.127 145.402L393.231 145.178C392.251 144.94 391.747 144.688 391.747 143.988C391.747 143.288 392.321 142.91 393.133 142.91C394.183 142.91 394.883 143.414 395.191 144.324L395.891 143.806C395.555 142.854 394.617 142.14 393.189 142.14C391.803 142.14 390.879 142.868 390.879 144.03C390.879 145.234 391.873 145.682 392.839 145.92L393.749 146.13C394.659 146.34 395.261 146.592 395.261 147.292C395.261 147.992 394.673 148.356 393.777 148.356C392.419 148.356 391.579 147.6 391.369 146.69L390.683 147.208C391.089 148.524 392.377 149.14 393.749 149.14ZM399.646 149.14C401.032 149.14 401.788 148.202 402.026 147.082V149H402.936V142.28H402.026V146.158C402.026 147.334 401.466 148.356 400.01 148.356C398.862 148.356 398.358 147.684 398.358 146.606V142.28H397.448V146.802C397.448 148.356 398.33 149.14 399.646 149.14ZM405.824 149V145.108C405.824 143.946 406.622 142.826 407.63 142.826C408.246 142.826 408.498 143.218 408.498 143.652C408.498 144.058 408.33 144.492 408.148 144.702H409.142C409.268 144.478 409.394 144.058 409.394 143.554C409.394 142.63 408.75 142.126 407.966 142.126C406.818 142.126 406.076 143.05 405.824 144.114V142.28H404.9V149H405.824ZM413.251 149.14C414.679 149.14 415.575 148.454 416.051 147.628L415.491 146.97C415.197 147.628 414.609 148.37 413.251 148.37C411.921 148.37 411.011 147.53 410.955 145.85H416.079C416.093 145.738 416.121 145.57 416.121 145.402C416.121 143.372 414.973 142.14 413.139 142.14C411.319 142.14 410.073 143.456 410.073 145.64C410.073 147.866 411.375 149.14 413.251 149.14ZM413.139 142.896C414.371 142.896 415.197 143.666 415.281 145.178H410.969C411.095 143.666 411.907 142.896 413.139 142.896ZM421.597 151.366C422.507 151.366 423.165 150.876 423.557 149.798L426.399 142.28H425.433L423.753 146.886L423.263 148.272L422.787 146.886L421.093 142.28H420.113L422.577 148.776L423.095 148.762L422.843 149.434C422.549 150.26 422.157 150.554 421.611 150.554C420.995 150.554 420.617 150.176 420.337 149.63L419.819 150.302C420.071 150.806 420.687 151.366 421.597 151.366ZM429.941 149.14C431.789 149.14 433.091 147.768 433.091 145.64C433.091 143.512 431.789 142.14 429.941 142.14C428.093 142.14 426.805 143.512 426.805 145.64C426.805 147.768 428.093 149.14 429.941 149.14ZM429.941 148.356C428.625 148.356 427.729 147.418 427.729 145.64C427.729 143.848 428.625 142.896 429.941 142.896C431.271 142.896 432.167 143.848 432.167 145.64C432.167 147.418 431.271 148.356 429.941 148.356ZM436.861 149.14C438.247 149.14 439.003 148.202 439.241 147.082V149H440.151V142.28H439.241V146.158C439.241 147.334 438.681 148.356 437.225 148.356C436.077 148.356 435.573 147.684 435.573 146.606V142.28H434.663V146.802C434.663 148.356 435.545 149.14 436.861 149.14ZM447.599 149.154C448.929 149.154 449.643 148.23 449.853 147.166V149H450.763V139.62H449.853V144.128C449.643 143.064 448.929 142.14 447.599 142.14C445.849 142.14 444.799 143.526 444.799 145.64C444.799 147.768 445.849 149.154 447.599 149.154ZM445.737 145.64C445.737 143.764 446.661 142.91 447.879 142.91C449.237 142.91 449.853 143.89 449.853 145.01V146.27C449.853 147.39 449.237 148.384 447.879 148.384C446.661 148.384 445.737 147.53 445.737 145.64ZM455.412 149.14C457.26 149.14 458.562 147.768 458.562 145.64C458.562 143.512 457.26 142.14 455.412 142.14C453.564 142.14 452.276 143.512 452.276 145.64C452.276 147.768 453.564 149.14 455.412 149.14ZM455.412 148.356C454.096 148.356 453.2 147.418 453.2 145.64C453.2 143.848 454.096 142.896 455.412 142.896C456.742 142.896 457.638 143.848 457.638 145.64C457.638 147.418 456.742 148.356 455.412 148.356ZM461.099 149V145.108C461.099 143.946 461.673 142.91 463.087 142.91C464.249 142.91 464.753 143.582 464.753 144.674V149H465.677V144.464C465.677 142.924 464.781 142.14 463.451 142.14C462.107 142.14 461.337 143.064 461.099 144.156V142.28H460.175V149H461.099ZM468.215 142.588L468.425 139.62H467.319L467.529 142.588H468.215ZM472.313 149.154C473.181 149.154 473.839 148.748 474.133 148.258L473.811 147.362C473.587 147.838 473.097 148.272 472.495 148.272C471.907 148.272 471.403 148.006 471.403 147.04V142.994H473.657V142.28H471.403V140.628L470.493 141.314V142.28H469.401V142.994H470.493V147.292C470.493 148.51 471.291 149.154 472.313 149.154ZM479.256 149V145.108C479.256 143.946 479.83 142.91 481.02 142.91C482.07 142.91 482.588 143.484 482.588 144.66V149H483.498V145.108C483.498 143.946 484.072 142.91 485.276 142.91C486.312 142.91 486.83 143.484 486.83 144.66V149H487.754V144.45C487.754 142.91 487.026 142.14 485.738 142.14C484.478 142.14 483.708 143.078 483.484 144.184C483.414 142.826 482.7 142.14 481.482 142.14C480.236 142.14 479.494 143.05 479.256 144.156V142.28H478.332V149H479.256ZM490.576 141.076V139.62H489.652V141.076H490.576ZM490.576 149V142.28H489.652V149H490.576ZM495.113 149.14C496.359 149.14 497.451 148.566 497.451 147.278C497.451 146.326 496.891 145.752 495.491 145.402L494.595 145.178C493.615 144.94 493.111 144.688 493.111 143.988C493.111 143.288 493.685 142.91 494.497 142.91C495.547 142.91 496.247 143.414 496.555 144.324L497.255 143.806C496.919 142.854 495.981 142.14 494.553 142.14C493.167 142.14 492.243 142.868 492.243 144.03C492.243 145.234 493.237 145.682 494.203 145.92L495.113 146.13C496.023 146.34 496.625 146.592 496.625 147.292C496.625 147.992 496.037 148.356 495.141 148.356C493.783 148.356 492.943 147.6 492.733 146.69L492.047 147.208C492.453 148.524 493.741 149.14 495.113 149.14ZM501.415 149.14C502.661 149.14 503.753 148.566 503.753 147.278C503.753 146.326 503.193 145.752 501.793 145.402L500.897 145.178C499.917 144.94 499.413 144.688 499.413 143.988C499.413 143.288 499.987 142.91 500.799 142.91C501.849 142.91 502.549 143.414 502.857 144.324L503.557 143.806C503.221 142.854 502.283 142.14 500.855 142.14C499.469 142.14 498.545 142.868 498.545 144.03C498.545 145.234 499.539 145.682 500.505 145.92L501.415 146.13C502.325 146.34 502.927 146.592 502.927 147.292C502.927 147.992 502.339 148.356 501.443 148.356C500.085 148.356 499.245 147.6 499.035 146.69L498.349 147.208C498.755 148.524 500.043 149.14 501.415 149.14ZM50.296 181.14C51.64 181.14 52.508 180.104 52.732 179.138V179.852C52.732 180.706 53.18 181 53.852 181H54.482V180.174H54.09C53.768 180.174 53.614 180.048 53.614 179.698V176.548C53.614 175.05 52.802 174.14 51.234 174.14C49.806 174.14 48.826 174.938 48.406 175.638L49.05 176.282C49.4 175.54 50.128 174.966 51.136 174.966C52.228 174.966 52.704 175.554 52.704 176.562V176.618L50.156 177.78C49.218 178.2 48.56 178.76 48.56 179.642C48.56 180.538 49.19 181.14 50.296 181.14ZM49.484 179.516C49.484 179.012 49.82 178.676 50.548 178.34L52.732 177.304V178.494C52.732 179.404 51.808 180.37 50.562 180.37C49.904 180.37 49.484 180.076 49.484 179.516ZM56.8903 181V177.108C56.8903 175.946 57.4643 174.91 58.8783 174.91C60.0403 174.91 60.5443 175.582 60.5443 176.674V181H61.4683V176.464C61.4683 174.924 60.5723 174.14 59.2423 174.14C57.8983 174.14 57.1283 175.064 56.8903 176.156V174.28H55.9663V181H56.8903ZM63.9137 183.366C64.8237 183.366 65.4817 182.876 65.8737 181.798L68.7157 174.28H67.7497L66.0697 178.886L65.5797 180.272L65.1037 178.886L63.4097 174.28H62.4297L64.8937 180.776L65.4117 180.762L65.1597 181.434C64.8657 182.26 64.4737 182.554 63.9277 182.554C63.3117 182.554 62.9337 182.176 62.6537 181.63L62.1357 182.302C62.3877 182.806 63.0037 183.366 63.9137 183.366ZM74.9934 181.14C76.3794 181.14 77.1354 180.202 77.3734 179.082V181H78.2834V174.28H77.3734V178.158C77.3734 179.334 76.8134 180.356 75.3574 180.356C74.2094 180.356 73.7054 179.684 73.7054 178.606V174.28H72.7954V178.802C72.7954 180.356 73.6774 181.14 74.9934 181.14ZM81.1716 183.604V179.222C81.3956 180.258 82.1236 181.14 83.4116 181.14C85.1616 181.14 86.2116 179.754 86.2116 177.626C86.2116 175.512 85.1616 174.112 83.4116 174.112C82.1236 174.112 81.3956 174.994 81.1716 176.044V174.28H80.2476V183.604H81.1716ZM81.1716 178.256V176.996C81.1716 175.876 81.7736 174.896 83.1316 174.896C84.3496 174.896 85.2736 175.736 85.2736 177.626C85.2736 179.516 84.3496 180.356 83.1316 180.356C81.7736 180.356 81.1716 179.376 81.1716 178.256ZM90.2982 181.154C91.6282 181.154 92.3422 180.23 92.5522 179.166V181H93.4622V171.62H92.5522V176.128C92.3422 175.064 91.6282 174.14 90.2982 174.14C88.5482 174.14 87.4982 175.526 87.4982 177.64C87.4982 179.768 88.5482 181.154 90.2982 181.154ZM88.4362 177.64C88.4362 175.764 89.3602 174.91 90.5782 174.91C91.9362 174.91 92.5522 175.89 92.5522 177.01V178.27C92.5522 179.39 91.9362 180.384 90.5782 180.384C89.3602 180.384 88.4362 179.53 88.4362 177.64ZM96.7394 181.14C98.0834 181.14 98.9514 180.104 99.1754 179.138V179.852C99.1754 180.706 99.6234 181 100.295 181H100.925V180.174H100.533C100.211 180.174 100.057 180.048 100.057 179.698V176.548C100.057 175.05 99.2454 174.14 97.6774 174.14C96.2494 174.14 95.2694 174.938 94.8494 175.638L95.4934 176.282C95.8434 175.54 96.5714 174.966 97.5794 174.966C98.6714 174.966 99.1474 175.554 99.1474 176.562V176.618L96.5994 177.78C95.6614 178.2 95.0034 178.76 95.0034 179.642C95.0034 180.538 95.6334 181.14 96.7394 181.14ZM95.9274 179.516C95.9274 179.012 96.2634 178.676 96.9914 178.34L99.1754 177.304V178.494C99.1754 179.404 98.2514 180.37 97.0054 180.37C96.3474 180.37 95.9274 180.076 95.9274 179.516ZM104.403 181.154C105.271 181.154 105.929 180.748 106.223 180.258L105.901 179.362C105.677 179.838 105.187 180.272 104.585 180.272C103.997 180.272 103.493 180.006 103.493 179.04V174.994H105.747V174.28H103.493V172.628L102.583 173.314V174.28H101.491V174.994H102.583V179.292C102.583 180.51 103.381 181.154 104.403 181.154ZM109.763 181.14C111.191 181.14 112.087 180.454 112.563 179.628L112.003 178.97C111.709 179.628 111.121 180.37 109.763 180.37C108.433 180.37 107.523 179.53 107.467 177.85H112.591C112.605 177.738 112.633 177.57 112.633 177.402C112.633 175.372 111.485 174.14 109.651 174.14C107.831 174.14 106.585 175.456 106.585 177.64C106.585 179.866 107.887 181.14 109.763 181.14ZM109.651 174.896C110.883 174.896 111.709 175.666 111.793 177.178H107.481C107.607 175.666 108.419 174.896 109.651 174.896ZM119.929 181.14C121.175 181.14 122.267 180.566 122.267 179.278C122.267 178.326 121.707 177.752 120.307 177.402L119.411 177.178C118.431 176.94 117.927 176.688 117.927 175.988C117.927 175.288 118.501 174.91 119.313 174.91C120.363 174.91 121.063 175.414 121.371 176.324L122.071 175.806C121.735 174.854 120.797 174.14 119.369 174.14C117.983 174.14 117.059 174.868 117.059 176.03C117.059 177.234 118.053 177.682 119.019 177.92L119.929 178.13C120.839 178.34 121.441 178.592 121.441 179.292C121.441 179.992 120.853 180.356 119.957 180.356C118.599 180.356 117.759 179.6 117.549 178.69L116.863 179.208C117.269 180.524 118.557 181.14 119.929 181.14ZM125.825 181.14C127.211 181.14 127.967 180.202 128.205 179.082V181H129.115V174.28H128.205V178.158C128.205 179.334 127.645 180.356 126.189 180.356C125.041 180.356 124.537 179.684 124.537 178.606V174.28H123.627V178.802C123.627 180.356 124.509 181.14 125.825 181.14ZM132.004 181V179.236C132.228 180.272 132.956 181.154 134.244 181.154C136.008 181.154 137.058 179.768 137.058 177.64C137.058 175.526 136.008 174.14 134.244 174.14C132.956 174.14 132.228 175.022 132.004 176.058V171.62H131.08V181H132.004ZM132.004 178.27V177.01C132.004 175.89 132.606 174.91 133.964 174.91C135.196 174.91 136.12 175.764 136.12 177.64C136.12 179.53 135.196 180.384 133.964 180.384C132.606 180.384 132.004 179.39 132.004 178.27ZM141.079 181.14C142.325 181.14 143.417 180.566 143.417 179.278C143.417 178.326 142.857 177.752 141.457 177.402L140.561 177.178C139.581 176.94 139.077 176.688 139.077 175.988C139.077 175.288 139.651 174.91 140.463 174.91C141.513 174.91 142.213 175.414 142.521 176.324L143.221 175.806C142.885 174.854 141.947 174.14 140.519 174.14C139.133 174.14 138.209 174.868 138.209 176.03C138.209 177.234 139.203 177.682 140.169 177.92L141.079 178.13C141.989 178.34 142.591 178.592 142.591 179.292C142.591 179.992 142.003 180.356 141.107 180.356C139.749 180.356 138.909 179.6 138.699 178.69L138.013 179.208C138.419 180.524 139.707 181.14 141.079 181.14ZM147.564 181.14C149.244 181.14 150.294 180.16 150.56 178.802L149.678 178.424C149.538 179.558 148.866 180.37 147.578 180.37C146.248 180.37 145.366 179.418 145.366 177.64C145.366 175.848 146.248 174.896 147.578 174.896C148.866 174.896 149.538 175.722 149.678 176.856L150.56 176.478C150.294 175.12 149.244 174.14 147.578 174.14C145.674 174.14 144.428 175.456 144.428 177.64C144.428 179.824 145.674 181.14 147.564 181.14ZM152.867 181V177.108C152.867 175.946 153.665 174.826 154.673 174.826C155.289 174.826 155.541 175.218 155.541 175.652C155.541 176.058 155.373 176.492 155.191 176.702H156.185C156.311 176.478 156.437 176.058 156.437 175.554C156.437 174.63 155.793 174.126 155.009 174.126C153.861 174.126 153.119 175.05 152.867 176.114V174.28H151.943V181H152.867ZM158.623 173.076V171.62H157.699V173.076H158.623ZM158.623 181V174.28H157.699V181H158.623ZM161.508 181V179.236C161.732 180.272 162.46 181.154 163.748 181.154C165.512 181.154 166.562 179.768 166.562 177.64C166.562 175.526 165.512 174.14 163.748 174.14C162.46 174.14 161.732 175.022 161.508 176.058V171.62H160.584V181H161.508ZM161.508 178.27V177.01C161.508 175.89 162.11 174.91 163.468 174.91C164.7 174.91 165.624 175.764 165.624 177.64C165.624 179.53 164.7 180.384 163.468 180.384C162.11 180.384 161.508 179.39 161.508 178.27ZM171.054 181.14C172.482 181.14 173.378 180.454 173.854 179.628L173.294 178.97C173 179.628 172.412 180.37 171.054 180.37C169.724 180.37 168.814 179.53 168.758 177.85H173.882C173.896 177.738 173.924 177.57 173.924 177.402C173.924 175.372 172.776 174.14 170.942 174.14C169.122 174.14 167.876 175.456 167.876 177.64C167.876 179.866 169.178 181.14 171.054 181.14ZM170.942 174.896C172.174 174.896 173 175.666 173.084 177.178H168.772C168.898 175.666 169.71 174.896 170.942 174.896ZM180.842 181.154C181.71 181.154 182.368 180.748 182.662 180.258L182.34 179.362C182.116 179.838 181.626 180.272 181.024 180.272C180.436 180.272 179.932 180.006 179.932 179.04V174.994H182.186V174.28H179.932V172.628L179.022 173.314V174.28H177.93V174.994H179.022V179.292C179.022 180.51 179.82 181.154 180.842 181.154ZM186.076 181.14C187.924 181.14 189.226 179.768 189.226 177.64C189.226 175.512 187.924 174.14 186.076 174.14C184.228 174.14 182.94 175.512 182.94 177.64C182.94 179.768 184.228 181.14 186.076 181.14ZM186.076 180.356C184.76 180.356 183.864 179.418 183.864 177.64C183.864 175.848 184.76 174.896 186.076 174.896C187.406 174.896 188.302 175.848 188.302 177.64C188.302 179.418 187.406 180.356 186.076 180.356ZM196.631 181.14C198.479 181.14 199.781 179.768 199.781 177.64C199.781 175.512 198.479 174.14 196.631 174.14C194.783 174.14 193.495 175.512 193.495 177.64C193.495 179.768 194.783 181.14 196.631 181.14ZM196.631 180.356C195.315 180.356 194.419 179.418 194.419 177.64C194.419 175.848 195.315 174.896 196.631 174.896C197.961 174.896 198.857 175.848 198.857 177.64C198.857 179.418 197.961 180.356 196.631 180.356ZM203.55 181.14C204.936 181.14 205.692 180.202 205.93 179.082V181H206.84V174.28H205.93V178.158C205.93 179.334 205.37 180.356 203.914 180.356C202.766 180.356 202.262 179.684 202.262 178.606V174.28H201.352V178.802C201.352 180.356 202.234 181.14 203.55 181.14ZM209.728 181V177.108C209.728 175.946 210.526 174.826 211.534 174.826C212.15 174.826 212.402 175.218 212.402 175.652C212.402 176.058 212.234 176.492 212.052 176.702H213.046C213.172 176.478 213.298 176.058 213.298 175.554C213.298 174.63 212.654 174.126 211.87 174.126C210.722 174.126 209.98 175.05 209.728 176.114V174.28H208.804V181H209.728ZM218.56 181V177.108C218.56 175.946 219.134 174.91 220.548 174.91C221.71 174.91 222.214 175.582 222.214 176.674V181H223.138V176.464C223.138 174.924 222.242 174.14 220.912 174.14C219.568 174.14 218.798 175.064 218.56 176.156V174.28H217.636V181H218.56ZM227.833 181.14C229.261 181.14 230.157 180.454 230.633 179.628L230.073 178.97C229.779 179.628 229.191 180.37 227.833 180.37C226.503 180.37 225.593 179.53 225.537 177.85H230.661C230.675 177.738 230.703 177.57 230.703 177.402C230.703 175.372 229.555 174.14 227.721 174.14C225.901 174.14 224.655 175.456 224.655 177.64C224.655 179.866 225.957 181.14 227.833 181.14ZM227.721 174.896C228.953 174.896 229.779 175.666 229.863 177.178H225.551C225.677 175.666 226.489 174.896 227.721 174.896ZM234.315 181L235.743 176.52L236.135 175.05L236.513 176.52L237.941 181H239.131L240.965 174.28H239.929L238.837 178.816L238.529 180.314L238.123 178.816L236.695 174.28H235.561L234.133 178.816L233.727 180.314L233.419 178.816L232.313 174.28H231.291L233.125 181H234.315ZM244.535 181.14C245.781 181.14 246.873 180.566 246.873 179.278C246.873 178.326 246.313 177.752 244.913 177.402L244.017 177.178C243.037 176.94 242.533 176.688 242.533 175.988C242.533 175.288 243.107 174.91 243.919 174.91C244.969 174.91 245.669 175.414 245.977 176.324L246.677 175.806C246.341 174.854 245.403 174.14 243.975 174.14C242.589 174.14 241.665 174.868 241.665 176.03C241.665 177.234 242.659 177.682 243.625 177.92L244.535 178.13C245.445 178.34 246.047 178.592 246.047 179.292C246.047 179.992 245.459 180.356 244.563 180.356C243.205 180.356 242.365 179.6 242.155 178.69L241.469 179.208C241.875 180.524 243.163 181.14 244.535 181.14ZM249.349 181V171.62H248.425V181H249.349ZM254.124 181.14C255.552 181.14 256.448 180.454 256.924 179.628L256.364 178.97C256.07 179.628 255.482 180.37 254.124 180.37C252.794 180.37 251.884 179.53 251.828 177.85H256.952C256.966 177.738 256.994 177.57 256.994 177.402C256.994 175.372 255.846 174.14 254.012 174.14C252.192 174.14 250.946 175.456 250.946 177.64C250.946 179.866 252.248 181.14 254.124 181.14ZM254.012 174.896C255.244 174.896 256.07 175.666 256.154 177.178H251.842C251.968 175.666 252.78 174.896 254.012 174.896ZM260.713 181.154C261.581 181.154 262.239 180.748 262.533 180.258L262.211 179.362C261.987 179.838 261.497 180.272 260.895 180.272C260.307 180.272 259.803 180.006 259.803 179.04V174.994H262.057V174.28H259.803V172.628L258.893 173.314V174.28H257.801V174.994H258.893V179.292C258.893 180.51 259.691 181.154 260.713 181.154ZM265.362 181.154C266.23 181.154 266.888 180.748 267.182 180.258L266.86 179.362C266.636 179.838 266.146 180.272 265.544 180.272C264.956 180.272 264.452 180.006 264.452 179.04V174.994H266.706V174.28H264.452V172.628L263.542 173.314V174.28H262.45V174.994H263.542V179.292C263.542 180.51 264.34 181.154 265.362 181.154ZM270.722 181.14C272.15 181.14 273.046 180.454 273.522 179.628L272.962 178.97C272.668 179.628 272.08 180.37 270.722 180.37C269.392 180.37 268.482 179.53 268.426 177.85H273.55C273.564 177.738 273.592 177.57 273.592 177.402C273.592 175.372 272.444 174.14 270.61 174.14C268.79 174.14 267.544 175.456 267.544 177.64C267.544 179.866 268.846 181.14 270.722 181.14ZM270.61 174.896C271.842 174.896 272.668 175.666 272.752 177.178H268.44C268.566 175.666 269.378 174.896 270.61 174.896ZM276.133 181V177.108C276.133 175.946 276.931 174.826 277.939 174.826C278.555 174.826 278.807 175.218 278.807 175.652C278.807 176.058 278.639 176.492 278.457 176.702H279.451C279.577 176.478 279.703 176.058 279.703 175.554C279.703 174.63 279.059 174.126 278.275 174.126C277.127 174.126 276.385 175.05 276.133 176.114V174.28H275.209V181H276.133ZM280.765 181V179.348H279.659V181H280.765Z" fill="black"/>
<path d="M50.864 252V248.608H53.44C55.712 248.608 57.456 247.44 57.456 244.992C57.456 242.432 55.696 241.28 53.44 241.28H49.056V252H50.864ZM53.264 242.88C54.496 242.88 55.584 243.328 55.584 244.992C55.584 246.544 54.496 247.008 53.264 247.008H50.864V242.88H53.264ZM61.9115 252.16C64.1835 252.16 65.7195 250.528 65.7195 248.112C65.7195 245.68 64.1835 244.048 61.9115 244.048C59.6715 244.048 58.1355 245.68 58.1355 248.112C58.1355 250.528 59.6715 252.16 61.9115 252.16ZM61.9275 250.672C60.7755 250.672 59.9755 249.904 59.9755 248.112C59.9755 246.304 60.7755 245.536 61.9275 245.536C63.0955 245.536 63.8955 246.304 63.8955 248.112C63.8955 249.904 63.0955 250.672 61.9275 250.672ZM70.3319 252.16C71.9799 252.16 73.2759 251.392 73.2759 249.856C73.2759 248.736 72.6359 248.032 70.8919 247.584L69.9479 247.344C68.8919 247.072 68.4759 246.864 68.4759 246.304C68.4759 245.776 68.9399 245.488 69.6279 245.488C70.6359 245.488 71.4679 246 72.0119 246.864L73.0679 245.744C72.5879 244.864 71.4199 244.064 69.7559 244.064C67.9639 244.064 66.7959 244.944 66.7959 246.4C66.7959 247.824 67.9319 248.368 69.1639 248.656L70.2039 248.912C71.0679 249.12 71.6599 249.312 71.6599 249.888C71.6599 250.448 71.1639 250.72 70.3959 250.72C69.0039 250.72 68.0439 249.92 67.6119 249.136L66.5559 250.256C67.1479 251.488 68.6679 252.16 70.3319 252.16ZM76.486 243.104V241.28H74.694V243.104H76.486ZM76.486 252V244.208H74.694V252H76.486ZM81.1975 252.176C82.3335 252.176 83.1015 251.648 83.4375 251.152L82.8775 249.552C82.6535 250 82.2055 250.496 81.5975 250.496C81.0695 250.496 80.6695 250.288 80.6695 249.44V245.6H83.0535V244.208H80.6695V242.128L78.8775 243.264V244.208H77.6615V245.6H78.8775V249.872C78.8775 251.248 79.7255 252.176 81.1975 252.176ZM86.4391 243.104V241.28H84.6471V243.104H86.4391ZM86.4391 252V244.208H84.6471V252H86.4391ZM91.6146 252.16C93.8866 252.16 95.4226 250.528 95.4226 248.112C95.4226 245.68 93.8866 244.048 91.6146 244.048C89.3746 244.048 87.8386 245.68 87.8386 248.112C87.8386 250.528 89.3746 252.16 91.6146 252.16ZM91.6306 250.672C90.4786 250.672 89.6786 249.904 89.6786 248.112C89.6786 246.304 90.4786 245.536 91.6306 245.536C92.7986 245.536 93.5986 246.304 93.5986 248.112C93.5986 249.904 92.7986 250.672 91.6306 250.672ZM98.7516 252V247.632C98.7516 246.352 99.1996 245.504 100.512 245.504C101.712 245.504 102.032 246.16 102.032 247.12V252H103.84V246.576C103.84 244.96 102.912 244.048 101.392 244.048C99.8396 244.048 99.0396 245.104 98.7516 246.336V244.208H96.9596V252H98.7516ZM113.919 252.128C116.286 252.128 117.919 250.896 118.671 248.816L117.102 247.664C116.767 249.264 115.775 250.416 113.935 250.416C111.727 250.416 110.687 248.832 110.687 246.624C110.687 244.4 111.727 242.832 113.935 242.832C115.775 242.832 116.767 243.968 117.102 245.584L118.671 244.432C117.919 242.336 116.286 241.12 113.919 241.12C110.623 241.12 108.767 243.536 108.767 246.624C108.767 249.712 110.623 252.128 113.919 252.128ZM122.002 252V241.28H120.21V252H122.002ZM127.177 252.16C129.449 252.16 130.985 250.528 130.985 248.112C130.985 245.68 129.449 244.048 127.177 244.048C124.937 244.048 123.401 245.68 123.401 248.112C123.401 250.528 124.937 252.16 127.177 252.16ZM127.193 250.672C126.041 250.672 125.241 249.904 125.241 248.112C125.241 246.304 126.041 245.536 127.193 245.536C128.361 245.536 129.161 246.304 129.161 248.112C129.161 249.904 128.361 250.672 127.193 250.672ZM135.598 252.16C137.246 252.16 138.542 251.392 138.542 249.856C138.542 248.736 137.902 248.032 136.158 247.584L135.214 247.344C134.158 247.072 133.742 246.864 133.742 246.304C133.742 245.776 134.206 245.488 134.894 245.488C135.902 245.488 136.734 246 137.278 246.864L138.334 245.744C137.854 244.864 136.686 244.064 135.022 244.064C133.23 244.064 132.062 244.944 132.062 246.4C132.062 247.824 133.198 248.368 134.43 248.656L135.47 248.912C136.334 249.12 136.926 249.312 136.926 249.888C136.926 250.448 136.43 250.72 135.661 250.72C134.27 250.72 133.31 249.92 132.878 249.136L131.822 250.256C132.414 251.488 133.934 252.16 135.598 252.16ZM143.259 252.16C144.987 252.16 146.043 251.376 146.635 250.48L145.531 249.328C145.243 249.984 144.635 250.688 143.275 250.688C142.043 250.688 141.227 249.936 141.131 248.544H146.699C146.731 248.384 146.763 248.048 146.763 247.76C146.763 245.6 145.467 244.048 143.131 244.048C140.939 244.048 139.419 245.664 139.419 248.112C139.419 250.544 140.939 252.16 143.259 252.16ZM143.131 245.488C144.315 245.488 145.019 246.16 145.147 247.392H141.147C141.291 246.128 142.027 245.488 143.131 245.488ZM151.195 252.176C152.747 252.176 153.403 251.136 153.659 249.936V252H155.451V241.28H153.659V246.304C153.403 245.088 152.715 244.048 151.163 244.048C149.275 244.048 148.059 245.6 148.059 248.112C148.059 250.624 149.275 252.176 151.195 252.176ZM149.899 248.112C149.899 246.368 150.747 245.504 151.867 245.504C153.131 245.504 153.659 246.352 153.659 247.632V248.608C153.659 249.888 153.131 250.72 151.883 250.72C150.747 250.72 149.899 249.872 149.899 248.112Z" fill="black"/>
</g>
<defs>
<clipPath id="clip0_9_1868">
<rect width="561" height="307" rx="16" fill="white"/>
</clipPath>
</defs>
</svg>
