<svg width="20" height="20" viewBox="0 0 20 20" fill="none" xmlns="http://www.w3.org/2000/svg">
<path d="M15.4491 7.62713L10.6452 5.21919C7.41065 3.60591 6.08888 4.92768 7.70615 8.15823L8.42094 9.58382L7.70615 11.0094C6.08888 14.24 7.41464 15.5657 10.6452 13.9485L15.4491 11.5485C17.6014 10.4663 17.6054 8.7053 15.4491 7.62713ZM13.4285 9.90328L10.3856 9.91127C10.2658 9.91127 10.162 9.86335 10.0861 9.78748C10.0103 9.71161 9.96234 9.60778 9.96234 9.48798C9.96234 9.25637 10.154 9.0647 10.3856 9.0647L13.4285 9.05671C13.6601 9.05671 13.8518 9.24839 13.8518 9.48C13.8518 9.71161 13.6601 9.90328 13.4285 9.90328Z" fill="white"/>
</svg>
