<svg width="30" height="33" viewBox="0 0 30 33" fill="none" xmlns="http://www.w3.org/2000/svg">
<path d="M11.244 6.88214C11.244 9.01458 11.244 11.1532 11.2565 13.2857C11.2565 15.1259 10.6596 16.9164 8.94996 17.8614C6.9543 18.9556 4.11933 18.6758 1.89363 18.4458C1.8066 18.4458 1.73199 18.4272 1.65117 18.421C1.72577 16.8853 1.69469 15.3311 1.62008 13.8017C1.52683 11.7252 2.78267 9.25083 5.01458 8.90268C7.43301 8.52344 9.54058 8.26232 10.6845 6.92566C10.7218 6.88836 10.7591 6.84484 10.7902 6.80132C10.9581 6.57129 11.1384 6.3537 11.3187 6.12988C11.2627 6.37235 11.244 6.62725 11.244 6.87593V6.88214Z" fill="white"/>
<path d="M3.93005 32.3536C5.59621 32.4593 7.27481 32.4344 8.94097 32.4655C10.8869 32.4966 12.8826 32.7391 14.7601 32.3971C17.4583 31.906 20.4922 30.1466 21.4932 27.5416C22.4195 25.1294 21.9843 22.2509 20.3865 20.2242C20.2746 20.0874 20.1565 19.9506 20.0259 19.8139C18.4095 18.0482 15.904 17.1219 13.5167 17.4389C10.5512 17.8306 7.94003 20.162 7.16912 23.0529C6.69041 24.8559 7.10695 26.7707 6.82718 28.6047C6.59715 30.1217 5.29779 31.6759 3.92383 32.3536H3.93005Z" fill="white"/>
<path d="M20.5959 0C20.4467 0.453843 20.627 0.944989 20.8197 1.38018C23.2941 6.89469 29.9215 10.6249 29.6914 17.2523C29.5858 20.2489 28.0937 23.7677 25.5882 25.5458C25.4079 25.6763 25.2401 25.7882 25.0287 25.8504C24.55 24.9552 24.5002 23.6496 24.0961 22.6673C23.5863 21.4301 22.9149 20.2178 21.9761 19.2604C21.0746 18.3465 19.9494 17.818 19.0479 16.9228C17.1579 15.0328 15.9642 12.4465 15.8088 9.77317C15.585 5.96835 17.4874 2.18839 20.6022 0.0124341L20.5959 0Z" fill="white"/>
<path d="M3.38747 13.3046C3.38747 13.3046 3.30043 11.6447 5.0039 11.7255C5.0039 11.7255 5.6256 13.5409 3.38747 13.3046Z" fill="white" stroke="white" stroke-width="0.261407" stroke-miterlimit="10"/>
<path d="M2.82253 27.3799C4.38137 27.3799 5.64506 26.1162 5.64506 24.5574C5.64506 22.9986 4.38137 21.7349 2.82253 21.7349C1.26369 21.7349 0 22.9986 0 24.5574C0 26.1162 1.26369 27.3799 2.82253 27.3799Z" fill="white"/>
</svg>
